SplineFontDB: 3.0
FontName: Cantarell-Oblique
FullName: Cantarell Oblique
FamilyName: Cantarell
Weight: Medium
Copyright: Copyright (c) 2009 Dave Crossland <dave@lab6.com>
UComments: "Cantarell is designed by Dave Crossland+AA0ACgAA-dave@lab6.com+AA0ACgAA-http://abattis.org/cantarell/" 
Version: 001.001
ItalicAngle: -16
UnderlinePosition: -233
UnderlineWidth: 116
Ascent: 1514
Descent: 534
LayerCount: 2
Layer: 0 0 "Back"  1
Layer: 1 0 "Fore"  0
XUID: [1021 472 1916768597 5236576]
FSType: 0
OS2Version: 0
OS2_WeightWidthSlopeOnly: 0
OS2_UseTypoMetrics: 1
CreationTime: 1236980653
ModificationTime: 1247126921
PfmFamily: 33
TTFWeight: 500
TTFWidth: 5
LineGap: 211
VLineGap: 0
OS2TypoAscent: 0
OS2TypoAOffset: 1
OS2TypoDescent: 0
OS2TypoDOffset: 1
OS2TypoLinegap: 211
OS2WinAscent: 0
OS2WinAOffset: 1
OS2WinDescent: 0
OS2WinDOffset: 1
HheadAscent: 0
HheadAOffset: 1
HheadDescent: 0
HheadDOffset: 1
OS2FamilyClass: 2050
OS2Vendor: 'ABAT'
DEI: 91125

StartChar: a
Encoding: 97 97 0
Width: 1058
VWidth: 2097
Flags: HW
LayerCount: 2
Back
SplineSet
507.414 1006.52 m 4
 580.836 1006.52 847.439 997.028 883.997 757.268 c 4
 888.384 728.491 889.043 699.316 889.043 670.182 c 4
 889.043 665.453 889.026 660.725 889.004 656 c 6
 886.004 0 l 5
 773.004 0 l 5x7c
 734.668 89.973 l 5
 668.899 29.9457 570.698 -19.9671 456.689 -19.9671 c 4
 266.486 -19.9671 122.836 114.776 122.836 261.593 c 4
 122.836 354.645 181.039 485.831 385.965 532.948 c 4
 451.386 547.99 537.745 557.586 724.004 560.599 c 5
 724.004 613 l 6
 724.004 622.859 724.109 632.762 724.109 642.666 c 4
 724.109 696.887 727.85 871.27 481.17 871.27 c 4xbc
 386.956 871.27 270.723 841.293 217.004 826 c 5
 186.004 946 l 5
 306.619 991.348 418.949 1006.35 507.414 1006.52 c 4
724.004 437.479 m 5
 527.693 434.531 398.584 439.171 325.004 362 c 4
 301.542 337.393 286.442 304.041 286.442 270.218 c 4
 286.442 186.91 382.104 108.915 501.376 108.915 c 4
 523.378 108.915 632.19 110.577 724.004 209.74 c 5
 724.004 437.479 l 5
EndSplineSet
Fore
SplineSet
781 982 m 0xbc
 1005 982 1081 899 1081 775 c 0
 1081 735 1073 691 1060 644 c 2
 875 0 l 1
 759 0 l 1x7c
 747 90 l 1
 665 30 554 -20 442 -20 c 0
 282 -20 184 76 184 194 c 0
 184 214 187 235 193 256 c 0
 263 499 553 548 867 548 c 1
 889 623 l 2
 897 650 905 684 905 716 c 0
 905 783 869 846 715 846 c 0
 623 846 501 817 444 803 c 1
 447 921 l 1
 579 966 694 982 781 982 c 0xbc
832 424 m 1
 772 424 l 2
 623 424 402 415 359 264 c 0
 356 254 355 244 355 234 c 0
 355 166 423 109 524 109 c 0xbc
 545 109 652 111 769 206 c 1
 832 424 l 1
EndSplineSet
Validated: 1
EndChar

StartChar: d
Encoding: 100 100 1
Width: 1174
VWidth: 2097
Flags: HW
LayerCount: 2
Fore
SplineSet
260 465 m 0xbc
 358 806 610 983 865 983 c 0
 959 983 1028 959 1084 930 c 1
 1250 1511 l 1
 1414 1511 l 1
 981 0 l 1
 867 0 l 1x7c
 858 62 l 1
 743 3 635 -20 550 -20 c 0
 394 -20 231 58 231 283 c 0
 231 335 240 396 260 465 c 0xbc
642 115 m 0xbc
 725 115 808 142 866 169 c 1
 1049 808 l 1
 1007 829 936 854 852 854 c 0
 714 854 511 781 427 490 c 0
 411 433 403 384 403 342 c 0
 403 161 537 115 642 115 c 0xbc
EndSplineSet
Validated: 1
EndChar

StartChar: e
Encoding: 101 101 2
Width: 1088
VWidth: 2097
Flags: HW
LayerCount: 2
Back
SplineSet
605.469 1007.06 m 4
 687.75 1007.06 910.955 986.74 960.409 701.903 c 4
 971.158 639.992 972 576.838 972 514 c 6
 972 417 l 5
 293 417 l 5
 303.311 275.531 420.448 110.991 664.233 110.991 c 4
 748.749 110.991 832.451 129.96 889 147 c 5
 918 35 l 5
 832.573 5.59987 722.617 -19.9723 601.601 -20.0001 c 4
 224.279 -20.0001 129.949 238.84 129.949 462.373 c 4
 129.949 845.182 373.346 1007.06 605.469 1007.06 c 4
570.328 864.734 m 4
 385.844 864.734 299.385 700.288 297 541 c 5
 813 541 l 5
 813.179 547.489 813.271 553.984 813.271 560.479 c 4
 813.271 825.046 667.506 864.734 570.328 864.734 c 4
EndSplineSet
Fore
SplineSet
876 982 m 0
 1084 982 1143 877 1143 746 c 0
 1143 661 1118 566 1094 481 c 2
 1072 405 l 1
 406 405 l 1
 400 383 396 360 396 338 c 0
 396 222 484 111 684 111 c 0
 767 111 854 130 914 146 c 1
 912 35 l 1
 820 6 704 -20 585 -20 c 0
 312 -20 229 116 229 275 c 0
 229 332 239 392 256 450 c 0
 363 824 648 982 876 982 c 0
801 840 m 0
 622 840 489 682 445 529 c 1
 948 529 l 1
 963 581 973 632 973 677 c 0
 973 772 929 840 801 840 c 0
EndSplineSet
Validated: 1
EndChar

StartChar: h
Encoding: 104 104 3
Width: 1178
VWidth: 2097
Flags: HW
LayerCount: 2
Back
SplineSet
618.128 860.24 m 4
 565.303 860.24 474.111 845.672 354 782.879 c 5
 354 0 l 5
 190 0 l 5
 190 1511 l 5
 354 1511 l 5
 354 913.032 l 5
 420.147 948.051 550.596 1006.4 681.659 1006.4 c 4
 796.461 1006.4 990.379 957.141 1009.05 678.574 c 4
 1010.96 649.997 1011.45 621.363 1011.45 592.717 c 4
 1011.45 570.812 1011.16 548.9 1011 527 c 6
 1007 0 l 5
 843 0 l 5
 842 595 l 6
 841.889 660.702 843.394 801.374 698.413 848.323 c 4
 672.518 856.709 645.387 860.24 618.128 860.24 c 4
EndSplineSet
Fore
SplineSet
846 835 m 0
 794 835 702 822 567 761 c 1
 349 0 l 1
 185 0 l 1
 619 1511 l 1
 783 1511 l 1
 604 888 l 1
 679 923 824 981 953 981 c 0
 1142 981 1192 879 1192 766 c 0
 1192 691 1170 612 1153 553 c 2
 994 0 l 1
 826 0 l 1
 992 580 l 2
 998 602 1010 644 1010 689 c 0
 1010 760 980 835 846 835 c 0
EndSplineSet
Validated: 1
EndChar

StartChar: i
Encoding: 105 105 4
Width: 524
VWidth: 2097
Flags: HW
HStem: 0 21G<180 349.729> 1232 189<572 712>
VStem: 180 164<0 164> 463 164<824 988> 518 194<1232 1426> 572 194<1227 1421>
DStem2: 463 988 627 988 0.284685 0.958621<-980.995 0 304.79 331.67>
LayerCount: 2
Fore
SplineSet
572 1421 m 1xe4
 766 1421 l 1xe4
 712 1232 l 1
 518 1232 l 1xe8
 572 1421 l 1xe4
463 988 m 1xf0
 627 988 l 5
 344 0 l 1
 180 0 l 1
 463 988 l 1xf0
EndSplineSet
Validated: 1
EndChar

StartChar: n
Encoding: 110 110 5
Width: 1163
VWidth: 2097
Flags: HW
LayerCount: 2
Back
SplineSet
180 988 m 1
 295 988 l 1
 331 904 l 1
 485 988 604 1008 679 1008 c 0
 961 1008 997 788 997 589 c 2
 997 0 l 25
 832 0 l 1
 832 595 l 2
 832 657 835 860 608 860 c 0
 515 860 417 821 344 783 c 1
 344 0 l 1
 180 0 l 1
 180 988 l 1
EndSplineSet
Fore
SplineSet
452 963 m 1xb8
 567 963 l 1xb8
 579 879 l 1
 754 963 876 983 950 983 c 0
 1128 983 1180 894 1180 780 c 0
 1180 716 1164 644 1144 575 c 2
 979 0 l 25
 815 0 l 1
 982 583 l 2
 989 608 1001 650 1001 693 c 0
 1001 763 970 835 836 835 c 0xd8
 745 835 640 798 558 761 c 1
 340 0 l 1
 176 0 l 1
 452 963 l 1xb8
EndSplineSet
Validated: 1
EndChar

StartChar: o
Encoding: 111 111 6
Width: 1195
VWidth: 2097
Flags: HW
LayerCount: 2
Fore
SplineSet
881 982 m 0
 1090 982 1231 871 1231 665 c 0
 1231 616 1223 561 1206 501 c 0
 1113 178 855 -20 578 -20 c 0
 367 -20 236 97 236 300 c 0
 236 352 244 409 262 471 c 0
 352 785 601 982 881 982 c 0
828 842 m 0
 681 842 495 725 430 498 c 0
 417 452 410 407 410 366 c 0
 410 223 489 120 636 120 c 0
 804 120 976 258 1036 469 c 0
 1050 517 1056 561 1056 600 c 0
 1056 760 951 842 828 842 c 0
EndSplineSet
Validated: 1
EndChar

StartChar: s
Encoding: 115 115 7
Width: 1005
VWidth: 2097
Flags: HW
LayerCount: 2
Fore
SplineSet
862 982 m 0
 988 982 1034 963 1098 942 c 1
 1020 818 l 1
 961 835 897 854 799 854 c 0
 595 854 534 749 522 706 c 0
 520 699 519 692 519 686 c 0
 519 548 970 560 970 333 c 0
 970 315 967 296 961 275 c 0
 926 154 798 -20 452 -20 c 0
 379 -20 268 -4 143 55 c 1
 223 177 l 1
 339 130 411 109 495 109 c 0
 612 109 742 135 778 260 c 0
 780 268 781 276 781 283 c 0
 781 426 339 391 339 626 c 0
 339 646 342 668 349 692 c 0
 380 800 522 982 862 982 c 0
EndSplineSet
Validated: 1
EndChar

StartChar: bar
Encoding: 124 124 8
Width: 884
VWidth: 2097
Flags: HW
LayerCount: 2
Fore
SplineSet
819 1601 m 1
 983 1601 l 1
 436 -308 l 1
 272 -308 l 1
 819 1601 l 1
EndSplineSet
Validated: 1
EndChar

StartChar: b
Encoding: 98 98 9
Width: 1169
VWidth: 2097
Flags: HW
LayerCount: 2
Fore
SplineSet
619 1511 m 1x7c
 783 1511 l 1
 612 916 l 1
 692 953 790 983 890 983 c 0
 1039 983 1207 911 1207 681 c 0
 1207 627 1198 565 1177 493 c 0
 1084 169 837 -20 574 -20 c 0xbc
 470 -20 386 13 332 46 c 1
 299 0 l 1
 185 0 l 1
 619 1511 l 1x7c
795 847 m 0
 734 847 661 834 578 796 c 1
 393 154 l 1
 435 134 504 109 586 109 c 0
 724 109 929 184 1009 465 c 0
 1027 526 1034 578 1034 622 c 0
 1034 805 900 847 795 847 c 0
EndSplineSet
Validated: 1
EndChar

StartChar: l
Encoding: 108 108 10
Width: 564
VWidth: 2097
Flags: HW
HStem: 0 21G<200 369.731> 1491 20G<627.269 797>
VStem: 200 164<0 164> 633 164<1347 1511>
DStem2: 200 0 364 0 0.275477 0.961308<45.1783 1571.82>
LayerCount: 2
Fore
SplineSet
633 1511 m 1
 797 1511 l 1
 364 0 l 1
 200 0 l 1
 633 1511 l 1
EndSplineSet
Validated: 1
EndChar

StartChar: w
Encoding: 119 119 11
Width: 1654
VWidth: 2097
Flags: HW
LayerCount: 2
Back
SplineSet
1450 988 m 1
 1625 988 l 1
 1893 159 l 1
 2147 988 l 1
 2308 988 l 1
 2572 160 l 1
 2840 988 l 1
 3015 988 l 1
 2654 0 l 1
 2489 0 l 1
 2226 801 l 1
 1966 0 l 1
 1801 0 l 1
 1450 988 l 1
EndSplineSet
Fore
SplineSet
335 963 m 1
 510 963 l 1
 539 155 l 1
 1019 963 l 1
 1176 963 l 1
 1202 156 l 1
 1694 963 l 1
 1869 963 l 1
 1237 0 l 1
 1076 0 l 1
 1043 781 l 1
 566 0 l 1
 405 0 l 1
 335 963 l 1
EndSplineSet
Validated: 1
EndChar

StartChar: exclam
Encoding: 33 33 12
Width: 650
VWidth: 2097
Flags: HW
LayerCount: 2
Fore
SplineSet
282 200 m 1xe0
 482 200 l 1
 425 0 l 1
 225 0 l 1
 282 200 l 1xe0
647 1421 m 1xd0
 817 1421 l 1
 541 458 l 1
 371 458 l 1
 647 1421 l 1xd0
EndSplineSet
Validated: 1
EndChar

StartChar: u
Encoding: 117 117 14
Width: 1164
VWidth: 2097
Flags: HW
LayerCount: 2
Fore
SplineSet
1092 963 m 1xb8
 1256 963 l 1
 980 0 l 1
 865 0 l 1x78
 854 83 l 1
 679 -1 556 -20 482 -20 c 0
 304 -20 251 69 251 184 c 0
 251 248 267 319 287 388 c 2
 452 963 l 1
 616 963 l 1
 448 379 l 2
 441 356 430 315 430 272 c 0
 430 201 461 127 595 127 c 0
 687 127 792 165 874 202 c 1
 1092 963 l 1xb8
EndSplineSet
Validated: 1
EndChar

StartChar: p
Encoding: 112 112 15
Width: 1163
VWidth: 2097
Flags: HW
LayerCount: 2
Fore
SplineSet
884 982 m 0xd8
 1035 982 1201 908 1201 679 c 0
 1201 625 1191 564 1171 492 c 0
 1078 169 832 -20 568 -20 c 0
 474 -20 405 4 349 33 c 1
 187 -531 l 1
 23 -531 l 1
 452 963 l 1
 566 963 l 1xb8
 575 900 l 1
 691 959 799 982 884 982 c 0xd8
789 846 m 0xd8
 727 846 651 832 567 793 c 1
 384 155 l 1
 426 134 496 109 580 109 c 0
 718 109 923 184 1003 465 c 0
 1021 526 1028 577 1028 621 c 0
 1028 804 894 846 789 846 c 0xd8
EndSplineSet
Validated: 1
EndChar

StartChar: q
Encoding: 113 113 16
Width: 1162
VWidth: 2097
Flags: HW
LayerCount: 2
Fore
SplineSet
857 983 m 0xd8
 910 983 989 974 1103 904 c 1
 1140 963 l 1
 1255 963 l 1xb8
 827 -531 l 1
 663 -531 l 1
 829 49 l 1
 747 11 649 -20 547 -20 c 0
 393 -20 231 56 231 284 c 0
 231 339 240 403 261 476 c 0
 360 821 638 983 857 983 c 0xd8
830 850 m 0xd8
 650 850 490 713 426 491 c 0
 410 434 403 385 403 343 c 0
 403 167 530 116 642 116 c 0
 704 116 780 130 864 169 c 1
 1043 796 l 1
 929 848 852 850 830 850 c 0xd8
EndSplineSet
Validated: 1
EndChar

StartChar: m
Encoding: 109 109 17
Width: 1712
VWidth: 2097
Flags: HW
LayerCount: 2
Fore
SplineSet
803 831 m 0xdc
 758 831 700 822 557 757 c 1
 340 0 l 1
 176 0 l 1
 452 963 l 1
 567 963 l 1xbc
 578 881 l 1
 657 920 789 982 911 982 c 0
 1050 982 1097 904 1112 872 c 1
 1194 912 1341 981 1488 981 c 0
 1661 981 1723 900 1723 775 c 0
 1723 718 1710 651 1689 578 c 2
 1524 0 l 1
 1360 0 l 1
 1528 587 l 2
 1534 609 1545 650 1545 692 c 0
 1545 760 1516 831 1392 831 c 0
 1307 831 1202 787 1133 756 c 1
 1131 699 1113 636 1094 569 c 2
 931 0 l 1
 767 0 l 1
 936 590 l 2
 942 611 952 650 952 691 c 0
 952 759 924 831 803 831 c 0xdc
EndSplineSet
Validated: 1
EndChar

StartChar: c
Encoding: 99 99 18
Width: 986
VWidth: 2097
Flags: HW
LayerCount: 2
Fore
SplineSet
258 459 m 0
 371 853 654 981 878 981 c 0
 971 981 1058 960 1132 922 c 1
 1059 804 l 1
 997 827 930 840 858 840 c 0
 700 840 507 771 427 493 c 0
 410 434 402 384 402 341 c 0
 402 164 532 115 668 115 c 0
 730 115 796 127 860 147 c 1
 867 35 l 1
 751 -6 648 -20 572 -20 c 0
 409 -20 229 43 229 276 c 0
 229 328 238 389 258 459 c 0
EndSplineSet
Validated: 1
EndChar

StartChar: t
Encoding: 116 116 19
Width: 763
VWidth: 2097
Flags: HW
LayerCount: 2
Fore
SplineSet
696 17 m 1
 646 5 541 -20 464 -20 c 0
 311 -20 259 53 259 156 c 0
 259 200 269 250 284 302 c 2
 437 834 l 1
 307 834 l 1
 344 963 l 1
 474 963 l 1
 562 1271 l 1
 726 1271 l 1
 638 963 l 1
 932 963 l 1
 895 834 l 1
 601 834 l 1
 450 306 l 2
 444 284 434 249 434 214 c 0
 434 161 457 108 551 108 c 0
 581 108 598 111 706 128 c 1
 696 17 l 1
EndSplineSet
Validated: 1
EndChar

StartChar: r
Encoding: 114 114 20
Width: 789
VWidth: 2097
Flags: HW
LayerCount: 2
Fore
SplineSet
577 889 m 1xb0
 660 941 766 982 873 982 c 0xd0
 936 982 996 970 1046 943 c 1xb0
 960 813 l 1
 915 832 865 842 810 842 c 0xd0
 729 842 643 818 562 775 c 1
 340 0 l 1
 176 0 l 1
 452 963 l 1
 567 963 l 1
 577 889 l 1xb0
EndSplineSet
Validated: 1
EndChar

StartChar: v
Encoding: 118 118 21
Width: 980
VWidth: 2097
Flags: HW
LayerCount: 2
Back
SplineSet
918 988 m 5
 571 0 l 5
 411 0 l 5
 65 988 l 5
 235 988 l 5
 491 163 l 5
 748 988 l 5
 918 988 l 5
EndSplineSet
Fore
SplineSet
1190 963 m 1
 571 0 l 1
 405 0 l 1
 340 963 l 1
 520 963 l 1
 539 159 l 1
 1020 963 l 1
 1190 963 l 1
EndSplineSet
Validated: 1
EndChar

StartChar: k
Encoding: 107 107 22
Width: 1061
VWidth: 2097
Flags: HW
LayerCount: 2
Fore
SplineSet
609 1511 m 1xf0
 773 1511 l 1
 340 0 l 1
 176 0 l 1
 609 1511 l 1xf0
1069 1008 m 1xf8
 1250 1008 l 1xf8
 699 563 l 1
 987 0 l 1
 790 0 l 1xf4
 512 546 l 1
 1069 1008 l 1xf8
EndSplineSet
Validated: 1
EndChar

StartChar: j
Encoding: 106 106 23
Width: 520
VWidth: 2097
Flags: HW
LayerCount: 2
Fore
SplineSet
568 1421 m 5xe0
 762 1421 l 5
 708 1232 l 5
 514 1232 l 5
 568 1421 l 5xe0
459 988 m 5xd0
 623 988 l 5
 301 -137 l 6
 269 -247 211 -439 -75 -534 c 5
 -100 -410 l 5
 71 -337 115 -215 132 -154 c 6
 459 988 l 5xd0
EndSplineSet
Validated: 1
EndChar

StartChar: x
Encoding: 120 120 24
Width: 1034
VWidth: 2097
Flags: HW
LayerCount: 2
Fore
SplineSet
340 963 m 1xf0
 529 963 l 1
 692 581 l 1
 1064 963 l 1
 1239 963 l 1xe8
 738 472 l 1
 944 0 l 1
 754 0 l 1
 599 362 l 1
 250 0 l 1
 75 0 l 1
 552 473 l 1
 340 963 l 1xf0
EndSplineSet
Validated: 1
EndChar

StartChar: z
Encoding: 122 122 25
Width: 1058
VWidth: 2097
Flags: HW
LayerCount: 2
Fore
SplineSet
422 963 m 1
 1157 963 l 1
 1132 876 l 1
 391 129 l 1
 942 129 l 1
 905 0 l 1
 146 0 l 1
 171 87 l 1
 910 834 l 1
 385 834 l 1
 422 963 l 1
EndSplineSet
Validated: 1
EndChar

StartChar: y
Encoding: 121 121 26
Width: 1049
VWidth: 2097
Flags: HW
LayerCount: 2
Back
SplineSet
50 988 m 5
 220 988 l 5
 536 150 l 5
 830 988 l 5
 1000 988 l 5
 430 -531 l 5
 255 -531 l 5
 458 -38 l 5
 50 988 l 5
EndSplineSet
Fore
SplineSet
325 963 m 1
 505 963 l 1
 581 139 l 1
 1104 963 l 1
 1274 963 l 1
 286 -531 l 1
 111 -531 l 1
 444 -57 l 1
 325 963 l 1
EndSplineSet
Validated: 1
EndChar

StartChar: f
Encoding: 102 102 27
Width: 799
VWidth: 2097
Flags: HW
HStem: -531 135<-217.197 108.6> 834 129<408 510 713 999> 1292 137<864.144 1182.7>
DStem2: 213 -203 381 -196 0.275219 0.961382<-151.89 1078.69 1258.58 1545.59>
LayerCount: 2
Back
SplineSet
662.157 1291.8 m 4
 431.356 1291.8 443.949 1109.72 444 1082 c 6
 444.174 988 l 5
 775 988 l 5
 775 859 l 5
 444.412 859 l 5
 446 0 l 5
 280 0 l 5
 278.421 859 l 5
 135 859 l 5
 135 988 l 5
 278.184 988 l 5
 278 1088 l 6
 277.996 1090.19 277.993 1092.38 277.993 1094.57 c 4
 277.993 1152.47 279.945 1221.25 316.561 1285.61 c 4
 369.047 1377.87 474.406 1428.95 607.663 1428.95 c 4
 695.469 1428.95 784.548 1408.42 845 1390 c 5
 820 1268 l 5
 789.45 1276.44 725.294 1291.8 662.157 1291.8 c 4
EndSplineSet
Fore
SplineSet
1020 1292 m 0
 817 1292 762 1133 746 1079 c 2
 713 963 l 1
 1036 963 l 1
 999 834 l 1
 676 834 l 1
 381 -196 l 2
 364 -255 343 -326 287 -391 c 0
 210 -481 92 -531 -39 -531 c 0
 -125 -531 -207 -511 -261 -493 c 1
 -202 -373 l 1
 -174 -381 -116 -396 -55 -396 c 0
 148 -396 199 -252 213 -203 c 2
 510 834 l 1
 371 834 l 1
 408 963 l 1
 547 963 l 1
 578 1069 l 2
 596 1132 619 1208 676 1278 c 0
 755 1375 874 1429 1005 1429 c 0
 1091 1429 1173 1408 1227 1390 c 1
 1167 1266 l 1
 1139 1275 1081 1292 1020 1292 c 0
EndSplineSet
Validated: 1
EndChar

StartChar: G
Encoding: 71 71 28
Width: 1591
VWidth: 2097
Flags: HW
LayerCount: 2
Fore
SplineSet
1330 1432 m 0
 1513 1432 1655 1375 1752 1311 c 1
 1649 1184 l 1
 1578 1228 1447 1282 1296 1282 c 0
 1018 1282 692 1072 591 720 c 0
 573 656 564 596 564 540 c 0
 564 294 731 131 1000 131 c 0
 1141 131 1257 179 1347 247 c 1
 1451 610 l 1
 1047 610 l 1
 1087 750 l 1
 1656 750 l 1
 1496 192 l 1
 1426 132 1224 -20 916 -20 c 0
 543 -20 383 206 383 479 c 0
 383 899 762 1432 1330 1432 c 0
EndSplineSet
Validated: 1
EndChar

StartChar: H
Encoding: 72 72 29
Width: 1600
VWidth: 2097
Flags: HW
LayerCount: 2
Fore
SplineSet
1627 1421 m 1
 1797 1421 l 1
 1390 0 l 1
 1220 0 l 1
 1409 658 l 1
 649 658 l 1
 460 0 l 1
 290 0 l 1
 697 1421 l 5
 867 1421 l 1
 692 808 l 1
 1452 808 l 1
 1627 1421 l 1
EndSplineSet
Validated: 1
EndChar

StartChar: g
Encoding: 103 103 30
Width: 1162
VWidth: 2097
Flags: HW
LayerCount: 2
Back
SplineSet
587.127 1007.7 m 4xec
 641.624 1007.7 722.789 998.642 859.614 929.078 c 5
 881 988 l 5
 996 988 l 5xdc
 996 -48 l 6
 996 -128.017 1007.4 -430.092 668 -521 c 4
 616.294 -534.849 563.01 -541.189 509.54 -541.189 c 4
 402.576 -541.189 295.375 -515.422 204 -477 c 5
 250 -358 l 5
 334.061 -389.288 416.378 -404.158 487.891 -404.343 c 6
 489.226 -404.345 l 6
 587.574 -404.345 799.75 -373.583 827.486 -118.497 c 4
 831.707 -79.6752 832.008 -40.5671 832.008 -1.49561 c 6
 832 47.6156 l 5
 762.253 10.4786 670.297 -19.5908 570.654 -19.5908 c 4
 365.337 -19.5908 128.208 113.006 128.208 491.3 c 4
 128.208 892.231 419.898 1007.7 587.127 1007.7 c 4xec
597.112 874.842 m 4xec
 411.619 874.842 287.956 729.858 287.956 509.664 c 4
 287.956 294.207 396.676 115.331 617.254 115.331 c 4
 703.153 115.331 779.649 143.936 832 171.839 c 5
 832 819.298 l 5
 699.685 873.617 620.251 874.842 597.112 874.842 c 4xec
EndSplineSet
Fore
SplineSet
857 983 m 0xec
 910 983 989 974 1103 904 c 1
 1140 963 l 1
 1255 963 l 1xdc
 959 -70 l 2
 931 -166 811 -541 346 -541 c 0
 241 -541 143 -515 64 -477 c 1
 144 -358 l 1
 193 -379 270 -404 364 -404 c 0
 686 -404 776 -138 808 -25 c 2
 829 48 l 1
 750 11 652 -20 554 -20 c 0
 392 -20 232 65 232 291 c 0
 232 345 242 408 262 479 c 0
 374 870 693 983 857 983 c 0xec
830 850 m 0xec
 650 850 488 710 427 497 c 0
 412 446 405 397 405 352 c 0
 405 214 477 115 639 115 c 0
 723 115 806 143 864 170 c 1
 1043 796 l 1
 929 848 852 850 830 850 c 0xec
EndSplineSet
Validated: 1
EndChar

StartChar: O
Encoding: 79 79 31
Width: 1686
VWidth: 2097
Flags: HW
LayerCount: 2
Fore
SplineSet
1296 1436 m 0
 1600 1436 1796 1262 1796 966 c 0
 1796 893 1784 813 1759 727 c 0
 1632 284 1264 -15 873 -15 c 0
 601 -15 380 140 380 458 c 0
 380 532 392 615 418 707 c 0
 546 1154 913 1436 1296 1436 c 0
1244 1287 m 0
 1010 1287 710 1115 599 728 c 0
 577 650 566 579 566 514 c 0
 566 277 708 134 928 134 c 0
 1159 134 1464 308 1579 709 c 0
 1601 787 1612 857 1612 918 c 0
 1612 1176 1432 1287 1244 1287 c 0
EndSplineSet
Validated: 1
EndChar

StartChar: A
Encoding: 65 65 32
Width: 1383
VWidth: 2097
Flags: HW
LayerCount: 2
Fore
SplineSet
1042 1421 m 1
 1235 1421 l 1
 1333 0 l 1
 1161 0 l 1
 1135 413 l 1
 549 413 l 1
 287 0 l 1
 130 0 l 1
 1042 1421 l 1
1084 1255 m 1
 643 562 l 1
 1126 562 l 1
 1084 1255 l 1
EndSplineSet
Validated: 1
EndChar

StartChar: L
Encoding: 76 76 33
Width: 1133
VWidth: 2097
Flags: HW
LayerCount: 2
Fore
SplineSet
697 1421 m 1
 867 1421 l 1
 503 149 l 1
 1141 149 l 1
 1098 0 l 1
 290 0 l 1
 697 1421 l 1
EndSplineSet
Validated: 1
EndChar

StartChar: E
Encoding: 69 69 34
Width: 1283
VWidth: 2097
Flags: HW
LayerCount: 2
Fore
SplineSet
290 0 m 1
 697 1421 l 1
 1530 1421 l 1
 1487 1271 l 1
 824 1271 l 1
 691 807 l 1
 1299 807 l 1
 1256 657 l 1
 648 657 l 1
 503 150 l 1
 1166 150 l 1
 1123 0 l 1
 290 0 l 1
EndSplineSet
Validated: 1
EndChar

StartChar: F
Encoding: 70 70 35
Width: 1248
VWidth: 2097
Flags: HW
LayerCount: 2
Fore
SplineSet
824 1271 m 1
 691 807 l 1
 1284 807 l 1
 1241 657 l 1
 648 657 l 1
 460 0 l 1
 290 0 l 1
 697 1421 l 1
 1520 1421 l 1
 1477 1271 l 1
 824 1271 l 1
EndSplineSet
Validated: 1
EndChar

StartChar: N
Encoding: 78 78 36
Width: 1659
VWidth: 2097
Flags: HW
LayerCount: 2
Fore
SplineSet
697 1421 m 1
 912 1421 l 1
 1346 232 l 1
 1686 1421 l 1
 1856 1421 l 1
 1449 0 l 1
 1234 0 l 1
 802 1191 l 1
 460 0 l 1
 290 0 l 1
 697 1421 l 1
EndSplineSet
Validated: 1
EndChar

StartChar: V
Encoding: 86 86 37
Width: 1401
VWidth: 2097
Flags: HW
LayerCount: 2
Fore
SplineSet
547 1421 m 1
 749 1421 l 1
 800 180 l 1
 1561 1421 l 1
 1748 1421 l 1
 846 0 l 1
 635 0 l 1
 547 1421 l 1
EndSplineSet
Validated: 1
EndChar

StartChar: Z
Encoding: 90 90 38
Width: 1358
VWidth: 2097
Flags: HW
LayerCount: 2
Fore
SplineSet
592 1421 m 1
 1678 1421 l 1
 1647 1312 l 1
 424 150 l 1
 1341 150 l 1
 1298 0 l 1
 155 0 l 1
 187 111 l 1
 1392 1271 l 1
 549 1271 l 1
 592 1421 l 1
EndSplineSet
Validated: 1
EndChar

StartChar: T
Encoding: 84 84 39
Width: 1210
VWidth: 2097
Flags: HW
LayerCount: 2
Fore
SplineSet
492 1421 m 1
 1612 1421 l 1
 1569 1271 l 1
 1094 1271 l 1
 730 0 l 1
 560 0 l 1
 924 1271 l 1
 449 1271 l 1
 492 1421 l 1
EndSplineSet
Validated: 1
EndChar

StartChar: I
Encoding: 73 73 40
Width: 730
VWidth: 2097
Flags: HW
LayerCount: 2
Fore
SplineSet
727 1421 m 1
 897 1421 l 1
 490 0 l 1
 320 0 l 1
 727 1421 l 1
EndSplineSet
Validated: 1
EndChar

StartChar: X
Encoding: 88 88 41
Width: 1368
VWidth: 2097
Flags: HW
LayerCount: 2
Fore
SplineSet
1494 1421 m 1xd8
 1690 1421 l 1xd8
 1047 746 l 1
 1338 0 l 1
 1118 0 l 1
 891 599 l 1
 320 0 l 1
 110 0 l 1xe4
 836 742 l 1
 577 1421 l 1
 783 1421 l 1
 992 886 l 1
 1494 1421 l 1xd8
EndSplineSet
Validated: 1
EndChar

StartChar: Y
Encoding: 89 89 42
Width: 1263
VWidth: 2097
Flags: HW
LayerCount: 2
Fore
SplineSet
507 1421 m 1
 708 1421 l 1
 902 834 l 1
 1440 1421 l 1
 1630 1421 l 1
 932 673 l 1
 739 0 l 1
 569 0 l 1
 762 673 l 1
 507 1421 l 1
EndSplineSet
Validated: 1
EndChar

StartChar: K
Encoding: 75 75 43
Width: 1417
VWidth: 2097
Flags: HW
LayerCount: 2
Fore
SplineSet
697 1421 m 1xe0
 867 1421 l 1
 460 0 l 1
 290 0 l 1
 697 1421 l 1xe0
1493 1421 m 1xf0
 1706 1421 l 1xf0
 911 743 l 1
 1337 0 l 1
 1118 0 l 1xe8
 693 729 l 1
 1493 1421 l 1xf0
EndSplineSet
Validated: 1
EndChar

StartChar: M
Encoding: 77 77 44
Width: 1884
VWidth: 2097
Flags: HW
LayerCount: 2
Fore
SplineSet
697 1421 m 1
 937 1421 l 1
 1146 559 l 1
 1856 1421 l 1
 2081 1421 l 1
 1674 0 l 1
 1504 0 l 1
 1841 1177 l 1
 1184 407 l 1
 1014 407 l 1
 797 1177 l 1
 460 0 l 1
 290 0 l 1
 697 1421 l 1
EndSplineSet
Validated: 1
EndChar

StartChar: hyphen
Encoding: 45 45 45
Width: 1210
VWidth: 2097
Flags: HW
LayerCount: 2
Fore
SplineSet
384 728 m 1
 1244 728 l 1
 1204 589 l 1
 344 589 l 1
 384 728 l 1
EndSplineSet
Validated: 1
EndChar

StartChar: J
Encoding: 74 74 46
Width: 953
VWidth: 2097
Flags: HW
LayerCount: 2
Fore
SplineSet
980 1421 m 5
 1150 1421 l 5
 865 426 l 6
 827 292 783 193 675 106 c 4
 624 65 504 -17 301 -17 c 4
 235 -17 171 -9 112 7 c 5
 180 149 l 5
 223 138 269 133 316 133 c 4
 611 133 671 340 693 417 c 6
 980 1421 l 5
EndSplineSet
Validated: 1
EndChar

StartChar: R
Encoding: 82 82 47
Width: 1438
VWidth: 2097
Flags: HW
LayerCount: 2
Fore
SplineSet
1524 1031 m 0xf8
 1472 850 1336 665 1085 611 c 1
 1311 0 l 1
 1121 0 l 1xf4
 906 592 l 1
 631 592 l 1
 461 0 l 1
 290 0 l 1
 697 1421 l 1
 1219 1421 l 2
 1331 1421 1548 1409 1548 1180 c 0
 1548 1138 1541 1089 1524 1031 c 0xf8
674 742 m 1
 919 742 l 2
 1055 742 1275 759 1348 1012 c 0xf8
 1358 1045 1362 1075 1362 1100 c 0
 1362 1262 1188 1272 1112 1272 c 2
 826 1272 l 1
 674 742 l 1
EndSplineSet
Validated: 1
EndChar

StartChar: D
Encoding: 68 68 48
Width: 1606
VWidth: 0
Flags: HW
LayerCount: 2
Back
SplineSet
290 1421 m 5
 687 1421 l 6
 796.369 1421 1446.05 1452.36 1446.05 753.511 c 4
 1446.05 -41.9381 783.275 0 598 0 c 6
 290 0 l 5
 290 1421 l 5
460 1271 m 5
 460 150 l 5
 667 150 l 6
 898.567 150 1275.42 187.855 1275.42 719.535 c 4
 1275.42 955.503 1167.54 1271 736 1271 c 6
 460 1271 l 5
EndSplineSet
Fore
SplineSet
824 1271 m 1
 503 150 l 1
 710 150 l 2
 871 150 1125 155 1327 411 c 0
 1370 465 1437 566 1481 720 c 0
 1502 792 1511 856 1511 913 c 0
 1511 1132 1373 1238 1231 1263 c 0
 1189 1271 1144 1271 1100 1271 c 2
 824 1271 l 1
1137 1421 m 2
 1568 1421 1698 1216 1698 984 c 0
 1698 908 1684 829 1662 754 c 0
 1578 461 1374 124 973 30 c 0
 845 0 721 0 598 0 c 2
 290 0 l 1
 697 1421 l 1
 1137 1421 l 2
EndSplineSet
Validated: 1
EndChar

StartChar: P
Encoding: 80 80 49
Width: 1339
VWidth: 2097
Flags: HW
LayerCount: 2
Fore
SplineSet
697 1421 m 1
 1166 1421 l 2
 1289 1421 1552 1419 1552 1177 c 0
 1552 1139 1546 1094 1531 1043 c 0
 1410 621 1069 589 793 589 c 0
 738 589 685 592 631 596 c 1
 460 0 l 1
 290 0 l 1
 697 1421 l 1
674 746 m 1
 733 741 793 738 854 738 c 0
 1039 738 1274 748 1351 1015 c 0
 1361 1049 1365 1078 1365 1104 c 0
 1365 1260 1202 1271 1072 1271 c 2
 824 1271 l 1
 674 746 l 1
EndSplineSet
Validated: 1
EndChar

StartChar: B
Encoding: 66 66 50
Width: 1424
VWidth: 2097
Flags: HW
LayerCount: 2
Fore
SplineSet
830 1291 m 1xf8
 693 814 l 1
 904 820 1247 798 1325 1071 c 0
 1331 1091 1335 1114 1335 1137 c 0
 1335 1213 1289 1291 1104 1291 c 2
 830 1291 l 1xf8
656 682 m 1
 503 150 l 1
 768 150 l 2
 886 150 1173 152 1248 413 c 0xf4
 1256 441 1260 467 1260 491 c 0
 1260 623 1143 696 950 696 c 0
 921 696 891 694 656 682 c 1
697 1421 m 1
 1198 1421 l 2
 1455 1421 1505 1282 1505 1177 c 0
 1505 1136 1497 1100 1491 1079 c 0xf8
 1456 957 1318 826 1226 794 c 1
 1360 768 1438 664 1438 533 c 0
 1438 500 1433 466 1423 431 c 0
 1386 302 1218 0 752 0 c 2
 290 0 l 1
 697 1421 l 1
EndSplineSet
Validated: 1
EndChar

StartChar: U
Encoding: 85 85 51
Width: 1582
VWidth: 2097
Flags: HW
LayerCount: 2
Back
SplineSet
290 1421 m 5
 460 1421 l 5
 460 500 l 6
 460 406.32 466.12 318.109 535 240 c 4
 567.144 203.55 653 127 830 127 c 4
 1016.35 127 1150.68 211.395 1188.01 362.124 c 4
 1199.13 407.024 1200 453.742 1200 500 c 6
 1200 1421 l 5
 1370 1421 l 5
 1370 620 l 6
 1370 575.023 1371.6 529.728 1371.6 484.603 c 4
 1371.6 320.874 1355.71 -21 830 -21 c 4
 417.595 -21 330.029 200.326 306 300 c 4
 291.452 360.349 288.395 422.305 288.395 484.585 c 4
 288.395 529.716 290 575.017 290 620 c 6
 290 1421 l 5
EndSplineSet
Fore
SplineSet
697 1421 m 1
 867 1421 l 1
 603 500 l 2
 588 448 576 398 576 350 c 0
 576 311 584 275 605 240 c 0
 627 204 690 127 867 127 c 0
 1053 127 1213 211 1293 362 c 0
 1317 407 1332 454 1345 500 c 2
 1609 1421 l 1
 1777 1421 l 1
 1511 485 l 2
 1464 321 1351 -20 825 -20 c 0
 438 -20 393 174 393 280 c 0
 393 287 393 294 393 300 c 0
 395 358 412 425 430 487 c 2
 697 1421 l 1
EndSplineSet
Validated: 1
EndChar

StartChar: Q
Encoding: 81 81 52
Width: 1706
VWidth: 2097
Flags: HW
LayerCount: 2
Fore
SplineSet
1298 1436 m 0
 1653 1436 1793 1220 1793 958 c 0
 1793 703 1660 404 1464 220 c 1
 1594 41 l 1
 1474 -56 l 1
 1338 121 l 1
 1180 19 1019 -15 884 -15 c 0
 583 -15 379 154 379 459 c 0
 379 533 391 615 417 705 c 0
 546 1155 913 1436 1298 1436 c 0
1241 1287 m 0
 1015 1287 712 1121 598 724 c 0
 576 646 565 575 565 512 c 0
 565 264 727 134 946 134 c 0
 996 134 1120 141 1256 227 c 1
 1027 525 l 1
 1163 633 l 1
 1382 332 l 1
 1467 423 1530 539 1572 685 c 0
 1598 776 1609 853 1609 920 c 0
 1609 1201 1408 1287 1241 1287 c 0
EndSplineSet
Validated: 1
EndChar

StartChar: W
Encoding: 87 87 53
Width: 2165
VWidth: 2097
Flags: HW
LayerCount: 2
Fore
SplineSet
547 1421 m 1
 727 1421 l 1
 742 227 l 1
 1444 1421 l 1
 1615 1421 l 1
 1643 227 l 1
 2332 1421 l 1
 2512 1421 l 1
 1667 0 l 1
 1486 0 l 1
 1453 1187 l 1
 764 0 l 1
 583 0 l 1
 547 1421 l 1
EndSplineSet
Validated: 1
EndChar

StartChar: C
Encoding: 67 67 54
Width: 1451
VWidth: 2097
Flags: HW
LayerCount: 2
Fore
SplineSet
1396 1431 m 0
 1502 1431 1633 1412 1761 1355 c 1
 1668 1214 l 1
 1522 1270 1416 1281 1348 1281 c 0
 1017 1281 734 1007 649 710 c 0
 632 650 623 592 623 537 c 0
 623 307 773 136 1057 136 c 0
 1153 136 1269 155 1395 196 c 1
 1411 70 l 1
 1249 8 1094 -20 969 -20 c 0
 602 -20 442 207 442 481 c 0
 442 901 817 1431 1396 1431 c 0
EndSplineSet
Validated: 1
EndChar

StartChar: S
Encoding: 83 83 55
Width: 1361
VWidth: 2097
Flags: HW
LayerCount: 2
Fore
SplineSet
1232 1434 m 0
 1360 1434 1481 1406 1569 1377 c 1
 1469 1222 l 1
 1428 1235 1297 1274 1172 1274 c 0
 979 1274 793 1184 755 1050 c 0
 750 1034 748 1018 748 1004 c 0
 748 772 1350 821 1350 493 c 0
 1350 464 1345 432 1335 397 c 0
 1283 214 1067 -20 666 -20 c 0
 497 -20 384 22 262 76 c 1
 367 241 l 1
 531 173 651 148 735 148 c 0
 935 148 1104 235 1143 372 c 0
 1149 391 1151 409 1151 425 c 0
 1151 674 548 609 548 930 c 0
 548 958 552 988 562 1022 c 0
 625 1242 895 1434 1232 1434 c 0
EndSplineSet
Validated: 1
EndChar

StartChar: at
Encoding: 64 64 56
Width: 2100
VWidth: 2097
Flags: HW
CounterMasks: 2 b8 0780
LayerCount: 2
Fore
SplineSet
1330 962 m 0xbf80
 1429 962 1507 933 1559 903 c 1
 1601 968 l 1
 1714 968 l 1
 1508 252 l 2
 1496 209 1481 157 1481 113 c 0
 1481 61 1502 20 1571 20 c 0
 1663 20 1836 143 1941 510 c 0
 1971 616 1990 718 1990 811 c 0
 1990 1057 1858 1238 1455 1238 c 0
 854 1238 566 754 475 438 c 0
 450 349 438 268 438 195 c 0
 438 -122 659 -285 935 -285 c 0
 1050 -285 1157 -256 1246 -218 c 1
 1275 -337 l 1
 1159 -389 1022 -427 870 -427 c 0
 654 -427 250 -345 250 108 c 0
 250 193 265 291 297 404 c 0
 427 858 775 1399 1543 1399 c 0
 2037 1399 2176 1169 2176 896 c 0
 2176 777 2150 650 2115 530 c 0
 1958 -18 1649 -115 1512 -115 c 0xdf80
 1393 -115 1321 -45 1315 56 c 1
 1205 1 1104 -20 1023 -20 c 0
 828 -20 705 93 705 286 c 0
 705 336 714 392 731 452 c 0
 817 752 1058 962 1330 962 c 0xbf80
1318 840 m 0
 1133 840 957 711 889 475 c 0
 875 426 868 382 868 343 c 0
 868 189 969 109 1113 109 c 0xbf80
 1173 109 1246 123 1327 161 c 1
 1509 794 l 1
 1468 815 1400 840 1318 840 c 0
EndSplineSet
Validated: 1
EndChar

StartChar: question
Encoding: 63 63 57
Width: 1046
VWidth: 2097
Flags: HW
LayerCount: 2
Fore
SplineSet
368 200 m 1xe8
 568 200 l 1
 511 0 l 1
 311 0 l 1
 368 200 l 1xe8
835 1437 m 0
 1068 1437 1207 1359 1207 1199 c 0
 1207 1168 1202 1134 1191 1097 c 0
 1075 693 712 754 608 392 c 1
 438 392 l 1xd8
 560 817 938 790 1018 1069 c 0
 1023 1087 1027 1107 1027 1128 c 0
 1027 1207 976 1294 767 1294 c 0
 691 1294 580 1274 510 1247 c 1
 493 1369 l 1
 607 1418 725 1437 835 1437 c 0
EndSplineSet
Validated: 1
EndChar

StartChar: eight
Encoding: 56 56 58
Width: 1300
VWidth: 2097
Flags: HW
LayerCount: 2
Fore
SplineSet
1015 1297 m 0xd8
 875 1297 742 1202 712 1097 c 0
 707 1080 705 1064 705 1049 c 0
 705 932 848 884 942 852 c 1
 1084 927 1189 988 1218 1088 c 0
 1224 1108 1226 1127 1226 1144 c 0
 1226 1244 1135 1297 1015 1297 c 0xd8
828 726 m 1
 621 670 477 533 440 405 c 0
 434 383 431 361 431 340 c 0
 431 224 524 130 700 130 c 0
 892 130 1047 252 1089 397 c 0xe4
 1097 425 1101 451 1101 475 c 0
 1101 618 966 684 828 726 c 1
1056 1440 m 0
 1287 1440 1400 1352 1400 1203 c 0
 1400 1169 1394 1132 1383 1093 c 0xd8
 1349 973 1254 886 1096 792 c 1
 1227 724 1283 621 1283 510 c 0
 1283 263 1002 -20 649 -20 c 0
 412 -20 247 104 247 290 c 0
 247 322 252 355 262 390 c 0xe4
 308 551 467 710 661 791 c 1
 560 851 533 937 533 1010 c 0
 533 1043 538 1074 545 1098 c 0xd0
 598 1283 798 1440 1056 1440 c 0
EndSplineSet
Validated: 1
EndChar

StartChar: nine
Encoding: 57 57 59
Width: 1300
VWidth: 2097
Flags: HW
CounterMasks: 1 e0
LayerCount: 2
Fore
SplineSet
1079 1441 m 0
 1224 1441 1412 1384 1412 1106 c 0
 1412 1032 1399 943 1368 835 c 0
 1176 167 768 -15 388 -15 c 0
 345 -15 305 -13 265 -9 c 1
 320 139 l 1
 355 135 390 134 426 134 c 0
 904 134 1039 437 1126 655 c 1
 1014 563 879 524 767 524 c 0
 559 524 427 648 427 833 c 0
 427 873 433 915 446 959 c 0
 521 1220 795 1441 1079 1441 c 0
1017 1301 m 0
 854 1301 663 1142 615 975 c 0
 607 946 603 918 603 892 c 0
 603 759 704 664 844 664 c 0
 1014 664 1191 799 1238 963 c 0
 1246 991 1250 1019 1250 1047 c 0
 1250 1180 1162 1301 1017 1301 c 0
EndSplineSet
Validated: 1
EndChar

StartChar: six
Encoding: 54 54 60
Width: 1300
VWidth: 2097
Flags: HW
CounterMasks: 1 e0
LayerCount: 2
Fore
SplineSet
1317 1432 m 0
 1360 1432 1399 1429 1439 1425 c 1
 1384 1277 l 1
 1349 1281 1315 1283 1279 1283 c 0
 816 1283 658 980 583 794 c 1
 678 875 810 932 950 932 c 0
 1161 932 1286 810 1286 623 c 0
 1286 579 1279 532 1265 482 c 0
 1186 208 923 -25 628 -25 c 0
 489 -25 291 27 291 311 c 0
 291 384 304 471 334 577 c 0
 527 1250 937 1432 1317 1432 c 0
871 792 m 0
 702 792 526 664 472 476 c 0
 462 440 457 405 457 371 c 0
 457 231 541 115 687 115 c 0
 858 115 1042 276 1096 464 c 0
 1106 500 1111 532 1111 563 c 0
 1111 705 1008 792 871 792 c 0
EndSplineSet
Validated: 1
EndChar

StartChar: seven
Encoding: 55 55 61
Width: 1300
VWidth: 0
Flags: HW
LayerCount: 2
Fore
SplineSet
538 1421 m 1
 1576 1421 l 1
 1546 1314 l 1
 506 0 l 1
 308 0 l 1
 1322 1261 l 1
 493 1261 l 1
 538 1421 l 1
EndSplineSet
Validated: 1
EndChar

StartChar: five
Encoding: 53 53 62
Width: 1300
VWidth: 2097
Flags: HW
CounterMasks: 1 e0
LayerCount: 2
Fore
SplineSet
642 1421 m 1
 1498 1421 l 1
 1455 1271 l 1
 762 1271 l 1
 651 883 l 1
 692 888 777 896 858 896 c 0
 1203 896 1287 731 1287 582 c 0
 1287 536 1279 492 1268 454 c 0
 1224 299 1049 -20 533 -20 c 0
 403 -20 285 -7 177 15 c 1
 253 166 l 1
 341 146 452 134 564 134 c 0
 917 134 1050 316 1085 437 c 0
 1091 460 1095 485 1095 511 c 0
 1095 621 1023 744 758 744 c 0
 696 744 600 738 441 720 c 1
 642 1421 l 1
EndSplineSet
Validated: 1
EndChar

StartChar: two
Encoding: 50 50 63
Width: 1300
VWidth: 0
Flags: HW
LayerCount: 2
Back
SplineSet
198 1319 m 5
 319.275 1379.23 478.892 1431.04 642.162 1431.04 c 4
 928.274 1431.04 1106.15 1263.63 1106.15 1065.06 c 4
 1106.15 707.484 594.973 631.805 431.873 150 c 5
 1132 150 l 5
 1132 0 l 5
 225 0 l 5
 225 93 l 5
 379.879 577.282 779.574 774.777 881.258 906.367 c 4
 904.567 936.531 928.699 978.695 928.699 1035.06 c 4
 928.699 1169.71 786.056 1284.22 609.645 1284.22 c 4
 525.318 1284.22 439.587 1256.78 398.827 1244.22 c 6
 237 1192 l 5
 198 1319 l 5
EndSplineSet
Fore
SplineSet
571 1334 m 1
 717 1389 889 1431 1052 1431 c 0
 1294 1431 1424 1311 1424 1154 c 0
 1424 1125 1420 1096 1411 1065 c 0
 1308 707 776 632 475 150 c 1
 1175 150 l 1
 1132 0 l 1
 225 0 l 1
 252 93 l 1
 618 695 1157 793 1226 1035 c 0
 1231 1053 1234 1071 1234 1088 c 0
 1234 1198 1130 1284 978 1284 c 0
 882 1284 770 1263 582 1202 c 1
 571 1334 l 1
EndSplineSet
Validated: 1
EndChar

StartChar: three
Encoding: 51 51 64
Width: 1300
VWidth: 2097
Flags: HW
CounterMasks: 1 e0
LayerCount: 2
Fore
SplineSet
588 1336 m 1xf0
 692 1381 858 1438 1019 1438 c 0
 1231 1438 1364 1333 1364 1182 c 0
 1364 1156 1360 1129 1352 1101 c 0xf0
 1309 951 1185 828 1041 778 c 1
 1183 737 1239 651 1239 544 c 0
 1239 510 1234 474 1223 436 c 0
 1140 147 851 -45 534 -45 c 0
 420 -45 300 -22 185 32 c 1
 273 170 l 1
 434 122 516 113 581 113 c 0
 784 113 990 227 1039 399 c 0xe8
 1045 419 1049 442 1049 467 c 0
 1049 565 982 684 668 684 c 1
 710 830 l 1
 1023 830 1144 977 1172 1074 c 0
 1177 1091 1179 1107 1179 1123 c 0
 1179 1213 1103 1284 954 1284 c 0
 831 1284 692 1237 604 1201 c 1
 588 1336 l 1xf0
EndSplineSet
Validated: 1
EndChar

StartChar: one
Encoding: 49 49 65
Width: 1300
VWidth: 0
Flags: HW
LayerCount: 2
Fore
SplineSet
1001 1421 m 1
 1197 1421 l 1
 833 149 l 1
 1163 149 l 1
 1120 0 l 1
 292 0 l 1
 335 149 l 1
 669 149 l 1
 986 1257 l 1
 639 1134 l 1
 617 1281 l 1
 1001 1421 l 1
EndSplineSet
Validated: 1
EndChar

StartChar: zero
Encoding: 48 48 66
Width: 1300
VWidth: 2097
Flags: HW
LayerCount: 2
Fore
SplineSet
1018 1287 m 0
 870 1287 611 1159 488 730 c 0
 456 618 442 525 442 448 c 0
 442 209 574 130 689 130 c 0
 837 130 1096 262 1228 722 c 0
 1257 823 1269 907 1269 977 c 0
 1269 1211 1133 1287 1018 1287 c 0
1062 1440 m 0
 1233 1440 1444 1341 1444 1022 c 0
 1444 939 1430 841 1397 726 c 0
 1230 142 861 -20 646 -20 c 0
 476 -20 269 81 269 408 c 0
 269 497 284 603 320 728 c 0
 479 1283 847 1440 1062 1440 c 0
EndSplineSet
Validated: 1
EndChar

StartChar: four
Encoding: 52 52 67
Width: 1300
VWidth: 0
Flags: HW
LayerCount: 2
Fore
SplineSet
1101 1421 m 1
 1339 1421 l 1
 1074 494 l 1
 1322 494 l 1
 1279 344 l 1
 1031 344 l 1
 932 0 l 1
 768 0 l 1
 867 344 l 1
 219 344 l 1
 251 456 l 1
 1101 1421 l 1
1129 1259 m 1
 458 494 l 1
 910 494 l 1
 1129 1259 l 1
EndSplineSet
Validated: 1
EndChar

StartChar: period
Encoding: 46 46 68
Width: 570
VWidth: 2097
Flags: HW
LayerCount: 2
Fore
SplineSet
240 210 m 1
 450 210 l 1
 390 0 l 1
 180 0 l 1
 240 210 l 1
EndSplineSet
Validated: 1
EndChar

StartChar: comma
Encoding: 44 44 69
Width: 570
VWidth: 2097
Flags: HW
LayerCount: 2
Fore
SplineSet
249 170 m 1xa0
 429 170 l 1xa0
 159 -220 l 1
 -21 -220 l 1xc0
 249 170 l 1xa0
EndSplineSet
Validated: 1
EndChar

StartChar: bracketleft
Encoding: 91 91 70
Width: 758
VWidth: 2097
Flags: HW
LayerCount: 2
Fore
SplineSet
683 1511 m 1xe0
 1141 1511 l 1
 1099 1362 l 1xe0
 805 1362 l 1
 339 -261 l 1xd0
 633 -261 l 1
 590 -410 l 1
 132 -410 l 1
 683 1511 l 1xe0
EndSplineSet
Validated: 1
EndChar

StartChar: bracketright
Encoding: 93 93 71
Width: 758
VWidth: 2097
Flags: HW
LayerCount: 2
Fore
SplineSet
483 1511 m 1xe0
 941 1511 l 1
 390 -410 l 1
 -68 -410 l 1
 -25 -261 l 1xe0
 269 -261 l 1
 735 1362 l 1xd0
 441 1362 l 1
 483 1511 l 1xe0
EndSplineSet
Validated: 1
EndChar

StartChar: parenleft
Encoding: 40 40 72
Width: 742
VWidth: 2097
Flags: HW
LayerCount: 2
Fore
SplineSet
1086 1479 m 1
 704 1047 497 585 497 131 c 0
 497 -22 521 -174 569 -324 c 1
 416 -408 l 1
 372 -272 327 -74 327 151 c 0
 327 285 343 429 385 576 c 0
 497 965 780 1332 974 1548 c 1
 1086 1479 l 1
EndSplineSet
Validated: 1
EndChar

StartChar: parenright
Encoding: 41 41 73
Width: 742
VWidth: 2097
Flags: HW
LayerCount: 2
Fore
SplineSet
-13 -324 m 1
 223 -60 574 419 574 1018 c 0
 574 1165 553 1319 504 1479 c 1
 656 1548 l 1
 700 1413 745 1218 745 996 c 0
 745 864 729 721 687 576 c 0
 575 184 285 -193 92 -408 c 1
 -13 -324 l 1
EndSplineSet
Validated: 1
EndChar

StartChar: slash
Encoding: 47 47 74
Width: 726
VWidth: 2097
Flags: HW
LayerCount: 2
Fore
SplineSet
943 1421 m 1
 1113 1421 l 1
 184 -90 l 1
 14 -90 l 1
 943 1421 l 1
EndSplineSet
Validated: 1
EndChar

StartChar: backslash
Encoding: 92 92 75
Width: 726
VWidth: 2097
Flags: HW
LayerCount: 2
Fore
SplineSet
427 1421 m 1
 597 1421 l 1
 660 -90 l 1
 490 -90 l 1
 427 1421 l 1
EndSplineSet
Validated: 1
EndChar

StartChar: plus
Encoding: 43 43 76
Width: 1400
VWidth: 2097
Flags: HW
LayerCount: 2
Fore
SplineSet
980 1233 m 1
 1128 1233 l 1
 982 727 l 1
 1483 727 l 1
 1444 589 l 1
 943 589 l 1
 798 83 l 1
 650 83 l 1
 795 589 l 1
 294 589 l 1
 333 727 l 1
 834 727 l 1
 980 1233 l 1
EndSplineSet
Validated: 1
EndChar

StartChar: asterisk
Encoding: 42 42 77
Width: 1196
VWidth: 2097
Flags: HW
LayerCount: 2
Fore
SplineSet
920 1421 m 1
 1090 1421 l 1
 981 1102 l 1
 1297 1277 l 1
 1340 1129 l 1
 1015 988 l 1
 1258 843 l 1
 1130 695 l 1
 914 870 l 1
 841 552 l 1
 671 552 l 1
 780 870 l 1
 464 695 l 1
 422 843 l 1
 748 988 l 1
 504 1129 l 1
 631 1277 l 1
 847 1102 l 1
 920 1421 l 1
EndSplineSet
Validated: 1
EndChar

StartChar: numbersign
Encoding: 35 35 78
Width: 1402
VWidth: 2097
Flags: HW
LayerCount: 2
Fore
SplineSet
770 1421 m 1
 930 1421 l 1
 818 1030 l 1
 1176 1030 l 1
 1288 1421 l 1
 1448 1421 l 1
 1336 1030 l 1
 1652 1030 l 1
 1609 880 l 1
 1293 880 l 1
 1192 528 l 1
 1508 528 l 1
 1465 378 l 1
 1149 378 l 1
 1032 -30 l 1
 872 -30 l 1
 989 378 l 1
 631 378 l 1
 514 -30 l 1
 354 -30 l 1
 471 378 l 1
 155 378 l 1
 198 528 l 1
 514 528 l 1
 615 880 l 1
 297 880 l 1
 340 1030 l 1
 658 1030 l 1
 770 1421 l 1
775 880 m 1
 674 528 l 1
 1032 528 l 1
 1133 880 l 1
 775 880 l 1
EndSplineSet
Validated: 1
EndChar

StartChar: dollar
Encoding: 36 36 79
Width: 1200
VWidth: 2097
Flags: HW
LayerCount: 2
Fore
SplineSet
985 1511 m 1
 1106 1511 l 1
 1032 1251 l 1
 1158 1251 1203 1237 1285 1211 c 1
 1207 1086 l 1
 1147 1104 1082 1123 982 1123 c 0
 774 1123 714 1021 701 977 c 0
 699 970 698 963 698 956 c 0
 698 814 1155 826 1155 594 c 0
 1155 576 1152 556 1146 534 c 0
 1114 424 1008 267 740 232 c 1
 654 -65 l 1
 533 -65 l 1
 617 225 l 1
 543 225 434 244 313 300 c 1
 395 424 l 1
 506 371 568 354 654 354 c 0
 799 354 925 386 962 515 c 0
 964 523 966 532 966 539 c 0
 966 686 516 651 516 892 c 0
 516 913 519 935 526 960 c 0
 553 1055 662 1200 908 1240 c 1
 985 1511 l 1
EndSplineSet
Validated: 1
EndChar

StartChar: semicolon
Encoding: 59 59 80
Width: 570
VWidth: 2097
Flags: HW
LayerCount: 2
Fore
SplineSet
249 170 m 1x90
 429 170 l 1x90
 159 -220 l 1
 -21 -220 l 1xc0
 249 170 l 1x90
465 993 m 1xa0
 675 993 l 1
 615 783 l 1
 405 783 l 1
 465 993 l 1xa0
EndSplineSet
Validated: 1
EndChar

StartChar: colon
Encoding: 58 58 81
Width: 570
VWidth: 2097
Flags: HW
LayerCount: 2
Fore
SplineSet
240 210 m 1
 450 210 l 1
 390 0 l 1
 180 0 l 1
 240 210 l 1
465 993 m 1
 675 993 l 1
 615 783 l 1
 405 783 l 1
 465 993 l 1
EndSplineSet
Validated: 1
EndChar

StartChar: equal
Encoding: 61 61 82
Width: 1400
VWidth: 2097
Flags: HW
LayerCount: 2
Fore
SplineSet
364 501 m 1
 1324 501 l 1
 1281 351 l 1
 321 351 l 1
 364 501 l 1
494 954 m 1
 1454 954 l 1
 1411 804 l 1
 451 804 l 1
 494 954 l 1
EndSplineSet
Validated: 1
EndChar

StartChar: quotedbl
Encoding: 34 34 83
Width: 795
VWidth: 2097
Flags: HW
LayerCount: 2
Fore
SplineSet
933 1511 m 1
 1118 1511 l 1
 996 1083 l 1
 811 1083 l 1
 933 1511 l 1
543 1511 m 1
 728 1511 l 1
 606 1083 l 1
 421 1083 l 1
 543 1511 l 1
EndSplineSet
Validated: 1
EndChar

StartChar: quotesingle
Encoding: 39 39 84
Width: 405
VWidth: 2097
Flags: HW
LayerCount: 2
Fore
SplineSet
543 1511 m 1
 728 1511 l 1
 606 1083 l 1
 421 1083 l 1
 543 1511 l 1
EndSplineSet
Validated: 1
EndChar

StartChar: underscore
Encoding: 95 95 85
Width: 1160
VWidth: 2097
Flags: HW
LayerCount: 2
Fore
SplineSet
193 150 m 1
 1053 150 l 1
 1010 0 l 1
 150 0 l 1
 193 150 l 1
EndSplineSet
Validated: 1
EndChar

StartChar: percent
Encoding: 37 37 86
Width: 1329
VWidth: 2097
Flags: HW
LayerCount: 2
Fore
SplineSet
690 1268 m 0xfdc0
 631 1268 550 1233 510 1094 c 0
 499 1056 494 1025 494 1000 c 0
 494 917 545 900 585 900 c 0
 641 900 724 933 769 1089 c 0
 779 1123 783 1150 783 1173 c 0
 783 1252 732 1268 690 1268 c 0xfdc0
718 1363 m 0
 786 1363 885 1339 885 1206 c 0
 885 1175 880 1137 867 1092 c 0
 815 910 684 806 557 806 c 0
 468 806 391 846 391 968 c 0
 391 1003 397 1044 411 1093 c 0
 464 1277 604 1363 718 1363 c 0
1135 527 m 0
 1076 527 995 492 955 353 c 0
 944 315 940 284 940 259 c 0
 940 176 991 159 1031 159 c 0
 1087 159 1170 192 1215 348 c 0xfcd0
 1225 382 1229 409 1229 431 c 0
 1229 510 1177 527 1135 527 c 0
1164 623 m 0
 1232 623 1332 598 1332 464 c 0
 1332 433 1327 395 1314 351 c 0
 1262 169 1130 66 1003 66 c 0
 914 66 838 106 838 227 c 0
 838 262 844 303 858 352 c 0
 911 536 1050 623 1164 623 c 0
1461 1421 m 1xfee0
 1631 1421 l 1
 255 0 l 1
 85 0 l 1
 1461 1421 l 1xfee0
EndSplineSet
Validated: 1
EndChar

StartChar: braceright
Encoding: 125 125 87
Width: 798
VWidth: 2097
Flags: HW
LayerCount: 2
Fore
SplineSet
519 1511 m 1
 594 1505 775 1463 775 1212 c 0
 775 1173 771 1129 761 1080 c 0
 750 1025 736 970 728 916 c 0
 724 888 722 862 722 838 c 0
 722 700 792 634 885 618 c 1
 846 480 l 1
 568 435 497 120 453 6 c 0
 314 -354 47 -406 -32 -412 c 1
 -25 -283 l 1
 53 -273 135 -227 195 -163 c 0
 378 32 334 375 653 549 c 1
 581 606 559 681 559 763 c 0
 559 896 618 1048 618 1172 c 0
 618 1204 614 1234 604 1262 c 0
 580 1326 524 1372 452 1382 c 1
 519 1511 l 1
EndSplineSet
Validated: 1
EndChar

StartChar: asciitilde
Encoding: 126 126 88
Width: 1400
VWidth: 2097
Flags: HW
LayerCount: 2
Fore
SplineSet
1266 1361 m 0
 1341 1361 1381 1465 1419 1545 c 1
 1522 1528 l 1
 1464 1408 1399 1239 1237 1239 c 0
 1078 1239 1055 1421 971 1421 c 0
 896 1421 856 1318 820 1241 c 1
 716 1256 l 1
 774 1376 838 1543 1000 1543 c 0
 1159 1543 1182 1361 1266 1361 c 0
EndSplineSet
Validated: 1
EndChar

StartChar: grave
Encoding: 96 96 89
Width: 1122
VWidth: 2097
Flags: HW
LayerCount: 2
Fore
SplineSet
800 1586 m 25
 1215 1276 l 25
 1121 1168 l 25
 694 1463 l 25
 800 1586 l 25
EndSplineSet
Validated: 1
EndChar

StartChar: asciicircum
Encoding: 94 94 90
Width: 1479
VWidth: 2097
Flags: HW
LayerCount: 2
Fore
SplineSet
1167 1541 m 1
 1341 1255 l 1
 1223 1167 l 1
 1103 1363 l 1
 866 1167 l 1
 800 1246 l 1
 1167 1541 l 1
EndSplineSet
Validated: 1
EndChar

StartChar: ampersand
Encoding: 38 38 91
Width: 1589
VWidth: 2097
Flags: HW
LayerCount: 2
Fore
SplineSet
1120 1440 m 0xae
 1294 1440 1387 1357 1387 1242 c 0
 1387 1221 1384 1198 1377 1175 c 0
 1327 999 1109 876 949 772 c 1
 1191 401 l 1
 1615 754 l 1
 1681 660 l 1
 1256 301 l 1
 1453 0 l 1
 1250 0 l 1x6e
 1114 201 l 1
 983 100 786 -47 523 -47 c 0
 339 -47 246 46 246 181 c 0
 246 213 251 247 261 282 c 0xb6
 335 541 607 695 725 770 c 1
 674 845 611 928 611 1037 c 0
 611 1064 615 1092 624 1123 c 0
 678 1313 897 1440 1120 1440 c 0xae
1062 1297 m 0
 942 1297 816 1213 788 1114 c 0
 784 1099 782 1084 782 1071 c 0
 782 1001 835 949 885 871 c 1
 1065 985 1173 1042 1202 1143 c 0
 1206 1156 1207 1168 1207 1180 c 0
 1207 1244 1156 1297 1062 1297 c 0
793 671 m 1
 649 578 485 481 441 327 c 0
 435 306 432 285 432 266 c 0
 432 171 503 100 622 100 c 0xb6
 785 100 950 226 1046 299 c 1
 793 671 l 1
EndSplineSet
Validated: 1
EndChar

StartChar: less
Encoding: 60 60 92
Width: 1073
VWidth: 2097
Flags: HW
LayerCount: 2
Fore
SplineSet
1296 1128 m 1
 1252 973 l 1
 452 621 l 1
 1055 285 l 1
 1007 120 l 1
 253 533 l 1
 300 698 l 1
 1296 1128 l 1
EndSplineSet
Validated: 1
EndChar

StartChar: greater
Encoding: 62 62 93
Width: 1073
VWidth: 2097
Flags: HW
LayerCount: 2
Fore
SplineSet
423 1128 m 1
 1173 698 l 1
 1126 533 l 1
 134 120 l 1
 182 285 l 1
 977 621 l 1
 379 973 l 1
 423 1128 l 1
EndSplineSet
Validated: 1
EndChar

StartChar: braceleft
Encoding: 123 123 94
Width: 798
VWidth: 2097
Flags: HW
LayerCount: 2
Back
SplineSet
90 619 m 5
 204.179 638.202 308.002 725.451 333.354 917.293 c 4
 340.528 971.587 341.964 1026.47 347 1081 c 4
 381.05 1449.63 623.185 1505.27 712 1512 c 5
 742 1383 l 5
 666.611 1372.59 597.735 1326.64 556 1263 c 4
 426.47 1065.48 570.432 724.538 301.727 550.09 c 5
 570.345 376.373 429.108 33.1994 556 -162 c 4
 597.506 -225.849 666.514 -271.942 742 -282 c 5
 712 -411 l 5
 634.734 -404.6 383.387 -353.22 347 7 c 4
 333.433 141.308 348.454 328.573 204.364 433.387 c 4
 170.661 457.903 131.154 474.416 90 481 c 5
 90 619 l 5
  Spiro
    90 619 v
    198.105 662.169 o
    284.438 759.088 o
    333.354 917.293 o
    338.957 971.694 o
    342.822 1026.44 o
    347 1081 o
    436.894 1354.89 o
    585.615 1479.25 o
    712 1512 v
    742 1383 v
    669.615 1361.44 o
    605.96 1320.03 o
    556 1263 o
    492.244 1029.41 o
    458.22 768.307 o
    301.727 550.09 v
    458.766 331.896 o
    493.397 70.5089 o
    556 -162 o
    605.837 -219.203 o
    669.521 -260.639 o
    742 -282 v
    712 -411 v
    591.266 -379.9 o
    440.495 -259.862 o
    347 7 o
    336.026 153.791 o
    302.31 306.249 o
    204.364 433.387 o
    168.917 455.145 o
    130.411 471.191 o
    90 481 v
    0 0 z
  EndSpiro
EndSplineSet
Fore
SplineSet
267 618 m 1
 540 662 617 976 657 1080 c 0
 797 1449 1054 1504 1145 1511 c 1
 1138 1382 l 1
 1060 1372 978 1326 918 1262 c 0
 731 1064 778 723 459 549 c 1
 531 492 554 416 554 333 c 0
 554 199 495 47 495 -75 c 0
 495 -107 499 -136 509 -163 c 0
 533 -227 589 -273 661 -283 c 1
 594 -412 l 1
 528 -407 337 -366 337 -112 c 0
 337 -77 341 -38 349 6 c 0
 363 83 392 178 392 265 c 0
 392 329 376 388 328 432 c 0
 301 457 267 473 228 480 c 1
 267 618 l 1
EndSplineSet
Validated: 1
EndChar

StartChar: sterling
Encoding: 163 163 95
Width: 1300
VWidth: 2097
Flags: HW
CounterMasks: 1 e0
LayerCount: 2
Fore
SplineSet
191 135 m 1
 435 135 l 1
 586 662 l 1
 410 662 l 1
 449 797 l 1
 625 797 l 1
 665 938 l 1
 778 1332 1069 1431 1292 1431 c 0
 1374 1431 1451 1416 1516 1393 c 1
 1433 1271 l 1
 1385 1285 1331 1295 1275 1295 c 0
 959 1295 865 1064 821 911 c 1
 789 797 l 1
 1319 797 l 1
 1280 662 l 1
 750 662 l 1
 599 135 l 1
 1187 135 l 1
 1148 0 l 1
 152 0 l 1
 191 135 l 1
EndSplineSet
Validated: 1
EndChar

StartChar: exclamdown
Encoding: 161 161 96
Width: 650
VWidth: 2097
Flags: HW
LayerCount: 2
Fore
SplineSet
487 863 m 1xa0
 657 863 l 1
 292 -410 l 1
 122 -410 l 1
 487 863 l 1xa0
604 1321 m 1xc0
 804 1321 l 1
 746 1121 l 1
 546 1121 l 1
 604 1321 l 1xc0
EndSplineSet
Validated: 1
EndChar

StartChar: cent
Encoding: 162 162 97
Width: 1021
VWidth: 2097
Flags: HW
LayerCount: 2
Fore
SplineSet
354 713 m 0
 436 999 631 1198 897 1236 c 1
 976 1511 l 1
 1097 1511 l 1
 1020 1241 l 1
 1103 1241 1178 1216 1245 1183 c 1
 1171 1063 l 1
 1108 1087 1039 1101 965 1101 c 0
 745 1101 588 974 523 747 c 0
 506 688 499 638 499 595 c 0
 499 411 637 360 772 360 c 0
 835 360 902 372 968 393 c 1
 975 280 l 1
 893 251 809 229 730 229 c 1
 645 -65 l 1
 524 -65 l 1
 609 229 l 1
 443 249 325 342 325 532 c 0
 325 585 334 645 354 713 c 0
EndSplineSet
Validated: 1
EndChar

StartChar: currency
Encoding: 164 164 98
Width: 1300
Flags: HW
LayerCount: 2
Fore
SplineSet
515 568 m 1
 506 595 502 622 502 650 c 0
 502 742 546 838 614 915 c 1
 495 1082 l 1
 656 1207 l 1
 775 1040 l 1
 845 1075 910 1087 962 1087 c 0
 1022 1087 1078 1071 1121 1040 c 1
 1335 1205 l 1
 1424 1080 l 1
 1210 915 l 1
 1218 889 1221 862 1221 835 c 0
 1221 741 1178 644 1111 569 c 1
 1229 404 l 1
 1068 279 l 1
 950 444 l 1
 889 413 824 396 763 396 c 0
 711 396 653 408 604 443 c 1
 390 277 l 1
 301 402 l 1
 515 568 l 1
921 946 m 0
 813 946 695 856 662 741 c 0
 656 721 654 702 654 684 c 0
 654 600 712 537 803 537 c 0
 913 537 1029 629 1061 741 c 0
 1067 761 1070 781 1070 799 c 0
 1070 885 1010 946 921 946 c 0
EndSplineSet
Validated: 1
EndChar

StartChar: yen
Encoding: 165 165 99
Width: 1300
VWidth: 2097
Flags: HW
LayerCount: 2
Fore
SplineSet
550 1421 m 1
 735 1421 l 1
 885 818 l 1
 1389 1421 l 1
 1564 1421 l 1
 930 699 l 1
 1212 699 l 1
 1177 574 l 1
 888 574 l 1
 830 374 l 1
 1119 374 l 1
 1083 249 l 1
 794 249 l 1
 723 0 l 1
 563 0 l 1
 634 249 l 1
 359 249 l 1
 395 374 l 1
 670 374 l 1
 728 574 l 1
 453 574 l 1
 488 699 l 1
 756 699 l 1
 550 1421 l 1
EndSplineSet
Validated: 1
EndChar

StartChar: brokenbar
Encoding: 166 166 100
Width: 884
VWidth: 2097
Flags: HW
LayerCount: 2
Fore
SplineSet
492 460 m 1
 656 460 l 1
 436 -308 l 1
 272 -308 l 1
 492 460 l 1
819 1601 m 1
 983 1601 l 1
 764 837 l 1
 600 837 l 1
 819 1601 l 1
EndSplineSet
Validated: 1
EndChar

StartChar: section
Encoding: 167 167 101
Width: 1136
VWidth: 2097
Flags: HW
LayerCount: 2
Fore
SplineSet
1062 1434 m 0
 1198 1434 1252 1412 1321 1391 c 1
 1238 1260 l 1
 1171 1283 1083 1299 998 1299 c 0
 861 1299 731 1247 703 1148 c 0
 700 1139 699 1129 699 1121 c 0
 699 958 1180 974 1180 740 c 0
 1180 722 1177 703 1171 682 c 0
 1153 618 1110 539 1027 474 c 1
 1054 445 1071 409 1071 365 c 0
 1071 347 1068 327 1062 306 c 0
 1025 176 884 -20 518 -20 c 2
 505 -20 l 2
 431 -20 315 -18 173 45 c 1
 254 169 l 1
 359 128 459 109 541 109 c 0
 693 109 829 150 868 286 c 0
 871 296 872 306 872 315 c 0
 872 479 400 435 400 683 c 0
 400 704 404 727 411 752 c 0
 426 806 470 881 554 944 c 1
 526 974 508 1011 508 1059 c 0
 508 1079 511 1102 518 1127 c 0
 553 1250 711 1434 1062 1434 c 0
673 870 m 1
 623 837 602 796 595 771 c 0
 592 761 591 752 591 743 c 0
 591 644 764 614 902 554 c 1
 944 586 966 626 976 662 c 0
 979 673 980 683 980 692 c 0
 980 792 810 814 673 870 c 1
EndSplineSet
Validated: 1
EndChar

StartChar: copyright
Encoding: 169 169 102
Width: 1760
VWidth: 2097
Flags: HW
CounterMasks: 2 f0 0e
LayerCount: 2
Fore
SplineSet
1209 1055 m 0
 1278 1055 1342 1040 1397 1012 c 1
 1342 925 l 1
 1296 943 1246 953 1192 953 c 0
 1075 953 934 902 874 694 c 0
 862 651 856 613 856 582 c 0
 856 452 951 416 1051 416 c 0
 1097 416 1147 425 1195 440 c 1
 1202 358 l 1
 1130 333 1056 319 986 319 c 0
 866 319 732 367 732 540 c 0
 732 578 738 622 753 673 c 0
 835 960 1043 1055 1209 1055 c 0
1238 1248 m 0
 915 1248 586 988 499 683 c 0
 484 631 477 580 477 532 c 0
 477 297 646 118 914 118 c 0
 1237 118 1566 378 1653 683 c 0
 1668 735 1675 786 1675 834 c 0
 1675 1069 1506 1248 1238 1248 c 0
1276 1380 m 0
 1606 1380 1813 1159 1813 870 c 0
 1813 810 1805 747 1786 683 c 0
 1678 308 1275 -14 876 -14 c 0
 546 -14 339 207 339 496 c 0
 339 556 347 619 366 683 c 0
 472 1052 870 1380 1276 1380 c 0
EndSplineSet
Validated: 1
EndChar

StartChar: guillemotleft
Encoding: 171 171 103
Width: 936
VWidth: 2097
Flags: HW
LayerCount: 2
Fore
SplineSet
984 988 m 1xd8
 1169 988 l 1
 791 623 l 1
 960 258 l 1
 775 258 l 1
 625 623 l 1
 984 988 l 1xd8
613 988 m 1xe8
 798 988 l 1
 420 623 l 1
 589 258 l 1
 404 258 l 1
 254 623 l 1
 613 988 l 1xe8
EndSplineSet
Validated: 1
EndChar

StartChar: guillemotright
Encoding: 187 187 104
Width: 936
VWidth: 2097
Flags: HW
LayerCount: 2
Fore
SplineSet
519 988 m 1
 669 623 l 1
 309 258 l 1
 124 258 l 1
 503 623 l 1
 333 988 l 1
 519 988 l 1
890 988 m 1
 1040 623 l 1
 680 258 l 1
 495 258 l 1
 874 623 l 1
 704 988 l 1
 890 988 l 1
EndSplineSet
Validated: 1
EndChar

StartChar: registered
Encoding: 174 174 105
Width: 1232
VWidth: 2097
Flags: HW
CounterMasks: 2 b0 0f
LayerCount: 2
Fore
SplineSet
1028 1320 m 2
 1072 1320 1149 1319 1165 1237 c 0
 1166 1230 1167 1223 1167 1215 c 0
 1167 1147 1121 1032 1007 998 c 1
 1056 776 l 1
 956 776 l 1
 914 984 l 1
 802 984 l 1
 743 776 l 1
 650 776 l 1
 806 1320 l 1
 1028 1320 l 2
1064 1561 m 0
 1303 1561 1462 1402 1462 1184 c 0
 1462 1139 1455 1092 1441 1043 c 0
 1359 756 1054 525 767 525 c 0
 523 525 369 689 369 904 c 0
 369 949 375 995 389 1043 c 0
 471 1330 777 1561 1064 1561 c 0
1032 1450 m 0
 800 1450 563 1264 500 1043 c 0
 489 1005 484 969 484 934 c 0
 484 765 605 636 798 636 c 0
 1031 636 1267 824 1330 1043 c 0
 1341 1081 1346 1117 1346 1152 c 0
 1346 1321 1225 1450 1032 1450 c 0
972 1240 m 2
 876 1240 l 1
 824 1061 l 1
 906 1061 879 1060 915 1060 c 0
 982 1060 1046 1074 1067 1147 c 0
 1070 1159 1072 1170 1072 1179 c 0
 1072 1236 1012 1240 972 1240 c 2
EndSplineSet
Validated: 1
EndChar

StartChar: paragraph
Encoding: 182 182 106
Width: 1338
VWidth: 2097
Flags: HW
LayerCount: 2
Fore
SplineSet
1034 1511 m 2xe8
 1581 1511 l 1
 1148 0 l 1
 978 0 l 1
 1368 1361 l 1
 1128 1361 l 1
 738 0 l 1
 567 0 l 1
 764 686 l 1xd8
 650 686 429 727 429 972 c 0
 429 1018 437 1071 455 1133 c 0
 562 1507 891 1511 1034 1511 c 2xe8
EndSplineSet
Validated: 1
EndChar

StartChar: periodcentered
Encoding: 183 183 107
Width: 590
VWidth: 2097
Flags: HW
LayerCount: 2
Fore
SplineSet
430 838 m 1
 640 838 l 1
 580 628 l 1
 370 628 l 1
 430 838 l 1
EndSplineSet
Validated: 1
EndChar

StartChar: questiondown
Encoding: 191 191 108
Width: 1047
VWidth: 2097
Flags: HW
CounterMasks: 1 e0
LayerCount: 2
Fore
SplineSet
637 988 m 1xec
 807 988 l 1
 786 914 777 853 777 802 c 0
 777 553 990 543 990 347 c 0
 990 317 985 282 973 241 c 0
 909 19 626 -141 451 -141 c 0
 302 -141 208 -105 113 -53 c 1
 200 69 l 1
 330 9 408 0 465 0 c 0
 645 0 771 110 804 225 c 0
 811 249 814 269 814 288 c 0
 814 447 597 459 597 742 c 0
 597 808 608 888 637 988 c 1xec
746 1421 m 1xf4
 946 1421 l 1
 889 1220 l 1
 689 1220 l 1
 746 1421 l 1xf4
EndSplineSet
Validated: 1
EndChar

StartChar: uni00B5
Encoding: 181 181 109
Width: 1174
VWidth: 2097
Flags: HW
LayerCount: 2
Fore
SplineSet
461 963 m 1xb8
 625 963 l 1
 470 421 l 2
 461 388 447 334 447 280 c 0
 447 196 480 112 618 112 c 0xb8
 666 112 728 122 880 187 c 1
 1102 963 l 1
 1266 963 l 1
 990 0 l 1
 875 0 l 1x78
 865 67 l 1
 775 17 654 -27 552 -27 c 0
 484 -27 410 -4 364 53 c 1
 232 -410 l 1
 68 -410 l 1
 461 963 l 1xb8
EndSplineSet
Validated: 1
EndChar

StartChar: uni00AD
Encoding: 173 173 110
Width: 1074
VWidth: 2097
Flags: HW
LayerCount: 2
Fore
SplineSet
429 728 m 1
 1063 728 l 1
 1023 589 l 1
 389 589 l 1
 429 728 l 1
EndSplineSet
Validated: 1
EndChar

StartChar: plusminus
Encoding: 177 177 111
Width: 1400
VWidth: 2097
Flags: HW
LayerCount: 2
Fore
SplineSet
302 287 m 1
 1262 287 l 1
 1223 150 l 1
 263 150 l 1
 302 287 l 1
1034 1421 m 1
 1180 1421 l 1
 1062 1009 l 1
 1469 1009 l 1
 1430 872 l 1
 1023 872 l 1
 905 461 l 1
 759 461 l 1
 877 872 l 1
 470 872 l 1
 509 1009 l 1
 916 1009 l 1
 1034 1421 l 1
EndSplineSet
Validated: 1
EndChar

StartChar: ae
Encoding: 230 230 112
Width: 1650
VWidth: 0
Flags: HW
LayerCount: 2
Fore
SplineSet
360 268 m 0
 357 258 356 248 356 238 c 0
 356 166 433 111 529 111 c 0
 615 111 701 149 768 203 c 1
 831 423 l 1
 475 423 387 362 360 268 c 0
1383 839 m 0
 1220 839 1084 700 1040 547 c 1
 1516 547 l 1
 1527 586 1537 633 1537 677 c 0
 1537 762 1503 839 1383 839 c 0
447 919 m 1
 584 966 711 981 794 981 c 0
 954 981 1036 913 1054 809 c 1
 1164 909 1312 981 1452 981 c 0
 1634 981 1691 872 1691 727 c 0
 1691 634 1667 526 1638 423 c 1
 996 423 l 1
 988 395 984 368 984 343 c 0
 984 208 1092 112 1263 112 c 0
 1340 112 1428 135 1475 147 c 1
 1470 36 l 1
 1349 -5 1236 -20 1163 -20 c 0
 1030 -20 902 23 844 130 c 1
 735 26 604 -20 459 -20 c 0
 304 -20 185 70 185 197 c 0
 185 217 188 238 194 260 c 0
 234 400 381 516 628 540 c 0
 707 548 820 549 867 549 c 1
 882 598 l 1
 891 628 896 660 896 690 c 0
 896 773 854 845 713 845 c 0
 664 845 596 839 454 803 c 1
 447 919 l 1
EndSplineSet
Validated: 1
EndChar

StartChar: germandbls
Encoding: 223 223 113
Width: 1251
VWidth: 2097
Flags: HW
LayerCount: 2
Fore
SplineSet
996 1430 m 0x7e
 1182 1430 1256 1308 1256 1186 c 0
 1256 1157 1252 1128 1244 1101 c 0
 1177 867 912 840 875 712 c 0
 872 702 871 693 871 684 c 0
 871 548 1216 591 1216 354 c 0
 1216 327 1211 296 1201 261 c 0
 1173 162 1061 -26 789 -26 c 0xbe
 714 -26 605 -13 500 21 c 1x7e
 563 137 l 1
 644 120 724 106 793 106 c 0xbe
 905 106 994 142 1027 258 c 0
 1032 275 1034 290 1034 304 c 0
 1034 472 698 420 698 630 c 0
 698 652 702 677 710 705 c 0
 773 925 1038 939 1082 1091 c 0
 1087 1108 1089 1124 1089 1139 c 0
 1089 1225 1018 1283 936 1283 c 0
 889 1283 719 1257 652 1022 c 2
 359 0 l 1
 195 0 l 1
 488 1023 l 2
 573 1320 817 1430 996 1430 c 0x7e
EndSplineSet
Validated: 1
EndChar

StartChar: multiply
Encoding: 215 215 114
Width: 1299
VWidth: 2097
Flags: HW
LayerCount: 2
Fore
SplineSet
344 194 m 1
 268 299 l 1
 725 654 l 1
 477 1000 l 1
 612 1105 l 1
 869 744 l 1
 1325 1099 l 1
 1400 993 l 1
 945 639 l 1
 1192 292 l 1
 1057 187 l 1
 799 548 l 1
 344 194 l 1
EndSplineSet
Validated: 1
EndChar

StartChar: divide
Encoding: 247 247 115
Width: 1400
VWidth: 2097
Flags: HW
LayerCount: 2
Fore
SplineSet
956 1233 m 1
 1151 1233 l 1
 1095 1038 l 1
 900 1038 l 1
 956 1233 l 1
682 278 m 1
 877 278 l 1
 821 83 l 1
 626 83 l 1
 682 278 l 1
333 727 m 1
 1483 727 l 1
 1444 588 l 1
 294 588 l 1
 333 727 l 1
EndSplineSet
Validated: 1
EndChar

StartChar: oslash
Encoding: 248 248 116
Width: 1194
VWidth: 2097
Flags: HW
LayerCount: 2
Fore
SplineSet
1300 970 m 1
 1342 914 l 1
 1201 804 l 1
 1220 763 1230 714 1230 660 c 0
 1230 611 1222 558 1205 499 c 0
 1113 177 856 -20 580 -20 c 0
 456 -20 361 21 303 97 c 1
 160 -15 l 1
 119 41 l 1
 266 157 l 1
 247 200 236 250 236 306 c 0
 236 357 244 412 262 473 c 0
 352 786 601 982 880 982 c 0
 1005 982 1105 941 1165 863 c 1
 1300 970 l 1
828 842 m 0
 584 842 410 579 410 366 c 0
 410 335 413 306 421 278 c 1
 1017 747 l 1
 975 811 905 842 828 842 c 0
1046 683 m 1
 449 214 l 1
 486 156 550 120 636 120 c 0
 890 120 1057 398 1057 601 c 0
 1057 630 1053 658 1046 683 c 1
EndSplineSet
Validated: 1
EndChar

StartChar: OE
Encoding: 338 338 118
Width: 1998
VWidth: 2097
Flags: HW
LayerCount: 2
Fore
SplineSet
1414 1271 m 1
 1357 1271 l 2
 1294 1271 1232 1271 1167 1261 c 0
 889 1219 675 1010 586 701 c 0
 565 628 556 564 556 509 c 0
 556 336 643 244 722 199 c 1
 800 154 876 150 967 150 c 2
 1093 150 l 1
 1414 1271 l 1
742 1224 m 0
 976 1412 1238 1421 1469 1421 c 2
 2245 1421 l 1
 2202 1271 l 1
 1584 1271 l 1
 1451 807 l 1
 2014 807 l 1
 1971 657 l 1
 1408 657 l 1
 1263 150 l 1
 1881 150 l 1
 1838 0 l 1
 973 0 l 2
 839 0 704 6 596 58 c 0
 460 124 376 250 376 443 c 0
 376 519 389 606 417 703 c 0
 468 880 563 1080 742 1224 c 0
EndSplineSet
Validated: 1
EndChar

StartChar: oe
Encoding: 339 339 119
Width: 1776
VWidth: 0
Flags: HW
LayerCount: 2
Fore
SplineSet
617 118 m 0
 849 118 1009 394 1009 604 c 0
 1009 733 949 837 807 837 c 0
 638 837 484 687 427 489 c 0
 413 442 407 397 407 355 c 0
 407 216 481 118 617 118 c 0
1501 831 m 0
 1332 831 1202 675 1157 519 c 1
 1635 519 l 1
 1652 580 1661 631 1661 673 c 0
 1661 784 1602 831 1501 831 c 0
1576 972 m 0
 1772 972 1828 869 1828 740 c 0
 1828 653 1803 556 1778 470 c 1
 1756 395 l 1
 1118 395 l 1
 1112 373 1109 351 1109 328 c 0
 1109 218 1186 108 1385 108 c 0
 1412 108 1480 110 1600 143 c 1
 1595 32 l 1
 1508 2 1399 -23 1285 -23 c 0
 1072 -23 993 72 965 158 c 1
 853 43 711 -20 559 -20 c 0
 354 -20 235 96 235 293 c 0
 235 347 244 408 263 474 c 0
 352 783 589 977 863 977 c 0
 1030 977 1132 905 1167 783 c 1
 1326 953 1500 972 1576 972 c 0
EndSplineSet
Validated: 1
EndChar

StartChar: AE
Encoding: 198 198 120
Width: 1915
VWidth: 2097
Flags: HW
LayerCount: 2
Fore
SplineSet
671 562 m 1
 1128 562 l 1
 1331 1271 l 1
 1148 1271 l 1
 671 562 l 1
1092 1421 m 1
 2162 1421 l 1
 2119 1271 l 1
 1501 1271 l 1
 1368 807 l 1
 1931 807 l 1
 1888 657 l 1
 1325 657 l 1
 1180 150 l 1
 1798 150 l 1
 1755 0 l 1
 967 0 l 1
 1086 414 l 1
 571 414 l 1
 292 0 l 1
 130 0 l 1
 1092 1421 l 1
EndSplineSet
Validated: 1
EndChar

StartChar: onequarter
Encoding: 188 188 121
Width: 1800
VWidth: 0
Flags: HW
LayerCount: 2
Fore
SplineSet
1587 1421 m 1xee
 1762 1421 l 1
 535 0 l 1
 359 0 l 1
 1587 1421 l 1xee
748 1421 m 1
 860 1421 l 1
 630 618 l 1
 497 618 l 1
 690 1291 l 1xf6
 539 1252 l 1
 543 1369 l 1
 748 1421 l 1
1631 836 m 1
 1788 836 l 1
 1635 305 l 1
 1742 305 l 1
 1711 195 l 1
 1604 195 l 1
 1548 0 l 1
 1415 0 l 1
 1471 195 l 1
 1081 195 l 1
 1106 284 l 1
 1631 836 l 1
1612 688 m 1
 1261 305 l 1
 1502 305 l 1
 1612 688 l 1
EndSplineSet
Validated: 1
EndChar

StartChar: onehalf
Encoding: 189 189 122
Width: 1847
VWidth: 0
Flags: HW
LayerCount: 2
Back
SplineSet
341 1421 m 5
 453 1421 l 5
 453 608 l 5
 320 608 l 5
 320 1291 l 5xf6
 180 1252 l 5
 150 1369 l 5
 341 1421 l 5
209.37 1384.94 m 1
 269.895 1414.56 354.763 1449.55 451.692 1449.55 c 0
 594.526 1449.55 703.593 1365.38 703.593 1248.25 c 0xf960
 703.593 1174.01 666.949 1109.79 609.707 1073.15 c 1
 704.028 1034.22 737.692 959.235 737.692 881.95 c 0
 737.692 713.489 600.513 602.601 418.745 601.45 c 1
 416.492 601.45 l 2
 327.678 601.45 256.558 625.139 194.458 650.363 c 1
 231.084 755.665 l 1
 330.122 728.346 372.918 721.35 419.793 721.35 c 0
 521.652 721.35 610.093 777.67 610.093 862.15 c 0xf8e0
 610.093 918.029 565.872 1001.85 388.992 1001.85 c 2
 361.492 1001.85 l 1
 361.492 1114.73 l 1
 545.224 1119.53 577.093 1185.6 577.093 1232.85 c 0
 577.093 1283.03 528.292 1331.85 439.593 1331.85 c 0xf960
 360.592 1331.85 288.647 1297.65 252.768 1281.1 c 1
 209.37 1384.94 l 1
EndSplineSet
Fore
SplineSet
1587 1421 m 1xee
 1762 1421 l 1
 535 0 l 1
 359 0 l 1
 1587 1421 l 1xee
748 1421 m 1
 860 1421 l 1
 627 608 l 1
 494 608 l 1
 690 1291 l 1xf6
 539 1252 l 1
 543 1369 l 1
 748 1421 l 1
1643 842 m 0
 1772 842 1860 779 1860 679 c 0
 1860 662 1858 643 1852 624 c 0
 1794 422 1508 358 1342 116 c 1
 1720 116 l 1
 1687 0 l 1
 1156 0 l 1
 1177 72 l 1
 1371 398 1684 493 1717 608 c 0
 1719 616 1720 624 1720 632 c 0
 1720 683 1673 728 1593 728 c 0
 1550 728 1497 717 1373 673 c 1
 1360 773 l 1
 1433 804 1532 842 1643 842 c 0
EndSplineSet
Validated: 1
EndChar

StartChar: threequarters
Encoding: 190 190 123
Width: 1950
VWidth: 0
Flags: HW
CounterMasks: 1 38
LayerCount: 2
Fore
SplineSet
1747 1421 m 1xf660
 1922 1421 l 1
 695 0 l 1
 519 0 l 1
 1747 1421 l 1xf660
1781 836 m 1
 1938 836 l 1
 1785 305 l 1
 1892 305 l 1
 1861 195 l 1
 1754 195 l 1
 1698 0 l 1
 1565 0 l 1
 1621 195 l 1
 1231 195 l 1
 1256 284 l 1
 1781 836 l 1
1762 688 m 1
 1411 305 l 1
 1652 305 l 1
 1762 688 l 1
606 1385 m 1
 676 1415 771 1450 868 1450 c 0
 1006 1450 1067 1379 1067 1295 c 0
 1067 1215 1012 1124 918 1073 c 1
 978 1045 1001 999 1001 946 c 0
 1001 925 997 904 991 882 c 0
 943 713 771 601 588 601 c 0
 499 601 435 625 380 650 c 1
 448 756 l 1
 539 729 580 721 627 721 c 0
 729 721 833 778 857 862 c 0xf8e0
 861 876 863 888 863 899 c 0
 863 992 738 1002 648 1002 c 1
 681 1115 l 1
 865 1115 918 1186 931 1233 c 0
 933 1240 934 1247 934 1254 c 0
 934 1296 898 1332 822 1332 c 0xf960
 743 1332 661 1298 620 1281 c 1
 606 1385 l 1
EndSplineSet
Validated: 1
EndChar

StartChar: degree
Encoding: 176 176 124
Width: 589
Flags: HW
LayerCount: 2
Fore
SplineSet
687 1368 m 0
 612 1368 539 1306 519 1235 c 0
 515 1222 513 1209 513 1197 c 0
 513 1144 548 1101 611 1101 c 0
 685 1101 756 1166 776 1235 c 0
 780 1248 782 1261 782 1273 c 0
 782 1326 747 1368 687 1368 c 0
712 1459 m 0
 810 1459 877 1391 877 1297 c 0
 877 1277 874 1257 868 1235 c 0
 832 1110 705 1010 585 1010 c 0
 487 1010 420 1077 420 1172 c 0
 420 1192 423 1213 429 1235 c 0
 465 1359 592 1459 712 1459 c 0
EndSplineSet
Validated: 1
EndChar

StartChar: ccedilla
Encoding: 231 231 125
Width: 988
VWidth: 2097
Flags: HW
LayerCount: 2
Back
SplineSet
679 -335 m 0
 679 -262 596 -250 450 -205 c 1
 501 -14 l 1
 319 14 130 134 130 471 c 0
 130 875 380 1006 609 1006 c 0
 704 1006 799 985 886 947 c 1
 846 827 l 1
 776 851 703 865 629 865 c 0
 467 865 289 793 289 506 c 0
 289 193 474 115 647 115 c 0
 711 115 775 127 835 148 c 1
 875 35 l 1
 785 0 699 -15 627 -19 c 1
 595 -145 l 1
 641 -159 779 -188.136 779 -324.136 c 0
 779 -410.136 708 -507.136 575 -507.136 c 0
 501 -507.136 401 -472.136 347 -456.136 c 1
 373 -365.136 l 1
 493 -401.136 538 -412.136 579 -412.136 c 0
 643 -412.136 679 -375 679 -335 c 0
EndSplineSet
Fore
SplineSet
573 -326 m 0
 575 -318 576 -311 576 -304 c 0
 576 -250 502 -236 387 -196 c 1
 483 -20 l 1
 348 1 227 79 227 270 c 0
 227 322 236 382 256 452 c 0
 369 846 652 974 877 974 c 0
 970 974 1058 953 1133 915 c 1
 1060 797 l 1
 998 820 930 833 858 833 c 0
 699 833 505 764 425 486 c 0
 408 427 401 377 401 334 c 0
 401 157 531 108 667 108 c 0
 730 108 796 120 861 140 c 1
 868 28 l 1
 767 -7 677 -23 604 -26 c 1
 545 -136 l 1
 581 -148 683 -172 683 -268 c 0
 683 -282 681 -297 676 -315 c 0
 651 -401 553 -498 423 -498 c 0
 350 -498 262 -463 214 -447 c 1
 266 -356 l 1
 373 -392 413 -403 453 -403 c 0
 515 -403 562 -366 573 -326 c 0
EndSplineSet
Validated: 1
EndChar

StartChar: cedilla
Encoding: 184 184 126
Width: 1101
VWidth: 0
Flags: HW
LayerCount: 2
Fore
SplineSet
625 -325 m 0
 627 -317 628 -311 628 -304 c 0
 628 -249 552 -235 433 -195 c 1
 553 22 l 1
 680 22 l 1
 595 -135 l 1
 632 -147 735 -171 735 -267 c 0
 735 -281 733 -297 728 -314 c 0
 703 -400 604 -497 471 -497 c 0
 397 -497 307 -462 258 -446 c 1
 310 -355 l 1
 420 -391 462 -402 503 -402 c 0
 567 -402 614 -365 625 -325 c 0
EndSplineSet
Validated: 1
EndChar

StartChar: Ccedilla
Encoding: 199 199 127
Width: 1451
VWidth: 0
Flags: HW
LayerCount: 2
Back
SplineSet
1097.58 -315.784 m 0
 1097.58 -412.912 1016.21 -505.817 885.608 -505.817 c 0
 832.05 -505.817 797.986 -496.673 682.5 -462.706 c 2
 648.5 -452.706 l 1
 678.5 -348.706 l 1
 708.5 -357.706 l 2
 817.019 -389.693 856.083 -398.76 892.979 -398.76 c 0
 952.768 -398.76 985.135 -364.591 985.135 -328.141 c 0
 985.135 -265.58 905.118 -246.979 887.5 -241.706 c 2
 750.5 -200.706 l 1
 804.979 -2.12062 l 1
 471.326 71.2018 275 361.47 275 709 c 0
 275 1118 548 1431 986 1431 c 0
 1092 1431 1228 1412 1372 1355 c 1
 1320 1214 l 1
 1158 1270 1049 1281 981 1281 c 0
 650 1281 445 1007 445 710 c 0
 445 399 666 136 1018 136 c 0
 1114 136 1225 155 1339 196 c 1
 1391 70 l 1
 1247 8 1100 -20 975 -20 c 0
 965.479 -20 956.04 -19.8445 946.683 -19.5362 c 1
 917.516 -134.911 l 1
 937.638 -140.947 1097.58 -171.085 1097.58 -315.784 c 0
EndSplineSet
Fore
SplineSet
1007 -316 m 0
 979 -413 872 -506 741 -506 c 0
 694 -506 677 -504 518 -453 c 1
 578 -349 l 1
 692 -387 736 -399 779 -399 c 0
 839 -399 881 -364 891 -328 c 0
 893 -320 894 -313 894 -307 c 0
 894 -257 826 -245 692 -201 c 1
 804 -2 l 1
 554 56 442 252 442 481 c 0
 442 900 817 1431 1396 1431 c 0
 1502 1431 1633 1412 1761 1355 c 1
 1668 1214 l 1
 1522 1270 1416 1281 1348 1281 c 0
 1017 1281 734 1007 649 710 c 0
 632 650 623 592 623 537 c 0
 623 307 773 136 1057 136 c 0
 1153 136 1269 155 1395 196 c 1
 1411 70 l 1
 1249 8 1094 -20 969 -20 c 2
 941 -20 l 1
 879 -135 l 1
 895 -140 1014 -164 1014 -268 c 0
 1014 -282 1012 -299 1007 -316 c 0
EndSplineSet
Validated: 1
EndChar

StartChar: dieresis
Encoding: 168 168 128
Width: 1200
VWidth: 0
Flags: HW
LayerCount: 2
Fore
SplineSet
690 1421 m 1
 875 1421 l 1
 822 1235 l 1
 637 1235 l 1
 690 1421 l 1
1139 1421 m 1
 1324 1421 l 1
 1271 1235 l 1
 1086 1235 l 1
 1139 1421 l 1
EndSplineSet
Validated: 1
EndChar

StartChar: Adieresis
Encoding: 196 196 129
Width: 1383
VWidth: 0
Flags: HW
LayerCount: 2
Fore
SplineSet
1042 1421 m 1
 1235 1421 l 1
 1333 0 l 1
 1161 0 l 1
 1135 413 l 1
 549 413 l 1
 287 0 l 1
 130 0 l 1
 1042 1421 l 1
1084 1255 m 1
 643 562 l 1
 1126 562 l 1
 1084 1255 l 1
960 1897 m 1
 1145 1897 l 1
 1092 1712 l 1
 907 1712 l 1
 960 1897 l 1
1408 1897 m 1
 1593 1897 l 1
 1540 1712 l 1
 1355 1712 l 1
 1408 1897 l 1
EndSplineSet
Validated: 1
EndChar

StartChar: Edieresis
Encoding: 203 203 130
Width: 1283
VWidth: 2097
Flags: HW
LayerCount: 2
Fore
SplineSet
697 1421 m 1xfa
 1530 1421 l 1
 1487 1271 l 1
 824 1271 l 1
 691 807 l 1
 1299 807 l 1
 1256 657 l 1
 648 657 l 1
 503 150 l 1
 1166 150 l 1
 1123 0 l 1
 290 0 l 1
 697 1421 l 1xfa
934 1898 m 1xf6
 1119 1898 l 1
 1066 1713 l 1
 881 1713 l 1
 934 1898 l 1xf6
1382 1898 m 1
 1567 1898 l 1
 1514 1713 l 1
 1329 1713 l 1
 1382 1898 l 1
EndSplineSet
Validated: 1
EndChar

StartChar: Idieresis
Encoding: 207 207 131
Width: 670
VWidth: 0
Flags: HW
CounterMasks: 1 1c
LayerCount: 2
Fore
SplineSet
697 1421 m 1
 867 1421 l 1
 460 0 l 1
 290 0 l 1
 697 1421 l 1
611 1824 m 1
 796 1824 l 1
 743 1639 l 1
 558 1639 l 1
 611 1824 l 1
1000 1824 m 1
 1185 1824 l 1
 1132 1639 l 1
 947 1639 l 1
 1000 1824 l 1
EndSplineSet
Validated: 1
EndChar

StartChar: Odieresis
Encoding: 214 214 132
Width: 1686
VWidth: 0
Flags: HW
LayerCount: 2
Fore
SplineSet
1296 1436 m 0
 1600 1436 1796 1262 1796 966 c 0
 1796 893 1784 813 1759 727 c 0
 1632 284 1264 -15 873 -15 c 0
 601 -15 380 140 380 458 c 0
 380 532 392 615 418 707 c 0
 546 1154 913 1436 1296 1436 c 0
1579 709 m 0
 1601 787 1611 856 1611 917 c 0
 1611 1175 1433 1287 1241 1287 c 0
 1013 1287 711 1117 599 728 c 0
 577 650 566 579 566 514 c 0
 566 277 708 134 928 134 c 0
 1159 134 1464 308 1579 709 c 0
1120 1898 m 1
 1305 1898 l 1
 1252 1713 l 1
 1067 1713 l 1
 1120 1898 l 1
1569 1898 m 1
 1754 1898 l 1
 1701 1713 l 1
 1516 1713 l 1
 1569 1898 l 1
EndSplineSet
Validated: 1
EndChar

StartChar: Udieresis
Encoding: 220 220 133
Width: 1580
VWidth: 0
Flags: HW
LayerCount: 2
Fore
SplineSet
697 1421 m 1
 867 1421 l 1
 603 500 l 2
 592 460 577 404 577 348 c 0
 577 238 632 127 866 127 c 0
 1162 127 1286 301 1343 500 c 2
 1607 1421 l 1
 1777 1421 l 1
 1508 483 l 2
 1462 324 1356 -20 817 -20 c 0
 470 -20 392 133 392 280 c 0
 392 357 413 431 428 483 c 2
 697 1421 l 1
1057 1898 m 1
 1242 1898 l 1
 1189 1713 l 1
 1004 1713 l 1
 1057 1898 l 1
1506 1898 m 1
 1691 1898 l 1
 1638 1713 l 1
 1453 1713 l 1
 1506 1898 l 1
EndSplineSet
Validated: 1
EndChar

StartChar: adieresis
Encoding: 228 228 134
Width: 1062
VWidth: 0
Flags: HW
LayerCount: 2
Fore
SplineSet
1106 1421 m 1x39
 1291 1421 l 1
 1237 1235 l 1
 1052 1235 l 1
 1106 1421 l 1x39
663 1421 m 1x3a
 848 1421 l 1
 795 1235 l 1
 610 1235 l 1
 663 1421 l 1x3a
836 424 m 1xbc80
 776 424 l 2
 625 424 403 415 360 264 c 0
 357 254 356 244 356 234 c 0
 356 166 424 109 526 109 c 0
 548 109 655 111 773 206 c 1
 836 424 l 1xbc80
782 981 m 0
 1009 981 1085 898 1085 774 c 0
 1085 733 1077 688 1063 640 c 2
 879 0 l 1
 763 0 l 1x7c80
 751 90 l 1
 669 30 558 -20 445 -20 c 0
 284 -20 184 77 184 195 c 0
 184 215 187 235 193 256 c 0
 263 499 555 547 871 547 c 1
 893 623 l 2
 901 650 909 683 909 715 c 0
 909 782 872 846 717 846 c 0
 624 846 501 817 444 803 c 1
 447 921 l 1
 580 966 695 981 782 981 c 0
EndSplineSet
Validated: 1
EndChar

StartChar: edieresis
Encoding: 235 235 135
Width: 1095
VWidth: 0
Flags: HW
LayerCount: 2
Fore
SplineSet
880 982 m 0xfd
 1090 982 1149 877 1149 746 c 0
 1149 662 1124 566 1100 481 c 2
 1078 405 l 1
 408 405 l 1
 402 383 398 360 398 338 c 0
 398 222 486 111 688 111 c 0
 772 111 860 130 921 146 c 1
 918 35 l 1
 825 6 709 -20 589 -20 c 0
 313 -20 229 116 229 276 c 0
 229 333 239 393 256 450 c 0
 363 824 650 982 880 982 c 0xfd
804 840 m 0
 622 840 487 682 443 529 c 1
 955 529 l 1
 970 580 979 631 979 675 c 0
 979 771 935 840 804 840 c 0
699 1421 m 1
 884 1421 l 1
 831 1235 l 1
 646 1235 l 1
 699 1421 l 1
1142 1421 m 1xfe
 1327 1421 l 1
 1273 1235 l 1
 1088 1235 l 1
 1142 1421 l 1xfe
EndSplineSet
Validated: 1
EndChar

StartChar: idieresis
Encoding: 239 239 136
Width: 523
VWidth: 0
Flags: HW
CounterMasks: 1 1c
LayerCount: 2
Fore
SplineSet
463 988 m 1
 627 988 l 1
 344 0 l 1
 180 0 l 1
 463 988 l 1
392 1421 m 1
 577 1421 l 1
 524 1236 l 1
 339 1236 l 1
 392 1421 l 1
761 1421 m 1
 946 1421 l 1
 893 1236 l 1
 708 1236 l 1
 761 1421 l 1
EndSplineSet
Validated: 1
EndChar

StartChar: odieresis
Encoding: 246 246 137
Width: 1203
VWidth: 0
Flags: HW
LayerCount: 2
Fore
SplineSet
886 982 m 0xfa
 1097 982 1239 870 1239 664 c 0
 1239 615 1231 561 1214 501 c 0
 1121 178 862 -20 582 -20 c 0
 369 -20 236 97 236 301 c 0
 236 352 244 409 262 471 c 0
 352 785 603 982 886 982 c 0xfa
832 842 m 0
 683 842 495 725 430 498 c 0
 417 452 410 408 410 367 c 0
 410 223 491 120 640 120 c 0
 810 120 985 258 1045 469 c 0
 1058 516 1065 559 1065 598 c 0
 1065 759 957 842 832 842 c 0
722 1421 m 1
 907 1421 l 1
 854 1235 l 1
 669 1235 l 1
 722 1421 l 1
1165 1421 m 1xfc
 1350 1421 l 1
 1297 1235 l 1
 1112 1235 l 1
 1165 1421 l 1xfc
EndSplineSet
Validated: 1
EndChar

StartChar: udieresis
Encoding: 252 252 138
Width: 1170
VWidth: 0
Flags: HW
LayerCount: 2
Fore
SplineSet
1105 988 m 1xb9
 1269 988 l 1
 986 0 l 1
 871 0 l 1x79
 860 83 l 1
 683 -1 559 -20 485 -20 c 0
 306 -20 253 70 253 187 c 0
 253 252 270 327 290 398 c 2
 459 988 l 1
 623 988 l 1
 450 386 l 2
 443 362 431 318 431 274 c 0
 431 202 463 127 598 127 c 0
 691 127 797 166 880 204 c 1
 1105 988 l 1xb9
679 1421 m 1x34
 864 1421 l 1
 811 1235 l 1
 626 1235 l 1
 679 1421 l 1x34
1120 1421 m 1x32
 1305 1421 l 1
 1252 1235 l 1
 1067 1235 l 1
 1120 1421 l 1x32
EndSplineSet
Validated: 1
EndChar

StartChar: ydieresis
Encoding: 255 255 139
Width: 1043
VWidth: 0
Flags: HW
LayerCount: 2
Fore
SplineSet
332 988 m 1xea
 502 988 l 1
 575 150 l 1
 1106 988 l 1
 1276 988 l 1
 276 -531 l 1
 101 -531 l 1
 445 -38 l 1
 332 988 l 1xea
627 1421 m 1xf0
 812 1421 l 1
 759 1235 l 1
 574 1235 l 1
 627 1421 l 1xf0
1070 1421 m 1xe4
 1255 1421 l 1
 1202 1235 l 1
 1017 1235 l 1
 1070 1421 l 1xe4
EndSplineSet
Validated: 1
EndChar

StartChar: dotlessi
Encoding: 305 305 140
Width: 524
VWidth: 2097
Flags: HW
LayerCount: 2
Fore
SplineSet
456 963 m 1
 620 963 l 1
 344 0 l 1
 180 0 l 1
 456 963 l 1
EndSplineSet
Validated: 1
EndChar

StartChar: Agrave
Encoding: 192 192 141
Width: 1383
VWidth: 0
Flags: HW
LayerCount: 2
Fore
SplineSet
1042 1421 m 1
 1235 1421 l 1
 1333 0 l 1
 1161 0 l 1
 1135 413 l 1
 549 413 l 1
 287 0 l 1
 130 0 l 1
 1042 1421 l 1
1084 1255 m 1
 643 562 l 1
 1126 562 l 1
 1084 1255 l 1
1079 1929 m 25
 1494 1619 l 25
 1401 1511 l 25
 974 1806 l 25
 1079 1929 l 25
EndSplineSet
Validated: 1
EndChar

StartChar: Aacute
Encoding: 193 193 142
Width: 1383
VWidth: 0
Flags: HW
LayerCount: 2
Fore
SplineSet
1042 1421 m 1
 1235 1421 l 1
 1333 0 l 1
 1161 0 l 1
 1135 413 l 1
 549 413 l 1
 287 0 l 1
 130 0 l 1
 1042 1421 l 1
1084 1255 m 1
 643 562 l 1
 1126 562 l 1
 1084 1255 l 1
1487 1929 m 1
 1522 1806 l 1
 925 1511 l 1
 894 1619 l 1
 1487 1929 l 1
EndSplineSet
Validated: 1
EndChar

StartChar: Acircumflex
Encoding: 194 194 143
Width: 1383
VWidth: 0
Flags: HW
LayerCount: 2
Fore
SplineSet
1042 1421 m 1
 1235 1421 l 1
 1333 0 l 1
 1161 0 l 1
 1135 413 l 1
 549 413 l 1
 287 0 l 1
 130 0 l 1
 1042 1421 l 1
1084 1255 m 1
 643 562 l 1
 1126 562 l 1
 1084 1255 l 1
1303 1924 m 1
 1477 1638 l 1
 1358 1550 l 1
 1239 1746 l 1
 1002 1551 l 1
 936 1629 l 1
 1303 1924 l 1
EndSplineSet
Validated: 1
EndChar

StartChar: Atilde
Encoding: 195 195 144
Width: 1383
VWidth: 0
Flags: HW
LayerCount: 2
Fore
SplineSet
1547 1878 m 1
 1650 1861 l 1
 1592 1741 1528 1574 1366 1574 c 0
 1207 1574 1184 1754 1100 1754 c 0
 1025 1754 987 1656 947 1574 c 1
 844 1589 l 1
 902 1709 966 1876 1128 1876 c 0
 1287 1876 1310 1696 1394 1696 c 0
 1469 1696 1507 1796 1547 1878 c 1
1084 1255 m 1
 643 562 l 1
 1126 562 l 1
 1084 1255 l 1
1042 1421 m 1
 1235 1421 l 1
 1333 0 l 1
 1161 0 l 1
 1135 413 l 1
 549 413 l 1
 287 0 l 1
 130 0 l 1
 1042 1421 l 1
EndSplineSet
Validated: 1
EndChar

StartChar: Aring
Encoding: 197 197 145
Width: 1383
VWidth: 0
Flags: HW
LayerCount: 2
Fore
SplineSet
1270 1873 m 0
 1389 1873 1472 1795 1472 1686 c 0
 1472 1665 1469 1642 1462 1618 c 0
 1432 1513 1341 1423 1238 1383 c 1
 1333 0 l 1
 1161 0 l 1
 1135 413 l 1
 549 413 l 1
 287 0 l 1
 130 0 l 1
 1019 1385 l 1
 953 1420 924 1480 924 1545 c 0
 924 1694 1074 1873 1270 1873 c 0
1242 1769 m 0
 1152 1769 1065 1699 1042 1618 c 0
 1038 1604 1036 1590 1036 1576 c 0
 1036 1515 1078 1465 1155 1465 c 0
 1244 1465 1328 1539 1351 1618 c 0
 1355 1632 1357 1646 1357 1659 c 0
 1357 1720 1315 1769 1242 1769 c 0
1084 1255 m 1
 643 562 l 1
 1126 562 l 1
 1084 1255 l 1
EndSplineSet
Validated: 1
EndChar

StartChar: uni00B2
Encoding: 178 178 146
Width: 800
VWidth: 0
Flags: HW
LayerCount: 2
Fore
SplineSet
807 1524 m 0
 924 1524 1003 1466 1003 1375 c 0
 1003 1359 1001 1343 996 1325 c 0
 943 1141 684 1083 533 863 c 1
 876 863 l 1
 846 758 l 1
 364 758 l 1
 383 823 l 1
 560 1119 844 1206 874 1311 c 0
 876 1318 877 1326 877 1333 c 0
 877 1380 833 1421 761 1421 c 0
 722 1421 672 1410 560 1370 c 1
 549 1461 l 1
 615 1490 706 1524 807 1524 c 0
EndSplineSet
Validated: 1
EndChar

StartChar: uni00B3
Encoding: 179 179 147
Width: 800
VWidth: 2097
Flags: HW
CounterMasks: 1 e0
LayerCount: 2
Fore
SplineSet
558 1462 m 1xf0
 619 1488 703 1521 795 1521 c 0
 921 1521 977 1456 977 1380 c 0
 977 1308 928 1226 841 1179 c 1
 892 1155 916 1111 916 1059 c 0
 916 928 765 750 542 750 c 0
 461 750 402 771 353 794 c 1
 413 890 l 1
 496 865 533 859 576 859 c 0
 669 859 764 911 786 988 c 0xe8
 790 1001 791 1012 791 1022 c 0
 791 1106 678 1114 596 1114 c 1
 626 1217 l 1
 793 1217 841 1281 853 1324 c 0
 855 1331 856 1338 856 1344 c 0
 856 1382 822 1414 753 1414 c 0
 685 1414 614 1386 570 1368 c 1
 558 1462 l 1xf0
EndSplineSet
Validated: 1
EndChar

StartChar: acute
Encoding: 180 180 148
Width: 1122
VWidth: 2097
Flags: HW
LayerCount: 2
Fore
SplineSet
1232 1585 m 1
 1267 1462 l 1
 671 1167 l 1
 640 1275 l 1
 1232 1585 l 1
EndSplineSet
Validated: 1
EndChar

StartChar: uni00B9
Encoding: 185 185 149
Width: 543
VWidth: 0
Flags: HW
LayerCount: 2
Fore
SplineSet
684 1511 m 1
 776 1511 l 1
 561 760 l 1
 448 760 l 1
 632 1403 l 1
 476 1362 l 1
 478 1459 l 1
 684 1511 l 1
EndSplineSet
Validated: 1
EndChar

StartChar: ordmasculine
Encoding: 186 186 150
Width: 751
VWidth: 2097
Flags: HW
LayerCount: 2
Fore
SplineSet
779 1416 m 0
 690 1416 570 1361 509 1149 c 0
 492 1090 485 1041 485 1003 c 0
 485 878 560 852 620 852 c 0
 703 852 828 903 897 1142 c 0
 912 1194 918 1236 918 1271 c 0
 918 1391 842 1416 779 1416 c 0
811 1519 m 0
 903 1519 1037 1485 1037 1303 c 0
 1037 1259 1030 1207 1012 1145 c 0
 940 895 761 752 589 752 c 0
 468 752 366 807 366 972 c 0
 366 1020 374 1077 394 1146 c 0
 467 1399 657 1519 811 1519 c 0
EndSplineSet
Validated: 1
EndChar

StartChar: Egrave
Encoding: 200 200 151
Width: 1283
VWidth: 0
Flags: HW
LayerCount: 2
Fore
SplineSet
697 1421 m 1
 1530 1421 l 1
 1487 1271 l 1
 824 1271 l 1
 691 807 l 1
 1299 807 l 1
 1256 657 l 1
 648 657 l 1
 503 150 l 1
 1166 150 l 1
 1123 0 l 1
 290 0 l 1
 697 1421 l 1
1032 1929 m 1
 1447 1619 l 1
 1353 1511 l 1
 926 1806 l 1
 1032 1929 l 1
EndSplineSet
Validated: 1
EndChar

StartChar: Eacute
Encoding: 201 201 152
Width: 1283
VWidth: 0
Flags: HW
LayerCount: 2
Fore
SplineSet
697 1421 m 1
 1530 1421 l 1
 1487 1271 l 1
 824 1271 l 1
 691 807 l 1
 1299 807 l 1
 1256 657 l 1
 648 657 l 1
 503 150 l 1
 1166 150 l 1
 1123 0 l 1
 290 0 l 1
 697 1421 l 1
1505 1929 m 1
 1540 1806 l 1
 943 1511 l 1
 912 1619 l 1
 1505 1929 l 1
EndSplineSet
Validated: 1
EndChar

StartChar: Ecircumflex
Encoding: 202 202 153
Width: 1283
VWidth: 0
Flags: HW
LayerCount: 2
Fore
SplineSet
697 1421 m 1
 1530 1421 l 1
 1487 1271 l 1
 824 1271 l 1
 691 807 l 1
 1299 807 l 1
 1256 657 l 1
 648 657 l 1
 503 150 l 1
 1166 150 l 1
 1123 0 l 1
 290 0 l 1
 697 1421 l 1
1274 1932 m 1
 1448 1646 l 1
 1329 1558 l 1
 1210 1754 l 1
 973 1559 l 1
 907 1637 l 1
 1274 1932 l 1
EndSplineSet
Validated: 1
EndChar

StartChar: Icircumflex
Encoding: 206 206 154
Width: 730
VWidth: 0
Flags: HW
LayerCount: 2
Fore
SplineSet
727 1421 m 1
 897 1421 l 1
 490 0 l 1
 320 0 l 1
 727 1421 l 1
944 1924 m 1
 1118 1638 l 1
 998 1550 l 1
 880 1746 l 1
 643 1551 l 1
 577 1629 l 1
 944 1924 l 1
EndSplineSet
Validated: 1
EndChar

StartChar: Igrave
Encoding: 204 204 155
Width: 730
VWidth: 0
Flags: HW
LayerCount: 2
Fore
SplineSet
727 1421 m 1
 897 1421 l 1
 490 0 l 1
 320 0 l 1
 727 1421 l 1
760 1927 m 25
 1175 1617 l 25
 1081 1511 l 25
 653 1804 l 25
 760 1927 l 25
EndSplineSet
Validated: 1
EndChar

StartChar: Iacute
Encoding: 205 205 156
Width: 730
VWidth: 0
Flags: HW
LayerCount: 2
Fore
SplineSet
727 1421 m 1
 897 1421 l 1
 490 0 l 1
 320 0 l 1
 727 1421 l 1
1108 1930 m 1
 1143 1807 l 1
 546 1511 l 1
 516 1620 l 1
 1108 1930 l 1
EndSplineSet
Validated: 1
EndChar

StartChar: Ntilde
Encoding: 209 209 157
Width: 1659
VWidth: 0
Flags: HW
LayerCount: 2
Fore
SplineSet
1271 1876 m 0
 1430 1876 1453 1696 1537 1696 c 0
 1612 1696 1651 1796 1691 1878 c 1
 1794 1861 l 1
 1736 1741 1671 1574 1509 1574 c 0
 1350 1574 1327 1754 1243 1754 c 0
 1168 1754 1131 1654 1091 1572 c 1
 988 1589 l 1
 1046 1709 1109 1876 1271 1876 c 0
697 1421 m 1
 912 1421 l 1
 1346 232 l 1
 1686 1421 l 1
 1856 1421 l 1
 1449 0 l 1
 1234 0 l 1
 802 1191 l 1
 460 0 l 1
 290 0 l 1
 697 1421 l 1
EndSplineSet
Validated: 1
EndChar

StartChar: Ograve
Encoding: 210 210 158
Width: 1686
VWidth: 0
Flags: HW
LayerCount: 2
Fore
SplineSet
1296 1436 m 0
 1600 1436 1796 1262 1796 966 c 0
 1796 893 1784 813 1759 727 c 0
 1632 284 1264 -15 873 -15 c 0
 601 -15 380 140 380 458 c 0
 380 532 392 615 418 707 c 0
 546 1154 913 1436 1296 1436 c 0
1579 709 m 0
 1601 787 1611 856 1611 917 c 0
 1611 1175 1433 1287 1241 1287 c 0
 1013 1287 711 1117 599 728 c 0
 577 650 566 579 566 514 c 0
 566 277 708 134 928 134 c 0
 1159 134 1464 308 1579 709 c 0
1291 1932 m 25
 1706 1622 l 25
 1612 1514 l 25
 1185 1809 l 25
 1291 1932 l 25
EndSplineSet
Validated: 1
EndChar

StartChar: Oacute
Encoding: 211 211 159
Width: 1686
VWidth: 0
Flags: HW
LayerCount: 2
Fore
SplineSet
1296 1436 m 0
 1600 1436 1796 1262 1796 966 c 0
 1796 893 1784 813 1759 727 c 0
 1632 284 1264 -15 873 -15 c 0
 601 -15 380 140 380 458 c 0
 380 532 392 615 418 707 c 0
 546 1154 913 1436 1296 1436 c 0
1579 709 m 0
 1601 787 1611 856 1611 917 c 0
 1611 1175 1433 1287 1241 1287 c 0
 1013 1287 711 1117 599 728 c 0
 577 650 566 579 566 514 c 0
 566 277 708 134 928 134 c 0
 1159 134 1464 308 1579 709 c 0
1660 1930 m 1
 1695 1807 l 1
 1098 1511 l 1
 1068 1620 l 1
 1660 1930 l 1
EndSplineSet
Validated: 1
EndChar

StartChar: Ocircumflex
Encoding: 212 212 160
Width: 1686
VWidth: 0
Flags: HW
LayerCount: 2
Fore
SplineSet
1296 1436 m 0
 1600 1436 1796 1262 1796 966 c 0
 1796 893 1784 813 1759 727 c 0
 1632 284 1264 -15 873 -15 c 0
 601 -15 380 140 380 458 c 0
 380 532 392 615 418 707 c 0
 546 1154 913 1436 1296 1436 c 0
1579 709 m 0
 1601 787 1611 856 1611 917 c 0
 1611 1175 1433 1287 1241 1287 c 0
 1013 1287 711 1117 599 728 c 0
 577 650 566 579 566 514 c 0
 566 277 708 134 928 134 c 0
 1159 134 1464 308 1579 709 c 0
1464 1924 m 1
 1638 1638 l 1
 1519 1550 l 1
 1400 1746 l 1
 1163 1551 l 1
 1097 1629 l 1
 1464 1924 l 1
EndSplineSet
Validated: 1
EndChar

StartChar: Otilde
Encoding: 213 213 161
Width: 1686
VWidth: 0
Flags: HW
LayerCount: 2
Fore
SplineSet
1708 1878 m 1
 1811 1861 l 1
 1753 1741 1688 1574 1526 1574 c 0
 1367 1574 1344 1754 1260 1754 c 0
 1185 1754 1148 1654 1108 1572 c 1
 1005 1589 l 1
 1063 1709 1127 1876 1289 1876 c 0
 1448 1876 1471 1696 1555 1696 c 0
 1630 1696 1668 1796 1708 1878 c 1
1579 709 m 0
 1601 787 1611 857 1611 918 c 0
 1611 1174 1435 1287 1241 1287 c 0
 1013 1287 711 1117 599 728 c 0
 577 650 566 579 566 514 c 0
 566 277 708 134 928 134 c 0
 1159 134 1464 308 1579 709 c 0
1296 1436 m 0
 1600 1436 1796 1262 1796 966 c 0
 1796 893 1784 813 1759 727 c 0
 1632 284 1264 -15 873 -15 c 0
 601 -15 380 140 380 458 c 0
 380 532 392 615 418 707 c 0
 546 1154 913 1436 1296 1436 c 0
EndSplineSet
Validated: 1
EndChar

StartChar: Ugrave
Encoding: 217 217 162
Width: 1580
VWidth: 0
Flags: HW
LayerCount: 2
Fore
SplineSet
697 1421 m 1
 867 1421 l 1
 603 500 l 2
 592 460 577 404 577 348 c 0
 577 238 632 127 866 127 c 0
 1162 127 1286 301 1343 500 c 2
 1607 1421 l 1
 1777 1421 l 1
 1508 483 l 2
 1462 324 1356 -20 817 -20 c 0
 470 -20 392 133 392 280 c 0
 392 357 413 431 428 483 c 2
 697 1421 l 1
1177 1927 m 1
 1592 1617 l 1
 1498 1511 l 1
 1070 1804 l 1
 1177 1927 l 1
EndSplineSet
Validated: 1
EndChar

StartChar: Uacute
Encoding: 218 218 163
Width: 1580
VWidth: 0
Flags: HW
LayerCount: 2
Fore
SplineSet
697 1421 m 1
 867 1421 l 1
 603 500 l 2
 592 460 577 404 577 348 c 0
 577 238 632 127 866 127 c 0
 1162 127 1286 301 1343 500 c 2
 1607 1421 l 1
 1777 1421 l 1
 1508 483 l 2
 1462 324 1356 -20 817 -20 c 0
 470 -20 392 133 392 280 c 0
 392 357 413 431 428 483 c 2
 697 1421 l 1
1617 1930 m 1
 1652 1807 l 1
 1055 1511 l 1
 1025 1620 l 1
 1617 1930 l 1
EndSplineSet
Validated: 1
EndChar

StartChar: Ucircumflex
Encoding: 219 219 164
Width: 1580
VWidth: 0
Flags: HW
LayerCount: 2
Fore
SplineSet
697 1421 m 1
 867 1421 l 1
 603 500 l 2
 592 460 577 404 577 348 c 0
 577 238 632 127 866 127 c 0
 1162 127 1286 301 1343 500 c 2
 1607 1421 l 1
 1777 1421 l 1
 1508 483 l 2
 1462 324 1356 -20 817 -20 c 0
 470 -20 392 133 392 280 c 0
 392 357 413 431 428 483 c 2
 697 1421 l 1
1396 1924 m 1
 1570 1638 l 1
 1450 1550 l 1
 1332 1746 l 1
 1095 1551 l 1
 1029 1629 l 1
 1396 1924 l 1
EndSplineSet
Validated: 1
EndChar

StartChar: Yacute
Encoding: 221 221 165
Width: 1263
VWidth: 0
Flags: HW
LayerCount: 2
Fore
SplineSet
507 1421 m 1
 708 1421 l 1
 902 834 l 1
 1440 1421 l 1
 1630 1421 l 1
 932 673 l 1
 739 0 l 1
 569 0 l 1
 762 673 l 1
 507 1421 l 1
1424 1930 m 1
 1459 1807 l 1
 862 1511 l 1
 832 1620 l 1
 1424 1930 l 1
EndSplineSet
Validated: 1
EndChar

StartChar: agrave
Encoding: 224 224 166
Width: 1058
VWidth: 0
Flags: HW
LayerCount: 2
Fore
SplineSet
780 981 m 0xbc
 1005 981 1080 899 1080 775 c 0
 1080 734 1072 688 1058 640 c 2
 875 0 l 1
 759 0 l 1x7c
 747 90 l 1
 665 30 554 -20 442 -20 c 0
 282 -20 184 76 184 194 c 0
 184 214 187 235 193 256 c 0
 263 499 553 547 867 547 c 1
 889 623 l 2
 897 650 905 684 905 716 c 0
 905 783 869 846 715 846 c 0
 623 846 501 817 444 803 c 1
 447 921 l 1
 579 966 693 981 780 981 c 0xbc
832 424 m 1
 772 424 l 2
 623 424 403 415 360 264 c 0
 357 254 356 244 356 234 c 0
 356 166 423 109 524 109 c 0xbc
 545 109 652 111 769 206 c 1
 832 424 l 1
879 1539 m 1
 1139 1200 l 1
 1029 1095 l 1
 757 1425 l 1
 879 1539 l 1
EndSplineSet
Validated: 1
EndChar

StartChar: aacute
Encoding: 225 225 167
Width: 1058
VWidth: 0
Flags: HW
LayerCount: 2
Fore
SplineSet
1107 1549 m 1x3c
 1165 1435 l 1
 703 1106 l 1
 655 1210 l 1
 1107 1549 l 1x3c
832 424 m 1
 772 424 l 2
 623 424 403 415 360 264 c 0
 357 254 356 244 356 234 c 0
 356 166 423 109 524 109 c 0xbc
 545 109 652 111 769 206 c 1
 832 424 l 1
780 981 m 0
 1005 981 1080 899 1080 775 c 0
 1080 734 1072 688 1058 640 c 2
 875 0 l 1
 759 0 l 1x7c
 747 90 l 1
 665 30 554 -20 442 -20 c 0
 282 -20 184 76 184 194 c 0
 184 214 187 235 193 256 c 0
 263 499 553 547 867 547 c 1
 889 623 l 2
 897 650 905 684 905 716 c 0
 905 783 869 846 715 846 c 0
 623 846 501 817 444 803 c 1
 447 921 l 1
 579 966 693 981 780 981 c 0
EndSplineSet
Validated: 1
EndChar

StartChar: acircumflex
Encoding: 226 226 168
Width: 1058
VWidth: 0
Flags: HW
LayerCount: 2
Fore
SplineSet
962 1490 m 1x3c
 1127 1189 l 1
 1008 1097 l 1
 896 1303 l 1
 660 1098 l 1
 597 1180 l 1
 962 1490 l 1x3c
832 424 m 1
 772 424 l 2
 623 424 403 415 360 264 c 0
 357 254 356 244 356 234 c 0
 356 166 423 109 524 109 c 0xbc
 545 109 652 111 769 206 c 1
 832 424 l 1
780 981 m 0
 1005 981 1080 899 1080 775 c 0
 1080 734 1072 688 1058 640 c 2
 875 0 l 1
 759 0 l 1x7c
 747 90 l 1
 665 30 554 -20 442 -20 c 0
 282 -20 184 76 184 194 c 0
 184 214 187 235 193 256 c 0
 263 499 553 547 867 547 c 1
 889 623 l 2
 897 650 905 684 905 716 c 0
 905 783 869 846 715 846 c 0
 623 846 501 817 444 803 c 1
 447 921 l 1
 579 966 693 981 780 981 c 0
EndSplineSet
Validated: 1
EndChar

StartChar: atilde
Encoding: 227 227 169
Width: 1057
VWidth: 0
Flags: HW
LayerCount: 2
Fore
SplineSet
1202 1444 m 1x3f
 1305 1427 l 1
 1263 1340 l 2
 1241 1295 1170 1132 1022 1132 c 0
 866 1132 845 1320 763 1320 c 0
 691 1320 648 1210 636 1184 c 2
 612 1132 l 1
 508 1147 l 1
 550 1235 l 2
 572 1281 643 1442 791 1442 c 0
 947 1442 966 1254 1049 1254 c 0
 1121 1254 1165 1364 1177 1390 c 2
 1202 1444 l 1x3f
832 424 m 1
 772 424 l 2
 623 424 403 415 360 264 c 0
 357 254 356 244 356 234 c 0
 356 166 423 109 524 109 c 0xbf
 545 109 652 111 769 206 c 1
 832 424 l 1
780 981 m 0
 1005 981 1080 899 1080 775 c 0
 1080 734 1072 688 1058 640 c 2
 875 0 l 1
 759 0 l 1x7f
 747 90 l 1
 665 30 554 -20 442 -20 c 0
 282 -20 184 76 184 194 c 0
 184 214 187 235 193 256 c 0
 263 499 553 547 867 547 c 1
 889 623 l 2
 897 650 905 684 905 716 c 0
 905 783 869 846 715 846 c 0
 623 846 501 817 444 803 c 1
 447 921 l 1
 579 966 693 981 780 981 c 0
EndSplineSet
Validated: 1
EndChar

StartChar: aring
Encoding: 229 229 170
Width: 1061
VWidth: 0
Flags: HW
LayerCount: 2
Fore
SplineSet
969 1482 m 0x3f80
 896 1482 823 1416 801 1340 c 0
 797 1325 795 1310 795 1296 c 0
 795 1241 827 1198 887 1198 c 0
 959 1198 1031 1267 1052 1340 c 0
 1056 1355 1058 1369 1058 1383 c 0
 1058 1438 1026 1482 969 1482 c 0x3f80
994 1573 m 0
 1090 1573 1154 1504 1154 1408 c 0
 1154 1387 1151 1364 1144 1340 c 0
 1107 1210 979 1107 861 1107 c 0
 766 1107 701 1175 701 1271 c 0
 701 1293 704 1316 711 1340 c 0
 748 1469 876 1573 994 1573 c 0
835 424 m 1xbf40
 775 424 l 2
 625 424 403 415 360 264 c 0
 357 254 356 244 356 234 c 0
 356 166 423 109 525 109 c 0
 547 109 654 111 772 206 c 1
 835 424 l 1xbf40
782 981 m 0
 1008 981 1084 898 1084 774 c 0
 1084 733 1076 688 1062 640 c 2
 878 0 l 1
 762 0 l 1x7f40
 750 90 l 1
 668 30 557 -20 444 -20 c 0
 283 -20 184 76 184 194 c 0
 184 214 187 235 193 256 c 0
 263 499 554 547 870 547 c 1
 892 623 l 2
 900 651 908 684 908 716 c 0
 908 783 872 846 717 846 c 0
 624 846 501 817 444 803 c 1
 447 921 l 1
 580 966 695 981 782 981 c 0
EndSplineSet
Validated: 1
EndChar

StartChar: egrave
Encoding: 232 232 171
Width: 1088
VWidth: 0
Flags: HW
LayerCount: 2
Fore
SplineSet
876 982 m 0
 1084 982 1143 877 1143 746 c 0
 1143 661 1118 566 1094 481 c 2
 1072 405 l 1
 406 405 l 1
 400 383 396 360 396 338 c 0
 396 222 484 111 684 111 c 0
 767 111 854 130 914 146 c 1
 912 35 l 1
 820 6 704 -20 585 -20 c 0
 312 -20 229 116 229 275 c 0
 229 332 239 392 256 450 c 0
 363 824 648 982 876 982 c 0
801 840 m 0
 622 840 489 682 445 529 c 1
 948 529 l 1
 963 581 973 632 973 677 c 0
 973 772 929 840 801 840 c 0
897 1549 m 25
 1155 1210 l 25
 1047 1106 l 25
 774 1435 l 25
 897 1549 l 25
EndSplineSet
Validated: 1
EndChar

StartChar: eacute
Encoding: 233 233 172
Width: 1088
VWidth: 0
Flags: HW
LayerCount: 2
Fore
SplineSet
876 982 m 0
 1084 982 1143 877 1143 746 c 0
 1143 661 1118 566 1094 481 c 2
 1072 405 l 1
 406 405 l 1
 400 383 396 360 396 338 c 0
 396 222 484 111 684 111 c 0
 767 111 854 130 914 146 c 1
 912 35 l 1
 820 6 704 -20 585 -20 c 0
 312 -20 229 116 229 275 c 0
 229 332 239 392 256 450 c 0
 363 824 648 982 876 982 c 0
801 840 m 0
 622 840 489 682 445 529 c 1
 948 529 l 1
 963 581 973 632 973 677 c 0
 973 772 929 840 801 840 c 0
1205 1549 m 25
 1263 1435 l 25
 801 1106 l 25
 753 1210 l 25
 1205 1549 l 25
EndSplineSet
Validated: 1
EndChar

StartChar: ecircumflex
Encoding: 234 234 173
Width: 1088
VWidth: 0
Flags: HW
LayerCount: 2
Fore
SplineSet
876 982 m 0
 1084 982 1143 877 1143 746 c 0
 1143 661 1118 566 1094 481 c 2
 1072 405 l 1
 406 405 l 1
 400 383 396 360 396 338 c 0
 396 222 484 111 684 111 c 0
 767 111 854 130 914 146 c 1
 912 35 l 1
 820 6 704 -20 585 -20 c 0
 312 -20 229 116 229 275 c 0
 229 332 239 392 256 450 c 0
 363 824 648 982 876 982 c 0
801 840 m 0
 622 840 489 682 445 529 c 1
 948 529 l 1
 963 581 973 632 973 677 c 0
 973 772 929 840 801 840 c 0
1047 1490 m 1
 1212 1189 l 1
 1093 1097 l 1
 980 1303 l 1
 745 1098 l 1
 683 1180 l 1
 1047 1490 l 1
EndSplineSet
Validated: 1
EndChar

StartChar: igrave
Encoding: 236 236 174
Width: 516
VWidth: 0
Flags: HW
LayerCount: 2
Fore
SplineSet
459 988 m 1
 623 988 l 1
 340 0 l 1
 176 0 l 1
 459 988 l 1
534 1549 m 25
 800 1225 l 25
 693 1125 l 25
 413 1440 l 25
 534 1549 l 25
EndSplineSet
Validated: 1
EndChar

StartChar: iacute
Encoding: 237 237 175
Width: 516
VWidth: 0
Flags: HW
LayerCount: 2
Fore
SplineSet
459 988 m 1
 623 988 l 1
 340 0 l 1
 176 0 l 1
 459 988 l 1
912 1549 m 25
 971 1440 l 25
 510 1125 l 25
 460 1225 l 25
 912 1549 l 25
EndSplineSet
Validated: 1
EndChar

StartChar: icircumflex
Encoding: 238 238 176
Width: 522
VWidth: 0
Flags: HW
LayerCount: 2
Fore
SplineSet
459 988 m 1
 623 988 l 1
 340 0 l 1
 176 0 l 1
 459 988 l 1
691 1490 m 5
 831 1204 l 5
 715 1116 l 5
 624 1302 l 5
 422 1117 l 5
 359 1195 l 5
 691 1490 l 5
EndSplineSet
Validated: 1
EndChar

StartChar: ograve
Encoding: 242 242 177
Width: 1195
VWidth: 0
Flags: HW
LayerCount: 2
Fore
SplineSet
964 1549 m 1
 1222 1210 l 1
 1114 1106 l 1
 842 1435 l 1
 964 1549 l 1
828 842 m 0
 681 842 495 725 430 498 c 0
 417 452 410 407 410 366 c 0
 410 223 489 120 636 120 c 0
 804 120 976 258 1036 469 c 0
 1050 517 1056 561 1056 600 c 0
 1056 760 951 842 828 842 c 0
881 982 m 0
 1090 982 1231 871 1231 665 c 0
 1231 616 1223 561 1206 501 c 0
 1113 178 855 -20 578 -20 c 0
 367 -20 236 97 236 300 c 0
 236 352 244 409 262 471 c 0
 352 785 601 982 881 982 c 0
EndSplineSet
Validated: 1
EndChar

StartChar: oacute
Encoding: 243 243 178
Width: 1195
VWidth: 0
Flags: HW
LayerCount: 2
Fore
SplineSet
881 982 m 0
 1090 982 1231 871 1231 665 c 0
 1231 616 1223 561 1206 501 c 0
 1113 178 855 -20 578 -20 c 0
 367 -20 236 97 236 300 c 0
 236 352 244 409 262 471 c 0
 352 785 601 982 881 982 c 0
828 842 m 0
 681 842 495 725 430 498 c 0
 417 452 410 407 410 366 c 0
 410 223 489 120 636 120 c 0
 804 120 976 258 1036 469 c 0
 1050 517 1056 561 1056 600 c 0
 1056 760 951 842 828 842 c 0
1137 1549 m 25
 1194 1435 l 25
 732 1106 l 25
 684 1210 l 25
 1137 1549 l 25
EndSplineSet
Validated: 1
EndChar

StartChar: ocircumflex
Encoding: 244 244 179
Width: 1195
VWidth: 0
Flags: HW
LayerCount: 2
Fore
SplineSet
881 982 m 0
 1090 982 1231 871 1231 665 c 0
 1231 616 1223 561 1206 501 c 0
 1113 178 855 -20 578 -20 c 0
 367 -20 236 97 236 300 c 0
 236 352 244 409 262 471 c 0
 352 785 601 982 881 982 c 0
828 842 m 0
 681 842 495 725 430 498 c 0
 417 452 410 407 410 366 c 0
 410 223 489 120 636 120 c 0
 804 120 976 258 1036 469 c 0
 1050 517 1056 561 1056 600 c 0
 1056 760 951 842 828 842 c 0
1040 1490 m 1
 1203 1189 l 1
 1087 1097 l 1
 974 1303 l 1
 738 1098 l 1
 676 1180 l 1
 1040 1490 l 1
EndSplineSet
Validated: 1
EndChar

StartChar: otilde
Encoding: 245 245 180
Width: 1198
VWidth: 0
Flags: HW
LayerCount: 2
Fore
SplineSet
1266 1448 m 1xf6
 1369 1431 l 1
 1310 1308 1246 1136 1087 1136 c 0
 931 1136 911 1324 829 1324 c 0
 756 1324 718 1221 678 1136 c 1
 574 1151 l 1
 633 1274 697 1446 856 1446 c 0
 1012 1446 1032 1258 1114 1258 c 0
 1187 1258 1226 1363 1266 1448 c 1xf6
829 842 m 0
 681 842 495 725 430 498 c 0
 417 452 410 408 410 367 c 0
 410 223 490 120 638 120 c 0
 807 120 979 258 1039 469 c 0xf9
 1053 517 1059 560 1059 599 c 0
 1059 759 953 842 829 842 c 0
883 982 m 0
 1092 982 1234 870 1234 664 c 0
 1234 615 1226 561 1209 501 c 0
 1116 178 858 -20 580 -20 c 0
 369 -20 236 97 236 301 c 0
 236 352 244 409 262 471 c 0
 352 785 602 982 883 982 c 0
EndSplineSet
Validated: 1
EndChar

StartChar: ugrave
Encoding: 249 249 181
Width: 1164
VWidth: 0
Flags: HW
LayerCount: 2
Fore
SplineSet
1100 988 m 1xb8
 1264 988 l 1
 980 0 l 1
 865 0 l 1x78
 854 83 l 1
 679 -1 556 -20 482 -20 c 0
 305 -20 253 70 253 186 c 0
 253 252 269 326 290 398 c 2
 459 988 l 1
 623 988 l 1
 450 386 l 2
 443 362 431 318 431 273 c 0
 431 201 462 127 595 127 c 0
 687 127 793 166 875 204 c 1
 1100 988 l 1xb8
913 1549 m 1
 1176 1225 l 1
 1069 1125 l 1
 792 1440 l 1
 913 1549 l 1
EndSplineSet
Validated: 1
EndChar

StartChar: uacute
Encoding: 250 250 182
Width: 1164
VWidth: 0
Flags: HW
LayerCount: 2
Fore
SplineSet
1100 988 m 1xb8
 1264 988 l 1
 980 0 l 1
 865 0 l 1x78
 854 83 l 1
 679 -1 556 -20 482 -20 c 0
 305 -20 253 70 253 186 c 0
 253 252 269 326 290 398 c 2
 459 988 l 1
 623 988 l 1
 450 386 l 2
 443 362 431 318 431 273 c 0
 431 201 462 127 595 127 c 0
 687 127 793 166 875 204 c 1
 1100 988 l 1xb8
1195 1549 m 25
 1254 1440 l 25
 797 1125 l 25
 747 1225 l 25
 1195 1549 l 25
EndSplineSet
Validated: 1
EndChar

StartChar: ucircumflex
Encoding: 251 251 183
Width: 1164
VWidth: 0
Flags: HW
LayerCount: 2
Fore
SplineSet
1100 988 m 1xb8
 1264 988 l 1
 980 0 l 1
 865 0 l 1x78
 854 83 l 1
 679 -1 556 -20 482 -20 c 0
 305 -20 253 70 253 186 c 0
 253 252 269 326 290 398 c 2
 459 988 l 1
 623 988 l 1
 450 386 l 2
 443 362 431 318 431 273 c 0
 431 201 462 127 595 127 c 0
 687 127 793 166 875 204 c 1
 1100 988 l 1xb8
1027 1490 m 1
 1196 1204 l 1
 1079 1116 l 1
 963 1312 l 1
 731 1117 l 1
 667 1195 l 1
 1027 1490 l 1
EndSplineSet
Validated: 1
EndChar

StartChar: yacute
Encoding: 253 253 184
Width: 1039
VWidth: 0
Flags: HW
LayerCount: 2
Fore
SplineSet
332 988 m 1
 502 988 l 1
 574 150 l 1
 1101 988 l 1
 1271 988 l 1
 276 -531 l 1
 101 -531 l 1
 444 -38 l 1
 332 988 l 1
1200 1549 m 1
 1259 1440 l 1
 801 1125 l 1
 751 1225 l 1
 1200 1549 l 1
EndSplineSet
Validated: 1
EndChar

StartChar: ntilde
Encoding: 241 241 185
Width: 1164
VWidth: 0
Flags: HW
LayerCount: 2
Fore
SplineSet
452 963 m 1xbe
 567 963 l 1xbe
 579 879 l 1
 754 963 876 983 950 983 c 0
 1128 983 1181 894 1181 779 c 0
 1181 715 1165 644 1145 575 c 2
 980 0 l 25
 815 0 l 1
 982 583 l 2
 989 608 1001 650 1001 693 c 0
 1001 763 970 835 836 835 c 0xde
 745 835 640 798 558 761 c 1
 340 0 l 1
 176 0 l 1
 452 963 l 1xbe
1286 1449 m 1
 1389 1432 l 1
 1347 1344 l 2
 1325 1299 1254 1136 1106 1136 c 0
 950 1136 929 1324 847 1324 c 0
 775 1324 733 1215 721 1189 c 2
 696 1136 l 1
 593 1152 l 1
 635 1240 l 2
 657 1286 727 1446 875 1446 c 0
 1031 1446 1050 1258 1132 1258 c 0
 1204 1258 1248 1369 1260 1395 c 2
 1286 1449 l 1
EndSplineSet
Validated: 1
EndChar

StartChar: eth
Encoding: 240 240 186
Width: 1236
VWidth: 2097
Flags: HW
LayerCount: 2
Fore
SplineSet
424 481 m 0
 411 438 406 397 406 359 c 0
 406 213 494 114 627 114 c 0
 721 114 899 167 1010 436 c 0
 1039 505 1060 575 1075 629 c 2
 1093 691 l 1
 967 789 873 807 810 807 c 0
 645 807 480 676 424 481 c 0
922 1458 m 1
 1017 1429 1102 1380 1168 1313 c 1
 1378 1418 l 1
 1405 1323 l 1
 1229 1236 l 1
 1279 1158 1300 1074 1300 981 c 0
 1300 891 1281 794 1250 687 c 0
 1146 326 979 -20 573 -20 c 0
 327 -20 227 116 227 286 c 0
 227 568 500 943 826 943 c 0
 892 943 989 928 1125 834 c 1
 1130 868 1133 900 1133 931 c 0
 1133 1013 1113 1085 1064 1153 c 1
 860 1050 l 1
 834 1145 l 1
 996 1227 l 1
 947 1271 889 1305 825 1330 c 1
 922 1458 l 1
EndSplineSet
Validated: 1
EndChar

StartChar: thorn
Encoding: 254 254 187
Width: 1206
VWidth: 2097
Flags: HW
LayerCount: 2
Back
SplineSet
611 862 m 4
 380 862 345 644 345 467 c 4
 345 361 359 117 615 117 c 4
 741 117 931 207 931 481 c 4
 931 732 765 862 611 862 c 4
639 1003 m 4
 884 1003 1091 821 1091 510 c 4
 1091 200 892 -23 630 -23 c 4
 531 -23 429 14 354 84 c 5
 354 -531 l 5
 190 -531 l 5
 190 1421 l 5
 354 1421 l 5
 354 885 l 5
 428 968 535 1003 639 1003 c 4
EndSplineSet
Fore
SplineSet
840 837 m 0
 615 837 520 626 471 455 c 0
 460 416 445 357 445 299 c 0
 445 207 483 117 637 117 c 0
 760 117 970 204 1046 469 c 0
 1060 516 1066 560 1066 598 c 0
 1066 756 961 837 840 837 c 0
909 978 m 0
 1102 978 1239 863 1239 659 c 0
 1239 610 1231 556 1214 497 c 0
 1127 194 870 -23 613 -23 c 0
 516 -23 426 14 373 84 c 1
 197 -531 l 1
 33 -531 l 1
 593 1421 l 1
 757 1421 l 1
 596 860 l 1
 692 943 807 978 909 978 c 0
EndSplineSet
Validated: 1
EndChar

StartChar: Eth
Encoding: 208 208 188
Width: 1605
VWidth: 2097
Flags: HW
LayerCount: 2
Fore
SplineSet
742 1421 m 1
 1177 1421 l 2
 1327 1421 1745 1401 1745 992 c 0
 1745 924 1733 845 1707 754 c 0
 1500 33 946 0 706 0 c 2
 335 0 l 1
 524 658 l 1
 306 658 l 1
 349 808 l 1
 567 808 l 1
 742 1421 l 1
869 1271 m 1
 737 808 l 1
 993 808 l 1
 950 658 l 1
 694 658 l 1
 548 150 l 1
 755 150 l 2
 987 150 1373 188 1526 720 c 0
 1544 782 1556 850 1556 916 c 0
 1556 1100 1463 1271 1145 1271 c 2
 869 1271 l 1
EndSplineSet
Validated: 1
EndChar

StartChar: Oslash
Encoding: 216 216 189
Width: 1756
VWidth: 0
Flags: HW
LayerCount: 2
Fore
SplineSet
1296 1436 m 0
 1470 1436 1636 1374 1726 1233 c 1
 1960 1409 l 1
 2004 1344 l 1
 1761 1162 l 1
 1785 1099 1795 1032 1795 966 c 0
 1795 882 1780 799 1759 727 c 0
 1632 284 1264 -15 873 -15 c 0
 580 -15 471 157 454 182 c 1
 216 5 l 1
 174 70 l 1
 417 252 l 1
 390 317 380 387 380 457 c 0
 380 544 396 631 418 707 c 0
 546 1154 913 1436 1296 1436 c 0
1566 1114 m 1
 1504 1228 1384 1287 1244 1287 c 0
 1010 1287 710 1115 599 728 c 0
 581 667 566 591 566 513 c 0
 566 468 571 421 584 377 c 1
 1566 1114 l 1
928 134 m 0
 1159 134 1464 308 1579 709 c 0
 1599 780 1612 851 1612 919 c 0
 1612 960 1607 1000 1597 1038 c 1
 615 302 l 1
 677 191 792 134 928 134 c 0
EndSplineSet
Validated: 1
EndChar

StartChar: logicalnot
Encoding: 172 172 190
Width: 1400
VWidth: 2097
Flags: HW
LayerCount: 2
Fore
SplineSet
335 732 m 1
 1485 732 l 1
 1356 282 l 1
 1208 282 l 1
 1294 583 l 1
 292 583 l 1
 335 732 l 1
EndSplineSet
Validated: 1
EndChar

StartChar: macron
Encoding: 175 175 191
Width: 1400
VWidth: 2097
Flags: HW
LayerCount: 2
Fore
SplineSet
755 1640 m 1
 1585 1640 l 1
 1543 1491 l 1
 713 1491 l 1
 755 1640 l 1
EndSplineSet
Validated: 1
EndChar

StartChar: ordfeminine
Encoding: 170 170 192
Width: 759
VWidth: 2097
Flags: HW
CounterMasks: 1 e0
LayerCount: 2
Fore
SplineSet
828 1102 m 1
 835 1125 l 2
 838 1136 843 1155 843 1175 c 0
 843 1214 824 1259 734 1259 c 0
 678 1259 595 1242 560 1232 c 1
 562 1303 l 1
 631 1326 702 1339 769 1339 c 0
 917 1339 950 1275 950 1214 c 0
 950 1183 941 1153 935 1131 c 2
 828 760 l 1
 758 760 l 1
 752 814 l 1
 700 771 641 742 584 742 c 0
 488 742 425 784 425 863 c 0
 425 879 428 896 433 915 c 0
 478 1073 604 1102 828 1102 c 1
805 1019 m 1
 777 1019 l 2
 688 1019 559 1014 531 917 c 0
 529 910 528 903 528 896 c 0
 528 858 559 822 622 822 c 0
 672 822 726 854 771 902 c 1
 805 1019 l 1
EndSplineSet
Validated: 1
EndChar

StartChar: Thorn
Encoding: 222 222 193
Width: 1326
VWidth: 2097
Flags: HW
LayerCount: 2
Fore
SplineSet
971 1008 m 0
 896 1008 822 1005 746 998 c 1
 598 483 l 1
 694 475 756 474 791 474 c 2
 819 474 l 2
 959 474 1201 481 1279 752 c 0
 1288 783 1292 810 1292 834 c 0
 1292 993 1113 1008 971 1008 c 0
697 1421 m 1
 867 1421 l 1
 789 1147 l 1
 882 1156 970 1160 1062 1160 c 0
 1299 1160 1482 1107 1482 913 c 0
 1482 877 1476 837 1463 791 c 0
 1419 639 1301 424 1055 358 c 0
 988 340 880 326 717 326 c 0
 662 326 609 328 555 332 c 1
 460 0 l 1
 290 0 l 1
 697 1421 l 1
EndSplineSet
Validated: 1
EndChar

StartChar: quotedblleft
Encoding: 8220 8220 194
Width: 830
VWidth: 2097
Flags: HW
LayerCount: 2
Fore
SplineSet
1173 1511 m 5x88
 924 1078 l 5
 729 1078 l 5x90
 978 1511 l 5
 1173 1511 l 5x88
793 1511 m 5xa0
 544 1078 l 5
 349 1078 l 5xc0
 598 1511 l 5
 793 1511 l 5xa0
EndSplineSet
Validated: 1
EndChar

StartChar: quotedblright
Encoding: 8221 8221 195
Width: 830
VWidth: 2097
Flags: HW
LayerCount: 2
Fore
SplineSet
978 1511 m 5x88
 1173 1511 l 5x88
 924 1078 l 5
 729 1078 l 5x90
 978 1511 l 5x88
598 1511 m 5xa0
 793 1511 l 5xa0
 544 1078 l 5
 349 1078 l 5xc0
 598 1511 l 5xa0
EndSplineSet
Validated: 1
EndChar

StartChar: Ydieresis
Encoding: 376 376 196
Width: 1263
VWidth: 0
Flags: HW
LayerCount: 2
Fore
SplineSet
507 1421 m 1
 708 1421 l 1
 902 834 l 1
 1440 1421 l 1
 1630 1421 l 1
 932 673 l 1
 739 0 l 1
 569 0 l 1
 762 673 l 1
 507 1421 l 1
1337 1898 m 1
 1522 1898 l 1
 1469 1713 l 1
 1284 1713 l 1
 1337 1898 l 1
887 1898 m 1
 1072 1898 l 1
 1019 1713 l 1
 834 1713 l 1
 887 1898 l 1
EndSplineSet
Validated: 1
EndChar

StartChar: zcaron
Encoding: 382 382 197
Width: 1058
VWidth: 0
Flags: HW
LayerCount: 2
Fore
SplineSet
422 963 m 1
 1157 963 l 1
 1132 876 l 1
 391 129 l 1
 942 129 l 1
 905 0 l 1
 146 0 l 1
 171 87 l 1
 910 834 l 1
 385 834 l 1
 422 963 l 1
823 1106 m 1
 660 1406 l 1
 777 1498 l 1
 889 1293 l 1
 1124 1497 l 1
 1187 1417 l 1
 823 1106 l 1
EndSplineSet
Validated: 1
EndChar

StartChar: Zcaron
Encoding: 381 381 198
Width: 1358
VWidth: 0
Flags: HW
LayerCount: 2
Fore
SplineSet
592 1421 m 1
 1678 1421 l 1
 1647 1312 l 1
 424 150 l 1
 1341 150 l 1
 1298 0 l 1
 155 0 l 1
 187 111 l 1
 1392 1271 l 1
 549 1271 l 1
 592 1421 l 1
1164 1558 m 1
 990 1844 l 1
 1108 1932 l 1
 1228 1736 l 1
 1465 1931 l 1
 1530 1853 l 1
 1164 1558 l 1
EndSplineSet
Validated: 1
EndChar

StartChar: Scaron
Encoding: 352 352 199
Width: 1361
VWidth: 0
Flags: HW
LayerCount: 2
Fore
SplineSet
1186 1558 m 1
 1012 1844 l 1
 1130 1932 l 1
 1250 1736 l 1
 1487 1931 l 1
 1552 1853 l 1
 1186 1558 l 1
1232 1434 m 0
 1360 1434 1481 1406 1569 1377 c 1
 1469 1222 l 1
 1428 1235 1297 1274 1172 1274 c 0
 979 1274 793 1184 755 1050 c 0
 750 1034 748 1018 748 1004 c 0
 748 772 1350 821 1350 493 c 0
 1350 464 1345 432 1335 397 c 0
 1283 214 1067 -20 666 -20 c 0
 497 -20 384 22 262 76 c 1
 367 241 l 1
 531 173 651 148 735 148 c 0
 935 148 1104 235 1143 372 c 0
 1149 391 1151 409 1151 425 c 0
 1151 674 548 609 548 930 c 0
 548 958 552 988 562 1022 c 0
 625 1242 895 1434 1232 1434 c 0
EndSplineSet
Validated: 1
EndChar

StartChar: scaron
Encoding: 353 353 200
Width: 1005
VWidth: 0
Flags: HW
LayerCount: 2
Fore
SplineSet
838 1105 m 1
 673 1406 l 1
 792 1498 l 1
 904 1292 l 1
 1140 1497 l 1
 1205 1417 l 1
 838 1105 l 1
862 982 m 0
 988 982 1034 963 1098 942 c 1
 1020 818 l 1
 961 835 897 854 799 854 c 0
 595 854 534 749 522 706 c 0
 520 699 519 692 519 686 c 0
 519 548 970 560 970 333 c 0
 970 315 967 296 961 275 c 0
 926 154 798 -20 452 -20 c 0
 379 -20 268 -4 143 55 c 1
 223 177 l 1
 339 130 411 109 495 109 c 0
 612 109 742 135 778 260 c 0
 780 268 781 276 781 283 c 0
 781 426 339 391 339 626 c 0
 339 646 342 668 349 692 c 0
 380 800 522 982 862 982 c 0
EndSplineSet
Validated: 1
EndChar

StartChar: Euro
Encoding: 8364 8364 201
Width: 1335
VWidth: 2097
Flags: HW
LayerCount: 2
Fore
SplineSet
417 504 m 1xf4
 195 504 l 1
 232 634 l 1
 436 634 l 1
 442 656 456 741 504 848 c 1
 357 848 l 1
 394 978 l 1
 570 978 l 1
 734 1253 1005 1431 1300 1431 c 0
 1439 1431 1550 1393 1627 1355 c 1
 1539 1214 l 1
 1385 1280 1284 1281 1254 1281 c 0
 1054 1281 864 1157 737 978 c 1
 1188 978 l 1
 1151 848 l 1
 660 848 l 1
 640 808 605 722 590 634 c 1
 1026 634 l 1
 989 504 l 1
 581 504 l 1
 588 298 709 136 957 136 c 0
 1044 136 1143 153 1264 196 c 1
 1275 70 l 1
 1169 25 1024 -20 874 -20 c 0
 579 -20 415 170 415 452 c 0
 415 469 416 486 417 504 c 1xf4
EndSplineSet
Validated: 1
EndChar

StartChar: emdash
Encoding: 8212 8212 202
Width: 1384
VWidth: 2097
Flags: HW
LayerCount: 2
Fore
SplineSet
209 728 m 1
 1593 728 l 1
 1553 589 l 1
 169 589 l 1
 209 728 l 1
EndSplineSet
Validated: 1
EndChar

StartChar: endash
Encoding: 8211 8211 203
Width: 1159
VWidth: 2097
Flags: HW
LayerCount: 2
Fore
SplineSet
209 728 m 1
 1368 728 l 1
 1328 589 l 1
 169 589 l 1
 209 728 l 1
EndSplineSet
Validated: 1
EndChar

StartChar: afii00208
Encoding: 8213 8213 204
Width: 1600
VWidth: 2097
Flags: HW
LayerCount: 2
Fore
SplineSet
209 728 m 1
 1809 728 l 1
 1769 589 l 1
 169 589 l 1
 209 728 l 1
EndSplineSet
Validated: 1
EndChar

StartChar: ellipsis
Encoding: 8230 8230 205
Width: 1720
VWidth: 2097
Flags: HW
CounterMasks: 1 70
LayerCount: 2
Fore
SplineSet
240 210 m 1
 450 210 l 1
 390 0 l 1
 180 0 l 1
 240 210 l 1
805 210 m 1
 1015 210 l 1
 955 0 l 1
 745 0 l 1
 805 210 l 1
1370 210 m 1
 1580 210 l 1
 1520 0 l 1
 1310 0 l 1
 1370 210 l 1
EndSplineSet
Validated: 1
EndChar

StartChar: bullet
Encoding: 8226 8226 206
Width: 640
VWidth: 2097
Flags: HW
LayerCount: 2
Fore
SplineSet
437 863 m 1
 697 863 l 1
 623 603 l 1
 363 603 l 1
 437 863 l 1
EndSplineSet
Validated: 1
EndChar

StartChar: interrobang
Encoding: 8253 8253 207
Width: 1046
VWidth: 2097
Flags: HW
LayerCount: 2
Fore
SplineSet
368 200 m 1xe8
 568 200 l 1
 511 0 l 1
 311 0 l 1
 368 200 l 1xe8
835 1437 m 0
 1020 1437 1207 1388 1207 1200 c 0
 1207 1169 1201 1134 1190 1094 c 0
 1079 708 694 726 598 392 c 1
 448 392 l 1
 646 1080 l 1
 796 1080 l 1
 702 755 l 1xd8
 798 823 974 918 1018 1071 c 0
 1023 1089 1026 1108 1026 1127 c 0
 1026 1210 969 1294 778 1294 c 0
 714 1294 616 1285 510 1247 c 1
 493 1369 l 1
 594 1412 707 1437 835 1437 c 0
EndSplineSet
Validated: 1
EndChar

StartChar: quoteleft
Encoding: 8216 8216 208
Width: 450
VWidth: 2097
Flags: HW
LayerCount: 2
Fore
SplineSet
523 1511 m 1xc0
 718 1511 l 1xc0
 719 1078 l 1
 524 1078 l 1xa0
 523 1511 l 1xc0
EndSplineSet
Validated: 1
EndChar

StartChar: quoteright
Encoding: 8217 8217 209
Width: 450
VWidth: 2097
Flags: HW
LayerCount: 2
Fore
SplineSet
598 1511 m 5xa0
 793 1511 l 5xa0
 544 1078 l 5
 349 1078 l 5xc0
 598 1511 l 5xa0
EndSplineSet
Validated: 1
EndChar

StartChar: fraction
Encoding: 8260 8260 210
Width: 1036
VWidth: 0
Flags: HW
LayerCount: 2
Fore
SplineSet
1248 1421 m 1
 1423 1421 l 1
 196 0 l 1
 20 0 l 1
 1248 1421 l 1
EndSplineSet
Validated: 1
EndChar

StartChar: florin
Encoding: 402 402 211
Width: 801
VWidth: 2097
Flags: HW
LayerCount: 2
Fore
SplineSet
382 963 m 1
 547 963 l 1
 580 1076 l 2
 597 1136 620 1210 676 1278 c 0
 755 1375 874 1429 1005 1429 c 0
 1091 1429 1174 1408 1228 1390 c 1
 1168 1266 l 1
 1140 1275 1081 1292 1020 1292 c 0
 809 1292 758 1121 742 1065 c 2
 713 963 l 1
 1036 963 l 1
 999 834 l 1
 676 834 l 1
 373 -223 l 2
 347 -315 272 -541 -38 -541 c 0
 -124 -541 -206 -520 -260 -502 c 1
 -201 -380 l 1
 -173 -388 -114 -404 -53 -404 c 0
 153 -404 196 -263 213 -203 c 2
 510 834 l 1
 345 834 l 1
 382 963 l 1
EndSplineSet
Validated: 1
EndChar

StartChar: guilsinglleft
Encoding: 8249 8249 212
Width: 565
VWidth: 2097
Flags: HW
LayerCount: 2
Fore
SplineSet
612 988 m 1
 798 988 l 1
 420 623 l 1
 589 258 l 1
 404 258 l 1
 254 623 l 1
 612 988 l 1
EndSplineSet
Validated: 1
EndChar

StartChar: guilsinglright
Encoding: 8250 8250 213
Width: 565
VWidth: 2097
Flags: HW
LayerCount: 2
Fore
SplineSet
333 988 m 1
 518 988 l 1
 669 623 l 1
 310 258 l 1
 124 258 l 1
 503 623 l 1
 333 988 l 1
EndSplineSet
Validated: 1
EndChar

StartChar: dagger
Encoding: 8224 8224 214
Width: 942
VWidth: 2097
Flags: HW
LayerCount: 2
Fore
SplineSet
441 148 m 9
 736 1176 l 1
 504 1166 l 1
 536 1276 l 1
 762 1266 l 1
 832 1511 l 1
 975 1511 l 1
 905 1266 l 1
 1138 1276 l 1
 1106 1166 l 1
 879 1176 l 1
 584 148 l 17
 441 148 l 9
EndSplineSet
Validated: 1
EndChar

StartChar: daggerdbl
Encoding: 8225 8225 215
Width: 942
VWidth: 2097
Flags: HW
LayerCount: 2
Fore
SplineSet
426 95 m 1
 736 1176 l 1
 504 1166 l 1
 536 1276 l 1
 762 1266 l 1
 832 1511 l 1
 975 1511 l 1
 905 1266 l 1
 1138 1276 l 1
 1106 1166 l 1
 879 1176 l 1
 569 95 l 1
 802 105 l 1
 771 -5 l 1
 543 5 l 1
 473 -240 l 1
 330 -240 l 1
 400 5 l 1
 169 -5 l 1
 200 105 l 1
 426 95 l 1
EndSplineSet
Validated: 1
EndChar

StartChar: quotesinglbase
Encoding: 8218 8218 216
Width: 450
VWidth: 2097
Flags: HW
LayerCount: 2
Fore
SplineSet
227 217 m 1xa0
 422 217 l 1xa0
 173 -216 l 1
 -22 -216 l 1xc0
 227 217 l 1xa0
EndSplineSet
Validated: 1
EndChar

StartChar: quotedblbase
Encoding: 8222 8222 217
Width: 830
VWidth: 2097
Flags: HW
LayerCount: 2
Fore
SplineSet
606 214 m 1x88
 801 214 l 1x88
 552 -219 l 1
 357 -219 l 1x90
 606 214 l 1x88
226 214 m 1xa0
 421 214 l 1xa0
 172 -219 l 1
 -23 -219 l 1xc0
 226 214 l 1xa0
EndSplineSet
Validated: 1
EndChar

StartChar: perthousand
Encoding: 8240 8240 218
Width: 1920
VWidth: 2097
Flags: HW
CounterMasks: 1 005c
LayerCount: 2
Fore
SplineSet
1461 1421 m 1xfeec
 1631 1421 l 1
 255 0 l 1
 85 0 l 1
 1461 1421 l 1xfeec
1761 623 m 0
 1829 623 1929 598 1929 464 c 0
 1929 433 1924 395 1911 351 c 0
 1859 169 1727 66 1600 66 c 0
 1511 66 1435 106 1435 227 c 0
 1435 262 1441 303 1455 352 c 0
 1508 536 1647 623 1761 623 c 0
1732 527 m 0
 1673 527 1592 492 1552 353 c 0
 1541 315 1537 284 1537 259 c 0
 1537 176 1588 159 1628 159 c 0
 1684 159 1767 192 1812 348 c 0
 1822 382 1826 409 1826 431 c 0
 1826 510 1774 527 1732 527 c 0
1154 623 m 0
 1222 623 1322 598 1322 464 c 0
 1322 433 1317 395 1304 351 c 0xfcdc
 1252 169 1120 66 993 66 c 0
 904 66 828 106 828 227 c 0
 828 262 834 303 848 352 c 0
 901 536 1040 623 1154 623 c 0
1125 527 m 0
 1066 527 985 492 945 353 c 0
 934 315 930 284 930 259 c 0
 930 176 981 159 1021 159 c 0
 1077 159 1160 192 1205 348 c 0
 1215 382 1219 409 1219 431 c 0
 1219 510 1167 527 1125 527 c 0
718 1363 m 0
 786 1363 885 1339 885 1206 c 0
 885 1175 880 1137 867 1092 c 0
 815 910 684 806 557 806 c 0
 468 806 391 846 391 968 c 0
 391 1003 397 1044 411 1093 c 0xfdcc
 464 1277 604 1363 718 1363 c 0
690 1268 m 0
 631 1268 550 1233 510 1094 c 0
 499 1056 494 1025 494 1000 c 0
 494 917 545 900 585 900 c 0
 641 900 724 933 769 1089 c 0
 779 1123 783 1150 783 1173 c 0
 783 1252 732 1268 690 1268 c 0
EndSplineSet
Validated: 1
EndChar

StartChar: circumflex
Encoding: 710 710 219
Width: 1479
VWidth: 2097
Flags: HW
LayerCount: 2
Fore
SplineSet
1167 1541 m 1
 1341 1255 l 1
 1223 1167 l 1
 1103 1363 l 1
 866 1168 l 1
 800 1246 l 1
 1167 1541 l 1
EndSplineSet
Validated: 1
EndChar

StartChar: tilde
Encoding: 732 732 220
Width: 1400
VWidth: 2097
Flags: HW
LayerCount: 2
Fore
SplineSet
1270 1361 m 0
 1341 1361 1394 1445 1471 1543 c 1
 1563 1496 l 1
 1480 1389 1379 1239 1235 1239 c 0
 1077 1239 1059 1421 967 1421 c 0
 896 1421 843 1335 766 1237 c 1
 674 1284 l 1
 757 1391 858 1543 1002 1543 c 0
 1160 1543 1178 1361 1270 1361 c 0
EndSplineSet
Validated: 1
EndChar

StartChar: ring
Encoding: 730 730 221
Width: 1084
VWidth: 0
Flags: HW
LayerCount: 2
Fore
SplineSet
1006 1482 m 0
 931 1482 858 1420 838 1349 c 0
 834 1336 832 1322 832 1310 c 0
 832 1257 866 1215 929 1215 c 0
 1003 1215 1075 1280 1095 1349 c 0
 1099 1362 1101 1375 1101 1387 c 0
 1101 1440 1066 1482 1006 1482 c 0
1031 1573 m 0
 1129 1573 1196 1505 1196 1411 c 0
 1196 1391 1193 1371 1187 1349 c 0
 1151 1224 1023 1124 903 1124 c 0
 805 1124 739 1192 739 1286 c 0
 739 1306 742 1327 748 1349 c 0
 784 1473 911 1573 1031 1573 c 0
EndSplineSet
Validated: 1
EndChar

StartChar: breve
Encoding: 728 728 222
Width: 1078
VWidth: 0
Flags: HW
LayerCount: 2
Fore
SplineSet
543 1382 m 1
 685 1448 l 1
 701 1367 754 1261 884 1261 c 0
 1002 1261 1139 1358 1233 1448 c 1
 1323 1371 l 1
 1188 1241 997 1123 828 1123 c 0
 640 1123 553 1256 543 1382 c 1
EndSplineSet
Validated: 1
EndChar

StartChar: caron
Encoding: 711 711 223
Width: 1078
VWidth: 0
Flags: HW
LayerCount: 2
Fore
SplineSet
841 1124 m 1
 667 1410 l 1
 786 1498 l 1
 905 1302 l 1
 1142 1497 l 1
 1208 1421 l 1
 841 1124 l 1
EndSplineSet
Validated: 1
EndChar

StartChar: dotaccent
Encoding: 729 729 224
Width: 1200
VWidth: 0
Flags: HW
LayerCount: 2
Fore
SplineSet
898 1442 m 1
 1108 1442 l 1
 1048 1232 l 1
 838 1232 l 1
 898 1442 l 1
EndSplineSet
Validated: 1
EndChar

StartChar: trademark
Encoding: 8482 8482 225
Width: 1424
VWidth: 2097
Flags: HW
CounterMasks: 1 70
LayerCount: 2
Fore
SplineSet
653 943 m 1
 555 943 l 1
 695 1431 l 1
 520 1431 l 1
 543 1511 l 1
 991 1511 l 1
 968 1431 l 1
 793 1431 l 1
 653 943 l 1
1123 1511 m 1
 1239 1511 l 1
 1320 1194 l 1
 1577 1511 l 1
 1697 1511 l 1
 1534 943 l 1
 1436 943 l 1
 1564 1389 l 1
 1320 1095 l 1
 1252 1095 l 1
 1187 1393 l 1
 1058 943 l 1
 960 943 l 1
 1123 1511 l 1
EndSplineSet
Validated: 1
EndChar

StartChar: Amacron
Encoding: 256 256 226
Width: 1383
VWidth: 0
Flags: HW
LayerCount: 2
Fore
SplineSet
1042 1421 m 1
 1235 1421 l 1
 1333 0 l 1
 1161 0 l 1
 1135 413 l 1
 549 413 l 1
 287 0 l 1
 130 0 l 1
 1042 1421 l 1
1084 1255 m 1
 643 562 l 1
 1126 562 l 1
 1084 1255 l 1
851 1697 m 1
 1591 1697 l 1
 1554 1568 l 1
 814 1568 l 1
 851 1697 l 1
EndSplineSet
Validated: 1
EndChar

StartChar: amacron
Encoding: 257 257 227
Width: 1058
VWidth: 0
Flags: HW
LayerCount: 2
Fore
SplineSet
644 1333 m 1x3e
 1165 1333 l 1
 1128 1204 l 1
 607 1204 l 1
 644 1333 l 1x3e
832 424 m 1
 772 424 l 2
 623 424 402 415 359 264 c 0
 356 254 355 244 355 234 c 0
 355 166 423 109 524 109 c 0xbe
 545 109 652 111 769 206 c 1
 832 424 l 1
781 982 m 0
 1005 982 1080 898 1080 775 c 0
 1080 734 1072 689 1058 640 c 2
 875 0 l 1
 759 0 l 1x7e
 747 90 l 1
 665 30 554 -20 442 -20 c 0
 282 -20 184 76 184 194 c 0
 184 214 187 235 193 256 c 0
 263 499 553 548 867 548 c 1
 889 623 l 2
 897 650 905 684 905 716 c 0
 905 783 869 846 715 846 c 0
 623 846 501 817 444 803 c 1
 447 921 l 1
 579 966 694 982 781 982 c 0
EndSplineSet
Validated: 1
EndChar

StartChar: Abreve
Encoding: 258 258 228
Width: 1383
VWidth: 0
Flags: HW
LayerCount: 2
Fore
SplineSet
879 1816 m 1
 1022 1882 l 1
 1038 1801 1090 1695 1220 1695 c 0
 1338 1695 1475 1792 1569 1882 c 1
 1660 1805 l 1
 1525 1675 1333 1557 1164 1557 c 0
 976 1557 889 1690 879 1816 c 1
1084 1255 m 1
 643 562 l 1
 1126 562 l 1
 1084 1255 l 1
1042 1421 m 1
 1235 1421 l 1
 1333 0 l 1
 1161 0 l 1
 1135 413 l 1
 549 413 l 1
 287 0 l 1
 130 0 l 1
 1042 1421 l 1
EndSplineSet
Validated: 1
EndChar

StartChar: abreve
Encoding: 259 259 229
Width: 1056
VWidth: 0
Flags: HW
LayerCount: 2
Fore
SplineSet
564 1377 m 1x3e
 707 1448 l 1
 720 1360 769 1246 896 1246 c 0
 1012 1246 1148 1351 1243 1448 c 1
 1331 1365 l 1
 1196 1230 1006 1108 840 1108 c 0
 655 1108 572 1246 564 1377 c 1x3e
832 424 m 1
 772 424 l 2
 623 424 403 415 360 264 c 0
 357 254 356 244 356 234 c 0
 356 166 423 109 524 109 c 0xbe
 545 109 652 111 769 206 c 1
 832 424 l 1
780 981 m 0
 1005 981 1080 899 1080 775 c 0
 1080 734 1072 688 1058 640 c 2
 875 0 l 1
 759 0 l 1x7e
 747 90 l 1
 665 30 554 -20 442 -20 c 0
 282 -20 184 76 184 194 c 0
 184 214 187 235 193 256 c 0
 263 499 553 547 867 547 c 1
 889 623 l 2
 897 650 905 684 905 716 c 0
 905 783 869 846 715 846 c 0
 623 846 501 817 444 803 c 1
 447 921 l 1
 579 966 693 981 780 981 c 0
EndSplineSet
Validated: 1
EndChar

StartChar: Cacute
Encoding: 262 262 230
Width: 1451
VWidth: 0
Flags: HW
LayerCount: 2
Fore
SplineSet
1640 1976 m 1
 1674 1853 l 1
 1078 1558 l 1
 1047 1666 l 1
 1640 1976 l 1
969 -20 m 0
 602 -20 442 207 442 481 c 0
 442 901 817 1431 1396 1431 c 0
 1502 1431 1633 1412 1761 1355 c 1
 1668 1214 l 1
 1522 1270 1416 1281 1348 1281 c 0
 1017 1281 734 1007 649 710 c 0
 632 650 623 592 623 537 c 0
 623 307 773 136 1057 136 c 0
 1153 136 1269 155 1395 196 c 1
 1411 70 l 1
 1249 8 1094 -20 969 -20 c 0
EndSplineSet
Validated: 1
EndChar

StartChar: cacute
Encoding: 263 263 231
Width: 986
VWidth: 0
Flags: HW
LayerCount: 2
Fore
SplineSet
258 459 m 0
 371 853 654 981 878 981 c 0
 971 981 1058 960 1132 922 c 1
 1059 804 l 1
 997 827 930 840 858 840 c 0
 700 840 507 771 427 493 c 0
 410 434 402 384 402 341 c 0
 402 164 532 115 668 115 c 0
 730 115 796 127 860 147 c 1
 867 35 l 1
 751 -6 648 -20 572 -20 c 0
 409 -20 229 43 229 276 c 0
 229 328 238 389 258 459 c 0
1117 1549 m 25
 1174 1435 l 25
 713 1106 l 25
 665 1210 l 25
 1117 1549 l 25
EndSplineSet
Validated: 1
EndChar

StartChar: Ccircumflex
Encoding: 264 264 232
Width: 1451
VWidth: 0
Flags: HW
LayerCount: 2
Fore
SplineSet
969 -20 m 0
 602 -20 442 207 442 481 c 0
 442 901 817 1431 1396 1431 c 0
 1502 1431 1633 1412 1761 1355 c 1
 1668 1214 l 1
 1522 1270 1416 1281 1348 1281 c 0
 1017 1281 734 1007 649 710 c 0
 632 650 623 592 623 537 c 0
 623 307 773 136 1057 136 c 0
 1153 136 1269 155 1395 196 c 1
 1411 70 l 1
 1249 8 1094 -20 969 -20 c 0
1400 1932 m 1
 1574 1646 l 1
 1456 1558 l 1
 1336 1754 l 1
 1099 1559 l 1
 1033 1637 l 1
 1400 1932 l 1
EndSplineSet
Validated: 1
EndChar

StartChar: ccircumflex
Encoding: 265 265 233
Width: 986
VWidth: 0
Flags: HW
LayerCount: 2
Fore
SplineSet
258 459 m 0
 371 853 654 981 878 981 c 0
 971 981 1058 960 1132 922 c 1
 1059 804 l 1
 997 827 930 840 858 840 c 0
 700 840 507 771 427 493 c 0
 410 434 402 384 402 341 c 0
 402 164 532 115 668 115 c 0
 730 115 796 127 860 147 c 1
 867 35 l 1
 751 -6 648 -20 572 -20 c 0
 409 -20 229 43 229 276 c 0
 229 328 238 389 258 459 c 0
986 1498 m 1
 1150 1198 l 1
 1033 1105 l 1
 920 1311 l 1
 685 1106 l 1
 622 1188 l 1
 986 1498 l 1
EndSplineSet
Validated: 1
EndChar

StartChar: Cdotaccent
Encoding: 266 266 234
Width: 1451
VWidth: 0
Flags: HW
LayerCount: 2
Fore
SplineSet
1278 1829 m 1
 1488 1829 l 1
 1428 1619 l 1
 1218 1619 l 1
 1278 1829 l 1
969 -20 m 0
 602 -20 442 207 442 481 c 0
 442 901 817 1431 1396 1431 c 0
 1502 1431 1633 1412 1761 1355 c 1
 1668 1214 l 1
 1522 1270 1416 1281 1348 1281 c 0
 1017 1281 734 1007 649 710 c 0
 632 650 623 592 623 537 c 0
 623 307 773 136 1057 136 c 0
 1153 136 1269 155 1395 196 c 1
 1411 70 l 1
 1249 8 1094 -20 969 -20 c 0
EndSplineSet
Validated: 1
EndChar

StartChar: cdotaccent
Encoding: 267 267 235
Width: 991
VWidth: 0
Flags: HW
LayerCount: 2
Fore
SplineSet
258 459 m 0
 371 853 655 981 881 981 c 0
 975 981 1063 960 1138 922 c 1
 1064 804 l 1
 1002 827 934 840 861 840 c 0
 702 840 507 771 427 493 c 0
 410 434 403 385 403 342 c 0
 403 164 534 115 671 115 c 0
 734 115 800 127 865 147 c 1
 872 35 l 1
 756 -6 652 -20 575 -20 c 0
 410 -20 229 43 229 277 c 0
 229 329 238 389 258 459 c 0
904 1421 m 1
 1114 1421 l 1
 1054 1212 l 1
 844 1212 l 1
 904 1421 l 1
EndSplineSet
Validated: 1
EndChar

StartChar: Ccaron
Encoding: 268 268 236
Width: 1451
VWidth: 0
Flags: HW
LayerCount: 2
Fore
SplineSet
969 -20 m 0
 602 -20 442 207 442 481 c 0
 442 901 817 1431 1396 1431 c 0
 1502 1431 1633 1412 1761 1355 c 1
 1668 1214 l 1
 1522 1270 1416 1281 1348 1281 c 0
 1017 1281 734 1007 649 710 c 0
 632 650 623 592 623 537 c 0
 623 307 773 136 1057 136 c 0
 1153 136 1269 155 1395 196 c 1
 1411 70 l 1
 1249 8 1094 -20 969 -20 c 0
1337 1558 m 5
 1163 1844 l 5
 1281 1932 l 5
 1401 1736 l 5
 1638 1931 l 5
 1703 1853 l 5
 1337 1558 l 5
EndSplineSet
Validated: 1
EndChar

StartChar: ccaron
Encoding: 269 269 237
Width: 986
VWidth: 0
Flags: HW
LayerCount: 2
Fore
SplineSet
258 459 m 0
 371 853 654 981 878 981 c 0
 971 981 1058 960 1132 922 c 1
 1059 804 l 1
 997 827 930 840 858 840 c 0
 700 840 507 771 427 493 c 0
 410 434 402 384 402 341 c 0
 402 164 532 115 668 115 c 0
 730 115 796 127 860 147 c 1
 867 35 l 1
 751 -6 648 -20 572 -20 c 0
 409 -20 229 43 229 276 c 0
 229 328 238 389 258 459 c 0
848 1105 m 1
 685 1406 l 1
 802 1498 l 1
 914 1292 l 1
 1150 1497 l 1
 1213 1417 l 1
 848 1105 l 1
EndSplineSet
Validated: 1
EndChar

StartChar: Dcaron
Encoding: 270 270 238
Width: 1605
VWidth: 0
Flags: HW
LayerCount: 2
Fore
SplineSet
1138 1421 m 0
 1569 1421 1698 1217 1698 985 c 0
 1698 909 1684 830 1662 754 c 0
 1578 461 1374 124 973 30 c 0
 845 0 721 0 598 0 c 2
 290 0 l 1
 697 1421 l 1
 844 1421 991 1421 1138 1421 c 0
824 1271 m 1
 503 150 l 1
 710 150 l 2
 871 150 1125 155 1327 411 c 0
 1370 465 1437 566 1481 720 c 0
 1502 792 1511 856 1511 913 c 0
 1511 1132 1373 1238 1231 1263 c 0
 1189 1271 1144 1271 1100 1271 c 2
 824 1271 l 1
1291 1558 m 1
 1117 1844 l 1
 1235 1932 l 1
 1355 1736 l 1
 1592 1931 l 1
 1657 1853 l 1
 1291 1558 l 1
EndSplineSet
Validated: 1
EndChar

StartChar: dcaron
Encoding: 271 271 239
Width: 1408
VWidth: 0
Flags: HW
LayerCount: 2
Fore
SplineSet
1623 1511 m 1x3d
 1788 1511 l 1x3d
 1553 1102 l 1
 1388 1102 l 1x3e
 1623 1511 l 1x3d
260 465 m 0
 358 806 610 983 865 983 c 0
 959 983 1028 959 1084 930 c 1
 1250 1511 l 1
 1414 1511 l 1
 981 0 l 1
 867 0 l 1x7c
 858 62 l 1
 743 3 635 -20 550 -20 c 0xbc
 394 -20 231 58 231 283 c 0
 231 335 240 396 260 465 c 0
642 115 m 0xbc
 725 115 808 142 866 169 c 1
 1049 808 l 1
 1007 829 936 854 852 854 c 0
 714 854 511 781 427 490 c 0
 411 433 403 384 403 342 c 0
 403 161 537 115 642 115 c 0xbc
EndSplineSet
Validated: 1
EndChar

StartChar: Dcroat
Encoding: 272 272 240
Width: 1605
VWidth: 0
Flags: HW
LayerCount: 2
Fore
SplineSet
1183 1421 m 0
 1614 1421 1743 1217 1743 985 c 0
 1743 909 1729 830 1707 754 c 0
 1623 461 1419 124 1018 30 c 0
 890 0 766 0 643 0 c 2
 335 0 l 1
 524 658 l 1
 306 658 l 1
 349 808 l 1
 567 808 l 1
 742 1421 l 1
 889 1421 1036 1421 1183 1421 c 0
694 658 m 1
 548 150 l 1
 755 150 l 2
 916 150 1170 155 1372 411 c 0
 1415 465 1482 566 1526 720 c 0
 1547 792 1556 856 1556 913 c 0
 1556 1132 1418 1238 1276 1263 c 0
 1234 1271 1189 1271 1145 1271 c 2
 869 1271 l 1
 737 808 l 1
 993 808 l 1
 950 658 l 1
 694 658 l 1
EndSplineSet
Validated: 1
EndChar

StartChar: Emacron
Encoding: 274 274 241
Width: 1283
VWidth: 0
Flags: HW
LayerCount: 2
Fore
SplineSet
290 0 m 1
 697 1421 l 1
 1530 1421 l 1
 1487 1271 l 1
 824 1271 l 1
 691 807 l 1
 1299 807 l 1
 1256 657 l 1
 648 657 l 1
 503 150 l 1
 1166 150 l 1
 1123 0 l 1
 290 0 l 1
847 1697 m 1
 1580 1697 l 1
 1543 1568 l 1
 810 1568 l 1
 847 1697 l 1
EndSplineSet
Validated: 1
EndChar

StartChar: emacron
Encoding: 275 275 242
Width: 1088
VWidth: 0
Flags: HW
LayerCount: 2
Fore
SplineSet
256 450 m 0
 363 824 648 982 876 982 c 0
 1084 982 1143 877 1143 746 c 0
 1143 661 1118 566 1094 481 c 2
 1072 405 l 1
 406 405 l 1
 400 383 396 360 396 338 c 0
 396 222 484 111 684 111 c 0
 767 111 854 130 914 146 c 1
 912 35 l 1
 820 6 704 -20 585 -20 c 0
 312 -20 229 116 229 275 c 0
 229 332 239 392 256 450 c 0
801 840 m 0
 622 840 489 682 445 529 c 1
 948 529 l 1
 963 581 973 632 973 677 c 0
 973 772 929 840 801 840 c 0
645 1333 m 1
 1224 1333 l 1
 1181 1184 l 1
 602 1184 l 1
 645 1333 l 1
EndSplineSet
Validated: 1
EndChar

StartChar: Ebreve
Encoding: 276 276 243
Width: 1283
VWidth: 0
Flags: HW
LayerCount: 2
Fore
SplineSet
1543 1882 m 1
 1634 1805 l 1
 1455 1633 1277 1559 1137 1559 c 0
 977 1559 865 1656 853 1816 c 1
 996 1882 l 1
 1017 1771 1087 1695 1195 1695 c 0
 1286 1695 1405 1749 1543 1882 c 1
290 0 m 1
 697 1421 l 1
 1530 1421 l 1
 1487 1271 l 1
 824 1271 l 1
 691 807 l 1
 1299 807 l 1
 1256 657 l 1
 648 657 l 1
 503 150 l 1
 1166 150 l 1
 1123 0 l 1
 290 0 l 1
EndSplineSet
Validated: 1
EndChar

StartChar: ebreve
Encoding: 277 277 244
Width: 1087
VWidth: 0
Flags: HW
LayerCount: 2
Fore
SplineSet
256 450 m 0
 363 824 648 982 876 982 c 0
 1084 982 1143 877 1143 746 c 0
 1143 661 1118 566 1094 481 c 2
 1072 405 l 1
 406 405 l 1
 400 383 396 360 396 338 c 0
 396 222 484 111 684 111 c 0
 767 111 854 130 914 146 c 1
 912 35 l 1
 820 6 704 -20 585 -20 c 0
 312 -20 229 116 229 275 c 0
 229 332 239 392 256 450 c 0
801 840 m 0
 622 840 489 682 445 529 c 1
 948 529 l 1
 963 581 973 632 973 677 c 0
 973 772 929 840 801 840 c 0
623 1377 m 1
 765 1448 l 1
 778 1360 827 1246 954 1246 c 0
 1070 1246 1207 1351 1301 1448 c 1
 1389 1365 l 1
 1254 1230 1065 1108 899 1108 c 0
 714 1108 631 1246 623 1377 c 1
EndSplineSet
Validated: 1
EndChar

StartChar: Edotaccent
Encoding: 278 278 245
Width: 1283
VWidth: 0
Flags: HW
LayerCount: 2
Fore
SplineSet
290 0 m 1
 697 1421 l 1
 1530 1421 l 1
 1487 1271 l 1
 824 1271 l 1
 691 807 l 1
 1299 807 l 1
 1256 657 l 1
 648 657 l 1
 503 150 l 1
 1166 150 l 1
 1123 0 l 1
 290 0 l 1
1116 1829 m 1
 1326 1829 l 1
 1266 1619 l 1
 1056 1619 l 1
 1116 1829 l 1
EndSplineSet
Validated: 1
EndChar

StartChar: edotaccent
Encoding: 279 279 246
Width: 1094
VWidth: 0
Flags: HW
LayerCount: 2
Fore
SplineSet
256 450 m 0
 363 824 649 982 879 982 c 0
 1089 982 1148 877 1148 746 c 0
 1148 662 1123 566 1099 481 c 2
 1077 405 l 1
 406 405 l 1
 400 383 397 361 397 339 c 0
 397 223 485 111 688 111 c 0
 772 111 859 130 920 146 c 1
 917 35 l 1
 825 6 708 -20 588 -20 c 0
 313 -20 229 117 229 276 c 0
 229 333 239 392 256 450 c 0
804 840 m 0
 623 840 489 682 445 529 c 1
 954 529 l 1
 969 580 979 631 979 675 c 0
 979 771 934 840 804 840 c 0
897 1421 m 1
 1107 1421 l 1
 1047 1212 l 1
 837 1212 l 1
 897 1421 l 1
EndSplineSet
Validated: 1
EndChar

StartChar: Ecaron
Encoding: 282 282 247
Width: 1283
VWidth: 0
Flags: HW
LayerCount: 2
Fore
SplineSet
290 0 m 1
 697 1421 l 1
 1530 1421 l 1
 1487 1271 l 1
 824 1271 l 1
 691 807 l 1
 1299 807 l 1
 1256 657 l 1
 648 657 l 1
 503 150 l 1
 1166 150 l 1
 1123 0 l 1
 290 0 l 1
1141 1558 m 1
 967 1844 l 1
 1084 1932 l 1
 1204 1736 l 1
 1442 1931 l 1
 1507 1853 l 1
 1141 1558 l 1
EndSplineSet
Validated: 1
EndChar

StartChar: ecaron
Encoding: 283 283 248
Width: 1088
VWidth: 0
Flags: HW
LayerCount: 2
Fore
SplineSet
256 450 m 0
 363 824 648 982 876 982 c 0
 1084 982 1143 877 1143 746 c 0
 1143 661 1118 566 1094 481 c 2
 1072 405 l 1
 406 405 l 1
 400 383 396 360 396 338 c 0
 396 222 484 111 684 111 c 0
 767 111 854 130 914 146 c 1
 912 35 l 1
 820 6 704 -20 585 -20 c 0
 312 -20 229 116 229 275 c 0
 229 332 239 392 256 450 c 0
801 840 m 0
 622 840 489 682 445 529 c 1
 948 529 l 1
 963 581 973 632 973 677 c 0
 973 772 929 840 801 840 c 0
909 1105 m 1
 745 1406 l 1
 863 1498 l 1
 974 1292 l 1
 1210 1497 l 1
 1275 1417 l 1
 909 1105 l 1
EndSplineSet
Validated: 1
EndChar

StartChar: Gcircumflex
Encoding: 284 284 249
Width: 1591
VWidth: 0
Flags: HW
LayerCount: 2
Fore
SplineSet
916 -20 m 0
 543 -20 383 205 383 478 c 0
 383 898 762 1432 1330 1432 c 0
 1513 1432 1655 1375 1752 1311 c 1
 1649 1184 l 1
 1578 1228 1447 1282 1296 1282 c 0
 1018 1282 692 1072 591 720 c 0
 573 656 564 596 564 540 c 0
 564 294 731 131 1000 131 c 0
 1141 131 1257 179 1347 247 c 1
 1451 610 l 1
 1047 610 l 1
 1087 750 l 1
 1656 750 l 1
 1496 192 l 1
 1426 132 1224 -20 916 -20 c 0
1428 1932 m 1
 1602 1646 l 1
 1484 1558 l 1
 1365 1754 l 1
 1127 1559 l 1
 1061 1637 l 1
 1428 1932 l 1
EndSplineSet
Validated: 1
EndChar

StartChar: gcircumflex
Encoding: 285 285 250
Width: 1162
VWidth: 0
Flags: HW
LayerCount: 2
Fore
SplineSet
639 115 m 0xec
 723 115 806 143 864 170 c 1
 1043 796 l 1
 929 848 852 850 830 850 c 0
 650 850 488 710 427 497 c 0
 412 446 405 397 405 352 c 0
 405 214 477 115 639 115 c 0xec
857 983 m 0
 910 983 989 974 1103 904 c 1
 1140 963 l 1
 1255 963 l 1xdc
 959 -70 l 2
 931 -166 811 -541 346 -541 c 0
 241 -541 143 -515 64 -477 c 1
 144 -358 l 1
 218 -389 294 -404 364 -404 c 0
 460 -404 676 -373 776 -118 c 0
 793 -77 808 -27 819 12 c 2
 829 48 l 1
 750 11 652 -20 554 -20 c 0
 392 -20 232 65 232 291 c 0
 232 345 242 408 262 479 c 0
 374 870 693 983 857 983 c 0
1028 1498 m 1
 1193 1198 l 1
 1075 1105 l 1
 962 1311 l 1
 727 1106 l 1
 664 1188 l 1
 1028 1498 l 1
EndSplineSet
Validated: 1
EndChar

StartChar: Gbreve
Encoding: 286 286 251
Width: 1591
VWidth: 0
Flags: HW
LayerCount: 2
Fore
SplineSet
1028 1816 m 1
 1170 1882 l 1
 1186 1801 1239 1695 1369 1695 c 0
 1487 1695 1624 1792 1718 1882 c 1
 1808 1805 l 1
 1673 1675 1482 1557 1313 1557 c 0
 1125 1557 1038 1690 1028 1816 c 1
1330 1432 m 0
 1513 1432 1655 1375 1752 1311 c 1
 1649 1184 l 1
 1578 1228 1447 1282 1296 1282 c 0
 1018 1282 692 1072 591 720 c 0
 573 656 564 596 564 540 c 0
 564 294 731 131 1000 131 c 0
 1141 131 1257 179 1347 247 c 1
 1451 610 l 1
 1047 610 l 1
 1087 750 l 1
 1656 750 l 1
 1496 192 l 1
 1426 132 1224 -20 916 -20 c 0
 542 -20 383 202 383 472 c 0
 383 893 769 1432 1330 1432 c 0
EndSplineSet
Validated: 1
EndChar

StartChar: gbreve
Encoding: 287 287 252
Width: 1161
VWidth: 0
Flags: HW
LayerCount: 2
Fore
SplineSet
635 1377 m 1xce
 776 1448 l 1
 789 1360 838 1246 965 1246 c 0
 1080 1246 1218 1351 1312 1448 c 1
 1400 1365 l 1
 1265 1230 1076 1108 910 1108 c 0
 725 1108 643 1246 635 1377 c 1xce
639 115 m 0
 723 115 806 143 864 170 c 1
 1043 796 l 1
 929 848 852 850 830 850 c 0xee
 650 850 488 710 427 497 c 0
 412 446 405 397 405 352 c 0
 405 214 477 115 639 115 c 0
346 -541 m 0
 241 -541 143 -515 64 -477 c 1
 144 -358 l 1
 218 -389 294 -404 364 -404 c 0
 460 -404 676 -373 776 -118 c 0
 793 -77 808 -27 819 12 c 2
 829 48 l 1
 750 11 652 -20 554 -20 c 0
 392 -20 232 65 232 291 c 0
 232 345 242 408 262 479 c 0
 374 870 693 983 857 983 c 0xee
 910 983 989 974 1103 904 c 1
 1140 963 l 1
 1255 963 l 1xde
 963 -56 l 2
 852 -445 566 -541 346 -541 c 0
EndSplineSet
Validated: 1
EndChar

StartChar: Gdotaccent
Encoding: 288 288 253
Width: 1591
VWidth: 0
Flags: HW
LayerCount: 2
Fore
SplineSet
1321 1829 m 1
 1531 1829 l 1
 1471 1619 l 1
 1261 1619 l 1
 1321 1829 l 1
916 -20 m 0
 543 -20 383 205 383 478 c 0
 383 898 762 1432 1330 1432 c 0
 1513 1432 1655 1375 1752 1311 c 1
 1649 1184 l 1
 1578 1228 1447 1282 1296 1282 c 0
 1018 1282 692 1072 591 720 c 0
 573 656 564 596 564 540 c 0
 564 294 731 131 1000 131 c 0
 1141 131 1257 179 1347 247 c 1
 1451 610 l 1
 1047 610 l 1
 1087 750 l 1
 1656 750 l 1
 1496 192 l 1
 1426 132 1224 -20 916 -20 c 0
EndSplineSet
Validated: 1
EndChar

StartChar: gdotaccent
Encoding: 289 289 254
Width: 1167
VWidth: 0
Flags: HW
LayerCount: 2
Fore
SplineSet
861 983 m 0xef
 914 983 993 974 1108 904 c 1
 1146 963 l 1
 1261 963 l 1xdf
 964 -70 l 2
 936 -166 816 -541 348 -541 c 0
 242 -541 143 -515 64 -477 c 1
 144 -358 l 1
 193 -379 272 -404 367 -404 c 0
 464 -404 681 -373 782 -118 c 0
 799 -77 813 -27 824 12 c 2
 834 48 l 1
 754 11 656 -20 557 -20 c 0
 393 -20 232 65 232 292 c 0
 232 346 242 408 262 479 c 0
 374 870 696 983 861 983 c 0xef
642 115 m 0
 727 115 810 143 869 170 c 1
 1049 796 l 1
 934 848 856 850 833 850 c 0xef
 651 850 488 710 427 497 c 0
 412 446 405 397 405 352 c 0
 405 214 477 115 642 115 c 0
881 1421 m 1
 1091 1421 l 1
 1031 1212 l 1
 821 1212 l 1
 881 1421 l 1
EndSplineSet
Validated: 1
EndChar

StartChar: Gcommaaccent
Encoding: 290 290 255
Width: 1591
VWidth: 0
Flags: HW
LayerCount: 2
Fore
SplineSet
916 -20 m 0
 543 -20 383 206 383 479 c 0
 383 899 762 1432 1330 1432 c 0
 1513 1432 1655 1375 1752 1311 c 1
 1649 1184 l 1
 1578 1228 1447 1282 1296 1282 c 0
 1018 1282 692 1072 591 720 c 0
 573 656 564 596 564 540 c 0
 564 294 731 131 1000 131 c 0
 1141 131 1257 179 1347 247 c 1
 1451 610 l 1
 1047 610 l 1
 1087 750 l 1
 1656 750 l 1
 1496 192 l 1
 1426 132 1224 -20 916 -20 c 0
846 -141 m 1xf6
 1026 -141 l 1xf6
 756 -531 l 1
 576 -531 l 1xfa
 846 -141 l 1xf6
EndSplineSet
Validated: 1
EndChar

StartChar: Hcircumflex
Encoding: 292 292 256
Width: 1600
VWidth: 0
Flags: HW
LayerCount: 2
Fore
SplineSet
1627 1421 m 1
 1797 1421 l 1
 1390 0 l 1
 1220 0 l 1
 1409 658 l 1
 649 658 l 1
 460 0 l 1
 290 0 l 1
 697 1421 l 1
 867 1421 l 1
 692 808 l 1
 1452 808 l 1
 1627 1421 l 1
1388 1937 m 1
 1562 1651 l 1
 1444 1563 l 1
 1324 1759 l 1
 1087 1564 l 1
 1022 1642 l 1
 1388 1937 l 1
EndSplineSet
Validated: 1
EndChar

StartChar: hcircumflex
Encoding: 293 293 257
Width: 1178
VWidth: 0
Flags: HW
LayerCount: 2
Fore
SplineSet
846 835 m 0
 794 835 702 822 567 761 c 1
 349 0 l 1
 185 0 l 1
 615 1500 l 1
 779 1500 l 1
 604 888 l 1
 679 923 824 981 953 981 c 0
 1142 981 1192 879 1192 766 c 0
 1192 691 1170 612 1153 553 c 2
 994 0 l 1
 826 0 l 1
 992 580 l 2
 998 602 1010 644 1010 689 c 0
 1010 760 980 835 846 835 c 0
1140 1937 m 1
 1305 1643 l 1
 1188 1553 l 1
 1076 1754 l 1
 841 1554 l 1
 777 1634 l 1
 1140 1937 l 1
EndSplineSet
Validated: 1
EndChar

StartChar: Itilde
Encoding: 296 296 258
Width: 730
VWidth: 0
Flags: HW
LayerCount: 2
Fore
SplineSet
727 1421 m 1
 897 1421 l 1
 490 0 l 1
 320 0 l 1
 727 1421 l 1
642 1584 m 1
 546 1612 l 1
 600 1710 l 2
 614 1735 681 1866 824 1866 c 0
 901 1866 921 1814 931 1792 c 2
 960 1728 l 2
 977 1691 996 1677 1014 1677 c 0
 1059 1677 1099 1761 1101 1766 c 2
 1156 1864 l 1
 1252 1835 l 1
 1198 1738 l 2
 1169 1684 1089 1550 962 1550 c 0
 887 1550 868 1607 859 1626 c 2
 830 1690 l 2
 817 1719 794 1744 768 1744 c 0
 747 1744 722 1727 697 1682 c 2
 642 1584 l 1
EndSplineSet
Validated: 1
EndChar

StartChar: itilde
Encoding: 297 297 259
Width: 512
VWidth: 0
Flags: HW
LayerCount: 2
Back
SplineSet
752 1248 m 4
 823 1248 853 1333 902 1430 c 5
 1006 1383 l 5
 954 1276 896 1126 752 1126 c 4
 594 1126 525 1306 433 1306 c 4
 362 1306 333 1222 284 1124 c 5
 178 1171 l 5
 230 1278 289 1428 433 1428 c 4
 591 1428 660 1248 752 1248 c 4
EndSplineSet
Fore
SplineSet
373 1149 m 1
 280 1177 l 1
 334 1275 l 2
 348 1300 413 1431 554 1431 c 0
 630 1431 650 1379 659 1357 c 2
 688 1293 l 2
 705 1256 722 1242 740 1242 c 0
 784 1242 824 1326 826 1331 c 2
 881 1428 l 1
 974 1400 l 1
 921 1303 l 2
 892 1249 813 1115 688 1115 c 0
 614 1115 595 1172 587 1191 c 2
 558 1255 l 1
 546 1284 524 1309 498 1309 c 0
 477 1309 453 1292 428 1247 c 2
 373 1149 l 1
459 988 m 1
 623 988 l 1
 339 -1 l 1
 175 -1 l 1
 459 988 l 1
EndSplineSet
Validated: 1
EndChar

StartChar: Imacron
Encoding: 298 298 260
Width: 730
VWidth: 0
Flags: HW
LayerCount: 2
Fore
SplineSet
687 1697 m 1
 1097 1697 l 1
 1060 1568 l 1
 650 1568 l 1
 687 1697 l 1
727 1421 m 1
 897 1421 l 1
 490 0 l 1
 320 0 l 1
 727 1421 l 1
EndSplineSet
Validated: 1
EndChar

StartChar: imacron
Encoding: 299 299 261
Width: 518
VWidth: 0
Flags: HW
LayerCount: 2
Fore
SplineSet
459 988 m 1
 623 988 l 1
 340 0 l 1
 176 0 l 1
 459 988 l 1
460 1333 m 1
 819 1333 l 1
 782 1204 l 1
 423 1204 l 1
 460 1333 l 1
EndSplineSet
Validated: 1
EndChar

StartChar: Ibreve
Encoding: 300 300 262
Width: 730
VWidth: 0
Flags: HW
LayerCount: 2
Fore
SplineSet
601 1808 m 5
 743 1874 l 5
 752 1767 812 1705 890 1705 c 4
 983 1705 1077 1782 1170 1872 c 5
 1241 1795 l 5
 1119 1656 958 1557 816 1557 c 4
 648 1557 604 1693 601 1808 c 5
727 1421 m 5
 897 1421 l 5
 490 0 l 5
 320 0 l 5
 727 1421 l 5
EndSplineSet
Validated: 1
EndChar

StartChar: ibreve
Encoding: 301 301 263
Width: 512
VWidth: 0
Flags: HW
LayerCount: 2
Fore
SplineSet
459 988 m 1
 623 988 l 1
 340 0 l 1
 176 0 l 1
 459 988 l 1
348 1369 m 5
 487 1435 l 5
 496 1328 553 1266 630 1266 c 4
 722 1266 814 1343 906 1433 c 5
 975 1356 l 5
 855 1217 696 1118 557 1118 c 4
 392 1118 350 1254 348 1369 c 5
EndSplineSet
Validated: 1
EndChar

StartChar: Idotaccent
Encoding: 304 304 264
Width: 730
VWidth: 0
Flags: HW
LayerCount: 2
Fore
SplineSet
822 1829 m 1xf0
 1032 1829 l 1
 972 1619 l 1
 762 1619 l 1
 822 1829 l 1xf0
727 1421 m 1xe8
 897 1421 l 1
 490 0 l 1
 320 0 l 1
 727 1421 l 1xe8
EndSplineSet
Validated: 1
EndChar

StartChar: IJ
Encoding: 306 306 265
Width: 1683
VWidth: 0
Flags: HW
LayerCount: 2
Fore
SplineSet
1710 1421 m 1xb8
 1880 1421 l 1
 1595 426 l 2
 1557 292 1513 193 1405 106 c 0
 1354 65 1234 -17 1031 -17 c 0
 965 -17 901 -9 842 7 c 1
 910 149 l 1
 953 138 999 133 1046 133 c 0
 1341 133 1401 340 1423 417 c 2
 1710 1421 l 1xb8
727 1421 m 1
 897 1421 l 1
 490 0 l 1
 320 0 l 1x78
 727 1421 l 1
EndSplineSet
Validated: 1
EndChar

StartChar: ij
Encoding: 307 307 266
Width: 1039
VWidth: 0
Flags: HW
LayerCount: 2
Fore
SplineSet
971 988 m 1xe2
 1135 988 l 1
 812 -137 l 2
 780 -247 725 -439 439 -534 c 1
 414 -410 l 1
 583 -339 625 -219 643 -157 c 2
 971 988 l 1xe2
1084 1421 m 1xe4
 1278 1421 l 1
 1224 1232 l 1
 1030 1232 l 1
 1084 1421 l 1xe4
459 988 m 1xe8
 623 988 l 1
 340 0 l 1
 176 0 l 1
 459 988 l 1xe8
568 1421 m 1xf0
 762 1421 l 1
 708 1232 l 1
 514 1232 l 1
 568 1421 l 1xf0
EndSplineSet
Validated: 1
EndChar

StartChar: Jcircumflex
Encoding: 308 308 267
Width: 953
VWidth: 2097
Flags: HW
LayerCount: 2
Fore
SplineSet
1218 1932 m 5
 1392 1646 l 5
 1274 1558 l 5
 1154 1754 l 5
 917 1559 l 5
 851 1637 l 5
 1218 1932 l 5
980 1421 m 1
 1150 1421 l 1
 865 426 l 2
 827 292 783 193 675 106 c 0
 624 65 504 -17 301 -17 c 0
 235 -17 171 -9 112 7 c 1
 180 149 l 1
 223 138 269 133 316 133 c 0
 611 133 671 340 693 417 c 2
 980 1421 l 1
EndSplineSet
Validated: 1
EndChar

StartChar: jcircumflex
Encoding: 309 309 268
Width: 516
VWidth: 0
Flags: HW
LayerCount: 2
Fore
SplineSet
691 1490 m 1
 831 1204 l 1
 715 1116 l 1
 624 1302 l 1
 422 1117 l 1
 359 1195 l 1
 691 1490 l 1
459 988 m 1
 623 988 l 1
 300 -137 l 2
 268 -247 211 -439 -75 -534 c 1
 -100 -410 l 1
 71 -337 114 -215 131 -154 c 2
 459 988 l 1
EndSplineSet
Validated: 1
EndChar

StartChar: Kcommaaccent
Encoding: 310 310 269
Width: 1417
VWidth: 0
Flags: HW
LayerCount: 2
Fore
SplineSet
613 -122 m 1xe8
 793 -122 l 1xe8
 523 -512 l 1
 343 -512 l 1xf0
 613 -122 l 1xe8
1493 1421 m 1xe4
 1706 1421 l 1xe4
 911 743 l 1
 1337 0 l 1
 1118 0 l 1xe2
 693 729 l 1
 1493 1421 l 1xe4
697 1421 m 1
 867 1421 l 1
 460 0 l 1
 290 0 l 1
 697 1421 l 1
EndSplineSet
Validated: 1
EndChar

StartChar: kcommaaccent
Encoding: 311 311 270
Width: 1069
VWidth: 0
Flags: HW
LayerCount: 2
Fore
SplineSet
434 -122 m 1xe4
 614 -122 l 1xe4
 344 -512 l 1
 164 -512 l 1xe8
 434 -122 l 1xe4
1077 1008 m 1xe2
 1258 1008 l 1xe2
 704 563 l 1
 995 0 l 1
 798 0 l 1xe1
 512 546 l 1
 1077 1008 l 1xe2
609 1511 m 1xf0
 773 1511 l 1
 340 0 l 1
 176 0 l 1
 609 1511 l 1xf0
EndSplineSet
Validated: 1
EndChar

StartChar: Lacute
Encoding: 313 313 271
Width: 1133
VWidth: 0
Flags: HW
LayerCount: 2
Fore
SplineSet
697 1421 m 1
 867 1421 l 1
 503 149 l 1
 1141 149 l 1
 1098 0 l 1
 290 0 l 1
 697 1421 l 1
1354 1976 m 1
 1388 1853 l 1
 792 1558 l 1
 761 1666 l 1
 1354 1976 l 1
EndSplineSet
Validated: 1
EndChar

StartChar: lacute
Encoding: 314 314 272
Width: 553
VWidth: 0
Flags: HW
LayerCount: 2
Fore
SplineSet
628 1511 m 1
 792 1511 l 1
 359 0 l 1
 195 0 l 1
 628 1511 l 1
1240 2051 m 1
 1273 1928 l 1
 685 1633 l 1
 655 1741 l 1
 1240 2051 l 1
EndSplineSet
Validated: 1
EndChar

StartChar: Lcommaaccent
Encoding: 315 315 273
Width: 1133
VWidth: 0
Flags: HW
LayerCount: 2
Fore
SplineSet
697 1421 m 1xe0
 867 1421 l 1
 503 149 l 1
 1141 149 l 1
 1098 0 l 1
 290 0 l 1
 697 1421 l 1xe0
411 -122 m 1xd0
 591 -122 l 1
 321 -512 l 1
 141 -512 l 1
 411 -122 l 1xd0
EndSplineSet
Validated: 1
EndChar

StartChar: lcommaaccent
Encoding: 316 316 274
Width: 564
VWidth: 0
Flags: HW
LayerCount: 2
Fore
SplineSet
633 1511 m 1xd0
 797 1511 l 1
 364 0 l 1
 200 0 l 1
 633 1511 l 1xd0
193 -122 m 1xc8
 373 -122 l 1xc8
 103 -512 l 1
 -77 -512 l 1xe0
 193 -122 l 1xc8
EndSplineSet
Validated: 1
EndChar

StartChar: Lcaron
Encoding: 317 317 275
Width: 1133
VWidth: 0
Flags: HW
LayerCount: 2
Fore
SplineSet
697 1421 m 1xe0
 867 1421 l 1
 503 149 l 1
 1141 149 l 1
 1098 0 l 1
 290 0 l 1
 697 1421 l 1xe0
1241 1421 m 1xe8
 1421 1421 l 1xe8
 1152 1031 l 1
 972 1031 l 1xf0
 1241 1421 l 1xe8
EndSplineSet
Validated: 1
EndChar

StartChar: lcaron
Encoding: 318 318 276
Width: 802
VWidth: 0
Flags: HW
LayerCount: 2
Fore
SplineSet
628 1511 m 1xe0
 792 1511 l 1
 359 0 l 1
 195 0 l 1
 628 1511 l 1xe0
1016 1511 m 1xe8
 1181 1511 l 1xe8
 951 1121 l 1
 786 1121 l 1xf0
 1016 1511 l 1xe8
EndSplineSet
Validated: 1
EndChar

StartChar: Ldot
Encoding: 319 319 277
Width: 1133
VWidth: 0
Flags: HW
LayerCount: 2
Fore
SplineSet
697 1421 m 1
 867 1421 l 1
 503 149 l 1
 1141 149 l 1
 1098 0 l 1
 290 0 l 1
 697 1421 l 1
915 823 m 1
 1125 823 l 1
 1065 613 l 1
 855 613 l 1
 915 823 l 1
EndSplineSet
Validated: 1
EndChar

StartChar: ldot
Encoding: 320 320 278
Width: 819
VWidth: 0
Flags: HW
LayerCount: 2
Fore
SplineSet
628 1511 m 1
 792 1511 l 1
 359 0 l 1
 195 0 l 1
 628 1511 l 1
765 838 m 1
 975 838 l 1
 915 628 l 1
 705 628 l 1
 765 838 l 1
EndSplineSet
Validated: 1
EndChar

StartChar: Nacute
Encoding: 323 323 279
Width: 1659
VWidth: 0
Flags: HW
LayerCount: 2
Fore
SplineSet
697 1421 m 1
 912 1421 l 1
 1346 232 l 1
 1686 1421 l 1
 1856 1421 l 1
 1449 0 l 1
 1234 0 l 1
 802 1191 l 1
 460 0 l 1
 290 0 l 1
 697 1421 l 1
1659 1976 m 1
 1693 1853 l 1
 1097 1558 l 1
 1066 1666 l 1
 1659 1976 l 1
EndSplineSet
Validated: 1
EndChar

StartChar: nacute
Encoding: 324 324 280
Width: 1164
VWidth: 0
Flags: HW
LayerCount: 2
Fore
SplineSet
452 963 m 1xb8
 567 963 l 1xb8
 579 879 l 1
 754 963 876 983 950 983 c 0
 1128 983 1181 894 1181 779 c 0
 1181 715 1165 644 1145 575 c 2
 980 0 l 25
 815 0 l 1
 982 583 l 2
 989 608 1001 650 1001 693 c 0
 1001 763 970 835 836 835 c 0xd8
 745 835 640 798 558 761 c 1
 340 0 l 1
 176 0 l 1
 452 963 l 1xb8
1280 1546 m 1
 1312 1415 l 1
 723 1109 l 1
 695 1222 l 1
 1280 1546 l 1
EndSplineSet
Validated: 1
EndChar

StartChar: Ncommaaccent
Encoding: 325 325 281
Width: 1659
VWidth: 0
Flags: HW
LayerCount: 2
Fore
SplineSet
726 -122 m 1xec
 906 -122 l 1xec
 636 -512 l 1
 456 -512 l 1xf4
 726 -122 l 1xec
697 1421 m 1
 912 1421 l 1
 1346 232 l 1
 1686 1421 l 1
 1856 1421 l 1
 1449 0 l 1
 1234 0 l 1
 802 1191 l 1
 460 0 l 1
 290 0 l 1
 697 1421 l 1
EndSplineSet
Validated: 1
EndChar

StartChar: ncommaaccent
Encoding: 326 326 282
Width: 1173
VWidth: 0
Flags: HW
LayerCount: 2
Fore
SplineSet
452 963 m 1xb2
 567 963 l 1xb2
 579 879 l 1
 756 963 879 983 954 983 c 0
 1135 983 1188 893 1188 777 c 0
 1188 713 1172 641 1152 571 c 2
 986 -9 l 25
 821 -9 l 1
 990 580 l 2
 997 605 1009 648 1009 691 c 0
 1009 762 977 835 841 835 c 0xd2
 749 835 640 797 557 760 c 1
 337 -9 l 1
 173 -9 l 1
 452 963 l 1xb2
459 -129 m 1x86
 639 -129 l 1x86
 371 -512 l 1
 191 -512 l 1x8a
 459 -129 l 1x86
EndSplineSet
Validated: 1
EndChar

StartChar: Ncaron
Encoding: 327 327 283
Width: 1659
VWidth: 0
Flags: HW
LayerCount: 2
Fore
SplineSet
697 1421 m 1
 912 1421 l 1
 1346 232 l 1
 1686 1421 l 1
 1856 1421 l 1
 1449 0 l 1
 1234 0 l 1
 802 1191 l 1
 460 0 l 1
 290 0 l 1
 697 1421 l 1
1353 1558 m 1
 1179 1844 l 1
 1298 1932 l 1
 1417 1736 l 1
 1654 1931 l 1
 1719 1853 l 1
 1353 1558 l 1
EndSplineSet
Validated: 1
EndChar

StartChar: ncaron
Encoding: 328 328 284
Width: 1164
VWidth: 0
Flags: HW
LayerCount: 2
Fore
SplineSet
452 963 m 1xb8
 567 963 l 1xb8
 579 879 l 1
 754 963 876 983 950 983 c 0
 1128 983 1181 894 1181 779 c 0
 1181 715 1165 644 1145 575 c 2
 980 0 l 25
 815 0 l 1
 982 583 l 2
 989 608 1001 650 1001 693 c 0
 1001 763 970 835 836 835 c 0xd8
 745 835 640 798 558 761 c 1
 340 0 l 1
 176 0 l 1
 452 963 l 1xb8
905 1109 m 1
 742 1410 l 1
 859 1502 l 1
 971 1297 l 1
 1207 1501 l 1
 1270 1417 l 1
 905 1109 l 1
EndSplineSet
Validated: 1
EndChar

StartChar: Omacron
Encoding: 332 332 285
Width: 1686
VWidth: 0
Flags: HW
LayerCount: 2
Fore
SplineSet
1579 709 m 0
 1601 787 1611 857 1611 918 c 0
 1611 1174 1435 1287 1241 1287 c 0
 1013 1287 711 1117 599 728 c 0
 577 650 566 579 566 514 c 0
 566 277 708 134 928 134 c 0
 1159 134 1464 308 1579 709 c 0
1296 1436 m 0
 1600 1436 1796 1262 1796 966 c 0
 1796 893 1784 813 1759 727 c 0
 1632 284 1264 -15 873 -15 c 0
 601 -15 380 140 380 458 c 0
 380 532 392 615 418 707 c 0
 546 1154 913 1436 1296 1436 c 0
1019 1697 m 1
 1759 1697 l 1
 1722 1568 l 1
 982 1568 l 1
 1019 1697 l 1
EndSplineSet
Validated: 1
EndChar

StartChar: omacron
Encoding: 333 333 286
Width: 1195
VWidth: 0
Flags: HW
LayerCount: 2
Fore
SplineSet
881 982 m 0
 1090 982 1231 871 1231 665 c 0
 1231 616 1223 561 1206 501 c 0
 1113 178 855 -20 578 -20 c 0
 367 -20 236 97 236 300 c 0
 236 352 244 409 262 471 c 0
 352 785 601 982 881 982 c 0
828 842 m 0
 681 842 495 725 430 498 c 0
 417 452 410 407 410 366 c 0
 410 223 489 120 636 120 c 0
 804 120 976 258 1036 469 c 0
 1050 517 1056 561 1056 600 c 0
 1056 760 951 842 828 842 c 0
630 1333 m 1
 1354 1333 l 1
 1317 1204 l 1
 593 1204 l 1
 630 1333 l 1
EndSplineSet
Validated: 1
EndChar

StartChar: Obreve
Encoding: 334 334 287
Width: 1686
VWidth: 0
Flags: HW
LayerCount: 2
Fore
SplineSet
1044 1816 m 1
 1186 1882 l 1
 1202 1801 1254 1695 1384 1695 c 0
 1502 1695 1639 1792 1733 1882 c 1
 1824 1805 l 1
 1689 1675 1497 1557 1328 1557 c 0
 1140 1557 1054 1690 1044 1816 c 1
1579 709 m 0
 1601 787 1611 857 1611 918 c 0
 1611 1174 1435 1287 1241 1287 c 0
 1013 1287 711 1117 599 728 c 0
 577 650 566 579 566 514 c 0
 566 277 708 134 928 134 c 0
 1159 134 1464 308 1579 709 c 0
1296 1436 m 0
 1600 1436 1796 1262 1796 966 c 0
 1796 893 1784 813 1759 727 c 0
 1632 284 1264 -15 873 -15 c 0
 601 -15 380 140 380 458 c 0
 380 532 392 615 418 707 c 0
 546 1154 913 1436 1296 1436 c 0
EndSplineSet
Validated: 1
EndChar

StartChar: obreve
Encoding: 335 335 288
Width: 1195
VWidth: 0
Flags: HW
LayerCount: 2
Fore
SplineSet
658 1377 m 1
 799 1448 l 1
 812 1360 860 1246 987 1246 c 0
 1102 1246 1240 1351 1334 1448 c 1
 1422 1365 l 1
 1287 1230 1099 1108 933 1108 c 0
 749 1108 666 1246 658 1377 c 1
828 842 m 0
 681 842 495 725 430 498 c 0
 417 452 410 407 410 366 c 0
 410 223 489 120 636 120 c 0
 804 120 976 258 1036 469 c 0
 1050 517 1056 561 1056 600 c 0
 1056 760 951 842 828 842 c 0
881 982 m 0
 1090 982 1231 871 1231 665 c 0
 1231 616 1223 561 1206 501 c 0
 1113 178 855 -20 578 -20 c 0
 367 -20 236 97 236 300 c 0
 236 352 244 409 262 471 c 0
 352 785 601 982 881 982 c 0
EndSplineSet
Validated: 1
EndChar

StartChar: Racute
Encoding: 340 340 289
Width: 1438
VWidth: 0
Flags: HW
LayerCount: 2
Fore
SplineSet
1524 1031 m 0xf8
 1472 850 1336 665 1085 611 c 1
 1311 0 l 1
 1121 0 l 1xf4
 906 593 l 1
 884 593 863 592 841 592 c 2
 631 592 l 1
 461 0 l 1
 290 0 l 1
 697 1421 l 1
 1219 1421 l 2
 1327 1421 1442 1414 1506 1316 c 0
 1532 1277 1545 1227 1545 1169 c 0
 1545 1127 1538 1081 1524 1031 c 0xf8
674 742 m 1
 919 742 l 2
 1058 742 1192 758 1290 892 c 0
 1329 945 1360 1023 1360 1094 c 0
 1360 1171 1324 1239 1222 1262 c 0
 1179 1272 1132 1272 1085 1272 c 2
 826 1272 l 1
 674 742 l 1
1501 1976 m 1
 1535 1853 l 1
 939 1558 l 1
 908 1666 l 1
 1501 1976 l 1
EndSplineSet
Validated: 1
EndChar

StartChar: racute
Encoding: 341 341 290
Width: 789
VWidth: 0
Flags: HW
LayerCount: 2
Fore
SplineSet
577 889 m 1xb0
 660 941 766 982 873 982 c 0
 936 982 996 969 1046 942 c 1
 960 813 l 1
 916 832 866 842 812 842 c 2
 810 842 l 2xd0
 729 842 643 818 562 775 c 1
 340 0 l 1
 176 0 l 1
 452 963 l 1
 567 963 l 1
 577 889 l 1xb0
1039 1549 m 1
 1096 1435 l 1
 635 1106 l 1
 585 1210 l 1
 1039 1549 l 1
EndSplineSet
Validated: 1
EndChar

StartChar: Rcommaaccent
Encoding: 342 342 291
Width: 1438
VWidth: 0
Flags: HW
LayerCount: 2
Fore
SplineSet
429 -122 m 1xe4
 609 -122 l 1xe4
 339 -512 l 1
 159 -512 l 1xe8
 429 -122 l 1xe4
674 742 m 1xf2
 919 742 l 2
 1058 742 1192 758 1290 892 c 0
 1329 945 1360 1023 1360 1094 c 0
 1360 1171 1324 1239 1222 1262 c 0
 1179 1272 1132 1272 1085 1272 c 2
 826 1272 l 1
 674 742 l 1xf2
1524 1031 m 0
 1472 850 1336 665 1085 611 c 1
 1311 0 l 1
 1121 0 l 1xe1
 906 593 l 1
 884 593 863 592 841 592 c 2
 631 592 l 1
 461 0 l 1
 290 0 l 1
 697 1421 l 1
 1219 1421 l 2
 1327 1421 1442 1414 1506 1316 c 0
 1532 1277 1545 1227 1545 1169 c 0
 1545 1127 1538 1081 1524 1031 c 0
EndSplineSet
Validated: 1
EndChar

StartChar: rcommaaccent
Encoding: 343 343 292
Width: 790
VWidth: 0
Flags: HW
LayerCount: 2
Fore
SplineSet
580 889 m 1xa8
 663 941 770 982 877 982 c 0
 941 982 1000 969 1050 942 c 1
 964 813 l 1
 920 833 870 842 816 842 c 2
 814 842 l 2xc8
 733 842 646 818 565 775 c 1
 341 -9 l 1
 177 -9 l 1
 456 963 l 1
 571 963 l 1
 580 889 l 1xa8
146 -129 m 1x84
 326 -129 l 1x84
 59 -512 l 1
 -121 -512 l 1x90
 146 -129 l 1x84
EndSplineSet
Validated: 1
EndChar

StartChar: Rcaron
Encoding: 344 344 293
Width: 1438
VWidth: 0
Flags: HW
LayerCount: 2
Fore
SplineSet
1524 1031 m 0xf8
 1472 850 1336 665 1085 611 c 1
 1311 0 l 1
 1121 0 l 1xf4
 906 593 l 1
 884 593 863 592 841 592 c 2
 631 592 l 1
 461 0 l 1
 290 0 l 1
 697 1421 l 1
 1219 1421 l 2
 1327 1421 1442 1414 1506 1316 c 0
 1532 1277 1545 1227 1545 1169 c 0
 1545 1127 1538 1081 1524 1031 c 0xf8
674 742 m 1
 919 742 l 2
 1058 742 1192 758 1290 892 c 0
 1329 945 1360 1023 1360 1094 c 0
 1360 1171 1324 1239 1222 1262 c 0
 1179 1272 1132 1272 1085 1272 c 2
 826 1272 l 1
 674 742 l 1
1146 1558 m 1
 972 1844 l 1
 1090 1932 l 1
 1210 1736 l 1
 1447 1931 l 1
 1512 1853 l 1
 1146 1558 l 1
EndSplineSet
Validated: 1
EndChar

StartChar: rcaron
Encoding: 345 345 294
Width: 789
VWidth: 0
Flags: HW
LayerCount: 2
Fore
SplineSet
577 889 m 1xb0
 660 941 766 982 873 982 c 0
 936 982 996 969 1046 942 c 1
 960 813 l 1
 916 832 866 842 812 842 c 2
 810 842 l 2xd0
 729 842 643 818 562 775 c 1
 340 0 l 1
 176 0 l 1
 452 963 l 1
 567 963 l 1
 577 889 l 1xb0
801 1105 m 1
 635 1406 l 1
 755 1498 l 1
 867 1292 l 1
 1102 1497 l 1
 1165 1417 l 1
 801 1105 l 1
EndSplineSet
Validated: 1
EndChar

StartChar: Sacute
Encoding: 346 346 295
Width: 1361
VWidth: 0
Flags: HW
LayerCount: 2
Fore
SplineSet
1501 1976 m 1
 1535 1853 l 1
 939 1558 l 1
 908 1666 l 1
 1501 1976 l 1
1232 1434 m 0
 1360 1434 1481 1406 1569 1377 c 1
 1469 1222 l 1
 1428 1235 1297 1274 1172 1274 c 0
 979 1274 793 1184 755 1050 c 0
 750 1034 748 1018 748 1004 c 0
 748 772 1350 821 1350 493 c 0
 1350 464 1345 432 1335 397 c 0
 1283 214 1067 -20 666 -20 c 0
 497 -20 384 22 262 76 c 1
 367 241 l 1
 531 173 651 148 735 148 c 0
 935 148 1104 235 1143 372 c 0
 1149 391 1151 409 1151 425 c 0
 1151 674 548 609 548 930 c 0
 548 958 552 988 562 1022 c 0
 625 1242 895 1434 1232 1434 c 0
EndSplineSet
Validated: 1
EndChar

StartChar: sacute
Encoding: 347 347 296
Width: 1005
VWidth: 0
Flags: HW
LayerCount: 2
Fore
SplineSet
862 982 m 0
 988 982 1034 963 1098 942 c 1
 1020 818 l 1
 961 835 897 854 799 854 c 0
 595 854 534 749 522 706 c 0
 520 699 519 692 519 686 c 0
 519 548 970 560 970 333 c 0
 970 315 967 296 961 275 c 0
 926 154 798 -20 452 -20 c 0
 379 -20 268 -4 143 55 c 1
 223 177 l 1
 339 130 411 109 495 109 c 0
 612 109 742 135 778 260 c 0
 780 268 781 276 781 283 c 0
 781 426 339 391 339 626 c 0
 339 646 342 668 349 692 c 0
 380 800 522 982 862 982 c 0
1108 1549 m 25
 1166 1435 l 25
 703 1106 l 25
 655 1210 l 25
 1108 1549 l 25
EndSplineSet
Validated: 1
EndChar

StartChar: Scircumflex
Encoding: 348 348 297
Width: 1361
VWidth: 0
Flags: HW
LayerCount: 2
Fore
SplineSet
1232 1434 m 0
 1360 1434 1481 1406 1569 1377 c 1
 1469 1222 l 1
 1428 1235 1297 1274 1172 1274 c 0
 979 1274 793 1184 755 1050 c 0
 750 1034 748 1018 748 1004 c 0
 748 772 1350 821 1350 493 c 0
 1350 464 1345 432 1335 397 c 0
 1283 214 1067 -20 666 -20 c 0
 497 -20 384 22 262 76 c 1
 367 241 l 1
 531 173 651 148 735 148 c 0
 935 148 1104 235 1143 372 c 0
 1149 391 1151 409 1151 425 c 0
 1151 674 548 609 548 930 c 0
 548 958 552 988 562 1022 c 0
 625 1242 895 1434 1232 1434 c 0
1269 1932 m 1
 1443 1646 l 1
 1325 1558 l 1
 1205 1754 l 1
 968 1559 l 1
 902 1637 l 1
 1269 1932 l 1
EndSplineSet
Validated: 1
EndChar

StartChar: scircumflex
Encoding: 349 349 298
Width: 1005
VWidth: 0
Flags: HW
LayerCount: 2
Fore
SplineSet
862 982 m 0
 988 982 1034 963 1098 942 c 1
 1020 818 l 1
 961 835 897 854 799 854 c 0
 595 854 534 749 522 706 c 0
 520 699 519 692 519 686 c 0
 519 548 970 560 970 333 c 0
 970 315 967 296 961 275 c 0
 926 154 798 -20 452 -20 c 0
 379 -20 268 -4 143 55 c 1
 223 177 l 1
 339 130 411 109 495 109 c 0
 612 109 742 135 778 260 c 0
 780 268 781 276 781 283 c 0
 781 426 339 391 339 626 c 0
 339 646 342 668 349 692 c 0
 380 800 522 982 862 982 c 0
976 1498 m 1
 1142 1198 l 1
 1022 1105 l 1
 910 1311 l 1
 674 1106 l 1
 611 1188 l 1
 976 1498 l 1
EndSplineSet
Validated: 1
EndChar

StartChar: Scedilla
Encoding: 350 350 299
Width: 1361
VWidth: 0
Flags: HW
LayerCount: 2
Back
SplineSet
947 -317 m 4x2f
 947 -414 866 -507 735 -507 c 4xaf
 681 -507 647 -498 532 -464 c 6
 498 -454 l 5
 528 -350 l 5x4f
 558 -359 l 6
 667 -391 705 -400 742 -400 c 4
 802 -400 834 -366 834 -330 c 4
 834 -265 750 -248 736 -243 c 6
 600 -202 l 5
 650 -20 l 5xaf
 492 -20 371 24 240 76 c 5
 298 241 l 5x1f
 481 173 609 148 693 148 c 4
 893 148 1036 235 1036 372 c 4
 1036 709 269 570 269 1022 c 4
 269 1242 484 1434 821 1434 c 4
 949 1434 1078 1406 1174 1377 c 5
 1119 1222 l 5
 1074 1235 932 1274 807 1274 c 4
 614 1274 454 1184 454 1050 c 4
 454 741 1221 856 1221 397 c 4
 1221 235 1104 32 798 -11 c 5
 767 -136 l 5
 787 -142 947 -172 947 -317 c 4x2f
EndSplineSet
Fore
SplineSet
856 -316 m 0xde
 828 -413 721 -506 590 -506 c 0
 543 -506 527 -504 368 -453 c 1
 428 -349 l 1
 542 -387 585 -399 628 -399 c 0
 688 -399 730 -364 740 -328 c 0
 742 -320 743 -313 743 -307 c 0
 743 -257 676 -245 542 -201 c 1
 643 -20 l 1xde
 485 -20 378 24 262 76 c 1
 367 241 l 1xbe
 531 173 651 148 735 148 c 0
 935 148 1104 235 1143 372 c 0
 1149 391 1151 409 1151 425 c 0
 1151 674 548 609 548 930 c 0
 548 958 552 988 562 1022 c 0
 625 1242 895 1434 1232 1434 c 0
 1360 1434 1481 1406 1569 1377 c 1
 1469 1222 l 1
 1428 1235 1297 1274 1172 1274 c 0
 979 1274 793 1184 755 1050 c 0
 750 1034 748 1018 748 1004 c 0
 748 772 1350 821 1350 493 c 0
 1350 464 1345 432 1335 397 c 0
 1289 235 1114 31 795 -12 c 1
 728 -135 l 1
 744 -140 863 -164 863 -268 c 0
 863 -282 861 -299 856 -316 c 0xde
EndSplineSet
Validated: 1
EndChar

StartChar: scedilla
Encoding: 351 351 300
Width: 1007
VWidth: 2097
Flags: HW
LayerCount: 2
Back
SplineSet
706 -315 m 4
 706 -392 668 -486 501 -486 c 4
 443 -486 368 -475 274 -447 c 5
 300 -356 l 5
 420 -392 466 -403 507 -403 c 4
 571 -403 607 -366 607 -326 c 4
 607 -254 529 -242 378 -196 c 5
 425 -20 l 5
 352 -20 250 6 130 55 c 5
 176 179 l 5
 308 130 387 109 473 109 c 4
 592 109 717 135 717 264 c 4
 717 453 154 378 154 709 c 4
 154 820 245 1007 590 1007 c 4
 718 1007 770 988 841 967 c 5
 799 842 l 5
 734 860 663 879 563 879 c 4
 355 879 324 770 324 726 c 4
 324 549 896 591 896 283 c 4
 896 170 830 -16 553 -16 c 5
 523 -136 l 5
 569 -150 706 -179 706 -315 c 4
EndSplineSet
Fore
SplineSet
521 -326 m 0xf8
 523 -318 524 -311 524 -304 c 0
 524 -250 451 -236 336 -196 c 1
 432 -20 l 1
 360 -17 257 1 143 55 c 1
 223 177 l 1
 340 130 411 109 496 109 c 0
 613 109 744 135 780 260 c 0
 782 268 783 276 783 283 c 0
 783 426 339 392 339 627 c 0
 339 647 342 668 349 692 c 0
 380 800 522 982 863 982 c 0
 990 982 1036 963 1100 942 c 1
 1022 818 l 1
 963 835 898 854 800 854 c 0
 595 854 534 749 522 706 c 0
 520 699 519 692 519 686 c 0
 519 548 972 559 972 333 c 0
 972 315 969 296 963 275 c 0xf4
 932 168 828 18 560 -14 c 1
 494 -136 l 1
 530 -148 631 -171 631 -267 c 0
 631 -281 629 -297 624 -315 c 0
 599 -401 502 -498 371 -498 c 0
 298 -498 210 -463 162 -447 c 1
 214 -356 l 1
 321 -392 362 -403 402 -403 c 0
 464 -403 510 -366 521 -326 c 0xf8
EndSplineSet
Validated: 1
EndChar

StartChar: Tcommaaccent
Encoding: 354 354 301
Width: 1210
VWidth: 0
Flags: HW
LayerCount: 2
Back
SplineSet
647 -406 m 4
 725 -406 738 -356 738 -333 c 4
 738 -267 617 -244 503 -209 c 5
 556 -18 560 -21 560 150 c 6
 560 1271 l 5
 85 1271 l 5
 85 1421 l 5
 1205 1421 l 5
 1205 1271 l 5
 730 1271 l 5
 730 160 l 6
 730 22 726 1 682 -146 c 5
 746 -165 850 -206 850 -324 c 4
 850 -414 774 -514 636 -514 c 4
 566 -514 506 -492 400 -461 c 5
 431 -357 l 5
 514 -382 591 -406 647 -406 c 4
EndSplineSet
Fore
SplineSet
533 -398 m 0
 611 -398 638 -348 645 -325 c 0
 646 -320 647 -315 647 -311 c 0
 647 -255 541 -233 445 -201 c 1
 553 -10 554 -21 603 150 c 2
 924 1271 l 1
 449 1271 l 1
 492 1421 l 1
 1612 1421 l 1
 1569 1271 l 1
 1094 1271 l 1
 776 160 l 2
 736 22 714 -35 652 -138 c 1
 701 -154 767 -185 767 -264 c 0
 767 -279 765 -297 759 -316 c 0
 733 -406 629 -506 491 -506 c 0
 421 -506 367 -484 270 -453 c 1
 331 -349 l 1
 407 -374 477 -398 533 -398 c 0
EndSplineSet
Validated: 1
EndChar

StartChar: tcommaaccent
Encoding: 355 355 302
Width: 745
VWidth: 0
Flags: HW
LayerCount: 2
Fore
SplineSet
562 1271 m 1
 726 1271 l 1
 638 963 l 1
 934 963 l 1
 897 834 l 1
 601 834 l 1
 448 299 l 2
 442 277 431 240 431 204 c 0
 431 150 455 98 549 98 c 0
 579 98 597 101 706 119 c 1
 696 9 l 1
 656 -1 577 -20 507 -27 c 1
 445 -142 l 1
 482 -154 583 -177 583 -272 c 0
 583 -286 581 -301 576 -318 c 0
 552 -403 453 -498 322 -498 c 0
 249 -498 161 -464 112 -448 c 1
 164 -358 l 1
 272 -393 314 -403 354 -403 c 0
 417 -403 462 -367 473 -328 c 0
 475 -320 476 -313 476 -307 c 0
 476 -254 405 -241 285 -201 c 1
 387 -20 l 1
 284 4 258 78 258 150 c 0
 258 200 270 250 279 281 c 2
 437 834 l 1
 307 834 l 1
 344 963 l 1
 474 963 l 1
 562 1271 l 1
EndSplineSet
Validated: 1
EndChar

StartChar: Tcaron
Encoding: 356 356 303
Width: 1210
VWidth: 0
Flags: HW
LayerCount: 2
Fore
SplineSet
1105 1558 m 1
 931 1844 l 1
 1049 1932 l 1
 1169 1736 l 1
 1406 1931 l 1
 1471 1853 l 1
 1105 1558 l 1
492 1421 m 1
 1612 1421 l 1
 1569 1271 l 1
 1094 1271 l 1
 730 0 l 1
 560 0 l 1
 924 1271 l 1
 449 1271 l 1
 492 1421 l 1
EndSplineSet
Validated: 1
EndChar

StartChar: tcaron
Encoding: 357 357 304
Width: 748
VWidth: 0
Flags: HW
LayerCount: 2
Fore
SplineSet
1067 1527 m 1xe8
 1247 1527 l 1xe8
 972 1119 l 1
 792 1119 l 1xf0
 1067 1527 l 1xe8
559 1259 m 1
 723 1259 l 1
 638 963 l 1
 936 963 l 1
 899 834 l 1
 601 834 l 1
 450 306 l 2
 444 284 434 249 434 214 c 0
 434 161 457 108 553 108 c 0
 584 108 601 111 711 128 c 1
 702 17 l 1
 652 5 543 -20 465 -20 c 0xf0
 311 -20 259 52 259 155 c 0
 259 199 269 250 284 302 c 2
 437 834 l 1
 307 834 l 1
 344 963 l 1
 474 963 l 1
 559 1259 l 1
EndSplineSet
Validated: 1
EndChar

StartChar: Utilde
Encoding: 360 360 305
Width: 1580
VWidth: 0
Flags: HW
LayerCount: 2
Fore
SplineSet
697 1421 m 1
 867 1421 l 1
 603 500 l 2
 588 448 575 397 575 349 c 0
 575 311 583 274 604 240 c 0
 626 204 689 127 866 127 c 0
 1052 127 1212 211 1292 362 c 0
 1316 407 1330 454 1343 500 c 2
 1607 1421 l 1
 1777 1421 l 1
 1548 620 l 2
 1493 428 1434 -20 824 -20 c 0
 437 -20 392 174 392 280 c 0
 392 287 392 294 392 300 c 1
 396 406 449 551 468 620 c 2
 697 1421 l 1
1452 1682 m 0
 1523 1682 1575 1766 1653 1864 c 1
 1745 1817 l 1
 1662 1710 1561 1560 1417 1560 c 0
 1259 1560 1241 1740 1149 1740 c 0
 1078 1740 1025 1656 948 1558 c 1
 856 1605 l 1
 939 1712 1040 1862 1184 1862 c 0
 1342 1862 1360 1682 1452 1682 c 0
EndSplineSet
Validated: 1
EndChar

StartChar: utilde
Encoding: 361 361 306
Width: 1168
VWidth: 0
Flags: HW
LayerCount: 2
Fore
SplineSet
1100 988 m 1xbe
 1264 988 l 1
 980 0 l 1
 865 0 l 1x7e
 854 83 l 1
 679 -1 556 -20 482 -20 c 0
 305 -20 253 70 253 186 c 0
 253 252 269 326 290 398 c 2
 459 988 l 1
 623 988 l 1
 450 386 l 2
 443 362 431 318 431 273 c 0
 431 201 462 127 595 127 c 0
 687 127 793 166 875 204 c 1
 1100 988 l 1xbe
1096 1248 m 0
 1166 1248 1219 1333 1295 1430 c 1
 1386 1383 l 1
 1304 1276 1204 1126 1062 1126 c 0
 907 1126 890 1306 800 1306 c 0
 730 1306 678 1222 602 1124 c 1
 509 1171 l 1
 591 1278 692 1428 834 1428 c 0
 989 1428 1006 1248 1096 1248 c 0
EndSplineSet
Validated: 1
EndChar

StartChar: Umacron
Encoding: 362 362 307
Width: 1580
VWidth: 0
Flags: HW
LayerCount: 2
Fore
SplineSet
697 1421 m 1
 867 1421 l 1
 603 500 l 2
 588 448 575 397 575 349 c 0
 575 311 583 274 604 240 c 0
 626 204 689 127 866 127 c 0
 1052 127 1212 211 1292 362 c 0
 1316 407 1330 454 1343 500 c 2
 1607 1421 l 1
 1777 1421 l 1
 1548 620 l 2
 1493 428 1434 -20 824 -20 c 0
 437 -20 392 174 392 280 c 0
 392 287 392 294 392 300 c 1
 396 406 449 551 468 620 c 2
 697 1421 l 1
882 1697 m 1
 1712 1697 l 1
 1675 1568 l 1
 845 1568 l 1
 882 1697 l 1
EndSplineSet
Validated: 1
EndChar

StartChar: umacron
Encoding: 363 363 308
Width: 1164
VWidth: 0
Flags: HW
LayerCount: 2
Fore
SplineSet
1100 988 m 1xbc
 1264 988 l 1
 980 0 l 1
 865 0 l 1x7c
 854 83 l 1
 679 -1 556 -20 482 -20 c 0
 305 -20 253 70 253 186 c 0
 253 252 269 326 290 398 c 2
 459 988 l 1
 623 988 l 1
 450 386 l 2
 443 362 431 318 431 273 c 0
 431 201 462 127 595 127 c 0
 687 127 793 166 875 204 c 1
 1100 988 l 1xbc
671 1333 m 1
 1257 1333 l 1
 1220 1204 l 1
 634 1204 l 1
 671 1333 l 1
EndSplineSet
Validated: 1
EndChar

StartChar: Ubreve
Encoding: 364 364 309
Width: 1580
VWidth: 0
Flags: HW
LayerCount: 2
Fore
SplineSet
897 1816 m 1
 1039 1882 l 1
 1055 1801 1107 1695 1237 1695 c 0
 1355 1695 1492 1792 1586 1882 c 1
 1677 1805 l 1
 1542 1675 1350 1557 1181 1557 c 0
 993 1557 907 1690 897 1816 c 1
697 1421 m 1
 867 1421 l 1
 603 500 l 2
 588 448 575 397 575 349 c 0
 575 311 583 274 604 240 c 0
 626 204 689 127 866 127 c 0
 1052 127 1212 211 1292 362 c 0
 1316 407 1330 454 1343 500 c 2
 1607 1421 l 1
 1777 1421 l 1
 1548 620 l 2
 1493 428 1434 -20 824 -20 c 0
 437 -20 392 174 392 280 c 0
 392 287 392 294 392 300 c 1
 396 405 433 499 468 620 c 2
 697 1421 l 1
EndSplineSet
Validated: 1
EndChar

StartChar: ubreve
Encoding: 365 365 310
Width: 1164
VWidth: 0
Flags: HW
LayerCount: 2
Fore
SplineSet
1100 988 m 1xbc
 1264 988 l 1
 980 0 l 1
 865 0 l 1x7c
 854 83 l 1
 679 -1 556 -20 482 -20 c 0
 305 -20 253 70 253 186 c 0
 253 252 269 326 290 398 c 2
 459 988 l 1
 623 988 l 1
 450 386 l 2
 443 362 431 318 431 273 c 0
 431 201 462 127 595 127 c 0
 687 127 793 166 875 204 c 1
 1100 988 l 1xbc
600 1382 m 1
 743 1448 l 1
 758 1367 808 1261 935 1261 c 0
 1050 1261 1185 1358 1277 1448 c 1
 1368 1371 l 1
 1234 1241 1046 1123 880 1123 c 0
 695 1123 609 1256 600 1382 c 1
EndSplineSet
Validated: 1
EndChar

StartChar: Uring
Encoding: 366 366 311
Width: 1580
VWidth: 0
Flags: HW
LayerCount: 2
Fore
SplineSet
1385 2007 m 0
 1483 2007 1550 1939 1550 1845 c 0
 1550 1825 1547 1805 1541 1783 c 0
 1505 1658 1377 1558 1257 1558 c 0
 1159 1558 1092 1625 1092 1720 c 0
 1092 1740 1095 1761 1101 1783 c 0
 1137 1907 1265 2007 1385 2007 c 0
1359 1916 m 0
 1284 1916 1211 1854 1191 1783 c 0
 1187 1770 1185 1757 1185 1745 c 0
 1185 1692 1220 1649 1283 1649 c 0
 1357 1649 1429 1714 1449 1783 c 0
 1453 1796 1454 1808 1454 1820 c 0
 1454 1873 1419 1916 1359 1916 c 0
697 1421 m 1
 867 1421 l 1
 603 500 l 2
 588 448 575 397 575 349 c 0
 575 311 583 274 604 240 c 0
 626 204 689 127 866 127 c 0
 1052 127 1212 211 1292 362 c 0
 1316 407 1330 454 1343 500 c 2
 1607 1421 l 1
 1777 1421 l 1
 1548 620 l 2
 1493 428 1434 -20 824 -20 c 0
 437 -20 392 174 392 280 c 0
 392 287 392 294 392 300 c 1
 396 405 433 499 468 620 c 2
 697 1421 l 1
EndSplineSet
Validated: 1
EndChar

StartChar: uring
Encoding: 367 367 312
Width: 1169
VWidth: 0
Flags: HW
LayerCount: 2
Fore
SplineSet
1104 988 m 1xbf80
 1268 988 l 1
 985 0 l 1
 870 0 l 1x7f80
 859 83 l 1
 683 -1 558 -20 484 -20 c 0
 306 -20 253 69 253 186 c 0
 253 252 269 326 290 398 c 2
 459 988 l 1
 623 988 l 1
 450 386 l 2
 443 362 431 318 431 273 c 0
 431 201 462 127 597 127 c 0
 690 127 796 166 879 204 c 1
 1104 988 l 1xbf80
1035 1573 m 0
 1131 1573 1196 1506 1196 1413 c 0
 1196 1393 1193 1371 1187 1349 c 0
 1151 1224 1025 1124 907 1124 c 0
 811 1124 746 1191 746 1285 c 0
 746 1305 749 1327 755 1349 c 0
 791 1473 917 1573 1035 1573 c 0
1009 1482 m 0
 936 1482 865 1420 845 1349 c 0
 841 1336 839 1322 839 1309 c 0
 839 1257 872 1215 933 1215 c 0
 1005 1215 1075 1280 1095 1349 c 0
 1099 1362 1101 1375 1101 1387 c 0
 1101 1440 1067 1482 1009 1482 c 0
EndSplineSet
Validated: 1
EndChar

StartChar: Wcircumflex
Encoding: 372 372 313
Width: 2155
VWidth: 0
Flags: HW
LayerCount: 2
Fore
SplineSet
547 1421 m 1
 729 1421 l 1
 744 227 l 1
 1446 1421 l 1
 1617 1421 l 1
 1645 227 l 1
 2334 1421 l 1
 2502 1421 l 1
 1669 0 l 1
 1488 0 l 1
 1455 1187 l 1
 766 0 l 1
 585 0 l 1
 547 1421 l 1
1685 1936 m 1
 1859 1650 l 1
 1742 1562 l 1
 1622 1758 l 1
 1384 1563 l 1
 1319 1641 l 1
 1685 1936 l 1
EndSplineSet
Validated: 1
EndChar

StartChar: wcircumflex
Encoding: 373 373 314
Width: 1654
VWidth: 0
Flags: HW
LayerCount: 2
Fore
SplineSet
342 988 m 1
 517 988 l 1
 540 159 l 1
 1026 988 l 1
 1183 988 l 1
 1203 160 l 1
 1701 988 l 1
 1876 988 l 1
 1237 0 l 1
 1076 0 l 1
 1049 801 l 1
 566 0 l 1
 405 0 l 1
 342 988 l 1
1257 1503 m 1
 1425 1217 l 1
 1310 1129 l 1
 1195 1325 l 1
 961 1130 l 1
 898 1208 l 1
 1257 1503 l 1
EndSplineSet
Validated: 1
EndChar

StartChar: Ycircumflex
Encoding: 374 374 315
Width: 1263
VWidth: 0
Flags: HW
LayerCount: 2
Fore
SplineSet
507 1421 m 1
 708 1421 l 1
 902 834 l 1
 1440 1421 l 1
 1630 1421 l 1
 932 673 l 1
 739 0 l 1
 569 0 l 1
 762 673 l 1
 507 1421 l 1
1232 1932 m 1
 1406 1646 l 1
 1289 1558 l 1
 1169 1754 l 1
 931 1559 l 1
 865 1637 l 1
 1232 1932 l 1
EndSplineSet
Validated: 1
EndChar

StartChar: ycircumflex
Encoding: 375 375 316
Width: 1039
VWidth: 0
Flags: HW
LayerCount: 2
Fore
SplineSet
332 988 m 1
 502 988 l 1
 574 150 l 1
 1101 988 l 1
 1271 988 l 1
 276 -531 l 1
 101 -531 l 1
 444 -38 l 1
 332 988 l 1
967 1498 m 1
 1134 1212 l 1
 1018 1124 l 1
 903 1320 l 1
 668 1125 l 1
 603 1203 l 1
 967 1498 l 1
EndSplineSet
Validated: 1
EndChar

StartChar: Zacute
Encoding: 377 377 317
Width: 1358
VWidth: 0
Flags: HW
LayerCount: 2
Fore
SplineSet
592 1421 m 1
 1678 1421 l 1
 1647 1312 l 1
 424 150 l 1
 1341 150 l 1
 1298 0 l 1
 155 0 l 1
 187 111 l 1
 1392 1271 l 1
 549 1271 l 1
 592 1421 l 1
1528 1976 m 1
 1562 1853 l 1
 966 1558 l 1
 935 1666 l 1
 1528 1976 l 1
EndSplineSet
Validated: 1
EndChar

StartChar: zacute
Encoding: 378 378 318
Width: 1058
VWidth: 0
Flags: HW
LayerCount: 2
Fore
SplineSet
422 963 m 1
 1157 963 l 1
 1132 876 l 1
 391 129 l 1
 942 129 l 1
 905 0 l 1
 146 0 l 1
 171 87 l 1
 910 834 l 1
 385 834 l 1
 422 963 l 1
1113 1549 m 25
 1170 1435 l 25
 709 1106 l 25
 661 1211 l 25
 1113 1549 l 25
EndSplineSet
Validated: 1
EndChar

StartChar: Zdotaccent
Encoding: 379 379 319
Width: 1358
VWidth: 0
Flags: HW
LayerCount: 2
Fore
SplineSet
592 1421 m 1
 1678 1421 l 1
 1647 1312 l 1
 424 150 l 1
 1341 150 l 1
 1298 0 l 1
 155 0 l 1
 187 111 l 1
 1392 1271 l 1
 549 1271 l 1
 592 1421 l 1
1130 1829 m 1
 1340 1829 l 1
 1280 1619 l 1
 1070 1619 l 1
 1130 1829 l 1
EndSplineSet
Validated: 1
EndChar

StartChar: zdotaccent
Encoding: 380 380 320
Width: 1063
VWidth: 0
Flags: HW
LayerCount: 2
Fore
SplineSet
422 963 m 25
 1161 963 l 17
 1137 876 l 1
 391 129 l 9
 947 129 l 25
 910 0 l 25
 146 0 l 17
 171 87 l 1
 915 834 l 9
 385 834 l 25
 422 963 l 25
830 1421 m 1
 1024 1421 l 1
 969 1232 l 1
 775 1232 l 1
 830 1421 l 1
EndSplineSet
Validated: 1
EndChar

StartChar: gcommaaccent
Encoding: 291 291 321
Width: 1170
VWidth: 2097
Flags: HW
LayerCount: 2
Fore
SplineSet
862 981 m 0xe9
 916 981 994 972 1110 902 c 1
 1149 963 l 1
 1264 963 l 1xd9
 967 -72 l 2
 939 -168 819 -543 349 -543 c 0
 243 -543 143 -517 63 -479 c 1
 144 -360 l 1
 193 -381 272 -406 367 -406 c 0
 464 -406 683 -375 784 -120 c 0
 801 -79 816 -29 827 10 c 2
 837 46 l 1
 757 9 658 -20 559 -20 c 0
 394 -20 233 63 233 290 c 0
 233 344 242 406 262 477 c 0
 374 868 696 981 862 981 c 0xe9
643 113 m 0
 728 113 813 141 872 168 c 1
 1051 794 l 1
 935 846 857 848 834 848 c 0xe9
 651 848 488 708 427 495 c 0
 412 444 405 395 405 350 c 0
 405 212 478 113 643 113 c 0
1041 1547 m 1xcb
 1221 1547 l 1xcb
 946 1139 l 1
 766 1139 l 1xcd
 1041 1547 l 1xcb
EndSplineSet
Validated: 1
EndChar

StartChar: eng
Encoding: 331 331 322
Width: 1163
VWidth: 2097
Flags: HW
LayerCount: 2
Fore
SplineSet
836 835 m 0xec
 784 835 692 822 557 760 c 1
 338 -5 l 1
 174 -5 l 1
 452 963 l 1
 567 963 l 1xdc
 578 880 l 1
 752 964 877 982 945 982 c 0
 1133 982 1179 877 1179 769 c 0
 1179 701 1161 632 1148 587 c 2
 973 -22 l 2
 921 -203 825 -347 609 -347 c 0
 532 -347 441 -322 398 -310 c 1
 457 -188 l 1
 555 -206 570 -209 600 -209 c 0
 752 -209 794 -73 809 -20 c 2
 982 581 l 2
 989 606 1001 648 1001 691 c 0
 1001 762 970 835 836 835 c 0xec
EndSplineSet
Validated: 1
EndChar

StartChar: uni0237
Encoding: 567 567 323
Width: 519
VWidth: 2097
Flags: HW
LayerCount: 2
Fore
SplineSet
452 963 m 1
 616 963 l 1
 298 -143 l 2
 267 -251 210 -441 -75 -534 c 1
 -101 -412 l 1
 70 -340 113 -220 130 -160 c 2
 452 963 l 1
EndSplineSet
Validated: 1
EndChar

StartChar: Eng
Encoding: 330 330 324
Width: 1648
VWidth: 2097
Flags: HW
LayerCount: 2
Fore
SplineSet
1428 -35 m 2xec
 1352 -299 1163 -365 1013 -365 c 0
 968 -365 898 -359 796 -330 c 1
 856 -208 l 1
 928 -223 975 -228 1006 -228 c 0
 1141 -228 1226 -151 1265 -10 c 2
 1514 857 l 2
 1531 917 1554 999 1554 1077 c 0
 1554 1166 1524 1251 1420 1293 c 0
 1382 1308 1338 1314 1293 1314 c 0xec
 1202 1314 1058 1287 798 1178 c 1
 460 0 l 1
 290 0 l 1
 697 1421 l 1
 808 1421 l 1xdc
 827 1328 l 1
 1141 1454 1301 1483 1409 1483 c 0
 1640 1483 1749 1353 1749 1169 c 0
 1749 1142 1747 1114 1742 1085 c 0
 1733 1028 1717 970 1700 912 c 2
 1428 -35 l 2xec
EndSplineSet
Validated: 1
EndChar

StartChar: Lslash
Encoding: 321 321 325
Width: 1133
VWidth: 2097
Flags: HW
LayerCount: 2
Fore
SplineSet
697 1421 m 1
 867 1421 l 1
 697 826 l 1
 1000 976 l 1
 951 804 l 1
 648 654 l 1
 503 149 l 1
 1141 149 l 1
 1098 0 l 1
 290 0 l 1
 449 555 l 1
 281 472 l 1
 331 644 l 1
 498 727 l 1
 697 1421 l 1
EndSplineSet
Validated: 1
EndChar

StartChar: lslash
Encoding: 322 322 326
Width: 678
VWidth: 2097
Flags: HW
LayerCount: 2
Fore
SplineSet
658 1511 m 1
 822 1511 l 1
 631 848 l 1
 874 971 l 1
 831 821 l 1
 588 698 l 1
 388 0 l 1
 224 0 l 1
 397 604 l 1
 238 523 l 1
 280 672 l 1
 440 753 l 1
 658 1511 l 1
EndSplineSet
Validated: 1
EndChar

StartChar: kgreenlandic
Encoding: 312 312 327
Width: 1061
VWidth: 0
Flags: HW
LayerCount: 2
Fore
SplineSet
452 963 m 1xe0
 616 963 l 1
 340 0 l 1
 176 0 l 1
 452 963 l 1xe0
1040 963 m 1xf0
 1210 963 l 1xf0
 684 514 l 1
 987 0 l 1
 786 0 l 1xe8
 497 493 l 1
 1040 963 l 1xf0
EndSplineSet
Validated: 1
EndChar

StartChar: napostrophe
Encoding: 329 329 328
Width: 1333
VWidth: 2097
Flags: HW
LayerCount: 2
Fore
SplineSet
621 963 m 1xaf
 736 963 l 1xaf
 748 879 l 1
 923 963 1046 983 1120 983 c 0
 1298 983 1351 894 1351 779 c 0
 1351 715 1335 644 1315 575 c 2
 1150 0 l 25
 985 0 l 1
 1152 583 l 2
 1159 608 1171 650 1171 693 c 0
 1171 763 1140 835 1006 835 c 0xcf
 915 835 809 798 727 761 c 1
 509 0 l 1
 345 0 l 1
 621 963 l 1xaf
544 1421 m 1
 694 1421 l 1
 563 963 l 1
 413 963 l 1x9f
 544 1421 l 1
EndSplineSet
Validated: 1
EndChar

StartChar: ogonek
Encoding: 731 731 329
Width: 1084
VWidth: 0
Flags: HW
LayerCount: 2
Fore
SplineSet
506 -544 m 0
 409 -544 354 -488 354 -403 c 0
 354 -382 357 -359 364 -335 c 0
 419 -143 672 77 939 144 c 1
 936 32 l 1
 718 -40 548 -195 517 -302 c 0
 513 -315 512 -327 512 -338 c 0
 512 -384 542 -412 593 -412 c 0
 626 -412 678 -400 773 -352 c 1
 795 -442 l 1
 736 -477 610 -544 506 -544 c 0
EndSplineSet
Validated: 1
EndChar

StartChar: hungarumlaut
Encoding: 733 733 330
Width: 1652
VWidth: 2097
Flags: HW
LayerCount: 2
Fore
SplineSet
1739 1603 m 1
 1785 1487 l 1
 1204 1148 l 1
 1162 1250 l 1
 1739 1603 l 1
1219 1603 m 1
 1265 1487 l 1
 684 1148 l 1
 642 1250 l 1
 1219 1603 l 1
EndSplineSet
Validated: 1
EndChar

StartChar: uni02EE
Encoding: 750 750 331
Width: 835
VWidth: 2097
Flags: HW
LayerCount: 2
Fore
SplineSet
933 1511 m 1
 1118 1511 l 1
 996 1083 l 1
 811 1083 l 1
 933 1511 l 1
543 1511 m 1
 728 1511 l 1
 606 1083 l 1
 421 1083 l 1
 543 1511 l 1
EndSplineSet
Validated: 1
EndChar

StartChar: uni0302
Encoding: 770 770 332
Width: 1479
VWidth: 2097
Flags: HW
LayerCount: 2
Fore
SplineSet
1167 1541 m 1
 1341 1255 l 1
 1223 1167 l 1
 1103 1363 l 1
 866 1168 l 1
 800 1246 l 1
 1167 1541 l 1
EndSplineSet
Validated: 1
EndChar

StartChar: Tbar
Encoding: 358 358 333
Width: 1210
VWidth: 2097
Flags: HW
LayerCount: 2
Fore
SplineSet
492 1421 m 1
 1612 1421 l 1
 1569 1271 l 1
 1094 1271 l 1
 946 753 l 1
 1303 753 l 1
 1260 603 l 1
 903 603 l 1
 730 0 l 1
 560 0 l 1
 733 603 l 1
 427 603 l 1
 470 753 l 1
 776 753 l 1
 924 1271 l 1
 449 1271 l 1
 492 1421 l 1
EndSplineSet
Validated: 1
EndChar

StartChar: tbar
Encoding: 359 359 334
Width: 743
VWidth: 2097
Flags: HW
LayerCount: 2
Fore
SplineSet
696 17 m 1
 646 5 541 -20 464 -20 c 0
 311 -20 260 54 260 157 c 0
 260 201 269 251 284 302 c 2
 331 465 l 1
 202 465 l 1
 233 574 l 1
 362 574 l 1
 437 834 l 1
 307 834 l 1
 344 963 l 1
 474 963 l 1
 562 1271 l 1
 726 1271 l 1
 638 963 l 1
 932 963 l 1
 895 834 l 1
 601 834 l 1
 526 574 l 1
 820 574 l 1
 789 465 l 1
 495 465 l 1
 449 305 l 2
 443 283 433 249 433 214 c 0
 433 161 456 108 551 108 c 0
 581 108 598 111 706 128 c 1
 696 17 l 1
EndSplineSet
Validated: 1
EndChar

StartChar: Hbar
Encoding: 294 294 335
Width: 1600
VWidth: 2097
Flags: HW
LayerCount: 2
Fore
SplineSet
1627 1421 m 1
 1797 1421 l 1
 1754 1271 l 1
 1904 1271 l 1
 1865 1133 l 1
 1715 1133 l 1
 1390 0 l 1
 1220 0 l 1
 1409 658 l 1
 649 658 l 1
 460 0 l 1
 290 0 l 1
 615 1133 l 1
 465 1133 l 1
 504 1271 l 1
 654 1271 l 1
 697 1421 l 1
 867 1421 l 1
 824 1271 l 1
 1584 1271 l 1
 1627 1421 l 1
1545 1133 m 1
 785 1133 l 1
 692 808 l 1
 1452 808 l 1
 1545 1133 l 1
EndSplineSet
Validated: 1
EndChar

StartChar: hbar
Encoding: 295 295 336
Width: 1175
VWidth: 2097
Flags: HW
LayerCount: 2
Back
SplineSet
567 115 m 4xbe
 482 115 406 143 354 171 c 5
 354 831 l 5
 403 853 483 879 569 879 c 4
 711 879 898 804 898 503 c 4
 898 188 699 115 567 115 c 4xbe
1058 477 m 4
 1058 826 853 1008 593 1008 c 4
 497 1008 420 984 354 955 c 5
 354 1177 l 5
 622 1177 l 5
 622 1306 l 5
 354 1306 l 5
 354 1511 l 5
 190 1511 l 5
 190 1306 l 5
 55 1306 l 5
 55 1177 l 5
 190 1177 l 5
 190 0 l 5
 304 0 l 5x7e
 331 62 l 5
 431 3 534 -20 621 -20 c 4
 817 -20 1058 102 1058 477 c 4
EndSplineSet
Fore
SplineSet
619 1511 m 1
 783 1511 l 1
 720 1293 l 1
 1035 1293 l 1
 998 1164 l 1
 683 1164 l 1
 604 888 l 1
 679 923 824 981 953 981 c 0
 1131 981 1192 893 1192 767 c 0
 1192 710 1179 646 1160 578 c 2
 994 0 l 1
 826 0 l 1
 993 584 l 2
 1000 607 1011 649 1011 691 c 0
 1011 761 980 835 846 835 c 0
 794 835 702 822 567 761 c 1
 349 0 l 1
 185 0 l 1
 519 1164 l 1
 387 1164 l 1
 424 1293 l 1
 556 1293 l 1
 619 1511 l 1
EndSplineSet
Validated: 1
EndChar

StartChar: dcroat
Encoding: 273 273 337
Width: 1221
VWidth: 2097
Flags: HW
LayerCount: 2
Back
SplineSet
621 115 m 0xbe
 706 115 782 143 834 171 c 1
 834 831 l 1
 785 853 705 879 619 879 c 0
 477 879 290 804 290 503 c 0
 290 188 489 115 621 115 c 0xbe
130 477 m 0
 130 826 335 1008 595 1008 c 0
 691 1008 768 984 834 955 c 1
 834 1177 l 1
 566 1177 l 1
 566 1306 l 1
 834 1306 l 1
 834 1511 l 1
 998 1511 l 1
 998 1306 l 1
 1148 1306 l 1
 1148 1177 l 1
 998 1177 l 1
 998 0 l 1
 884 0 l 1x7e
 857 62 l 1
 757 3 654 -20 567 -20 c 0
 371 -20 130 102 130 477 c 0
EndSplineSet
Fore
SplineSet
852 854 m 0xbe
 714 854 511 781 427 490 c 0
 411 433 403 384 403 342 c 0
 403 161 537 115 642 115 c 0
 725 115 808 142 866 169 c 1
 1049 808 l 1
 1007 829 936 854 852 854 c 0xbe
865 983 m 0
 959 983 1028 959 1084 930 c 1
 1151 1163 l 1
 889 1163 l 1
 926 1292 l 1
 1188 1292 l 1
 1250 1511 l 1
 1414 1511 l 1
 1352 1292 l 1
 1483 1292 l 1
 1446 1163 l 1
 1315 1163 l 1
 981 0 l 1
 867 0 l 1x7e
 858 62 l 1
 743 3 635 -20 550 -20 c 0
 394 -20 231 58 231 283 c 0
 231 335 240 396 260 465 c 0
 358 806 610 983 865 983 c 0
EndSplineSet
Validated: 1
EndChar

StartChar: Ohungarumlaut
Encoding: 336 336 338
Width: 1686
VWidth: 0
Flags: HW
LayerCount: 2
Fore
SplineSet
2016 1994 m 1
 2064 1878 l 1
 1482 1539 l 1
 1440 1641 l 1
 2016 1994 l 1
1496 1994 m 1
 1544 1878 l 1
 962 1539 l 1
 920 1641 l 1
 1496 1994 l 1
1579 709 m 0
 1601 787 1611 857 1611 918 c 0
 1611 1174 1435 1287 1241 1287 c 0
 1013 1287 711 1117 599 728 c 0
 577 650 566 579 566 514 c 0
 566 277 708 134 928 134 c 0
 1159 134 1464 308 1579 709 c 0
1296 1436 m 0
 1600 1436 1796 1262 1796 966 c 0
 1796 893 1784 813 1759 727 c 0
 1632 284 1264 -15 873 -15 c 0
 601 -15 380 140 380 458 c 0
 380 532 392 615 418 707 c 0
 546 1154 913 1436 1296 1436 c 0
EndSplineSet
Validated: 1
EndChar

StartChar: ohungarumlaut
Encoding: 337 337 339
Width: 1193
VWidth: 0
Flags: HW
LayerCount: 2
Fore
SplineSet
881 982 m 0
 1090 982 1231 871 1231 665 c 0
 1231 616 1223 561 1206 501 c 0
 1113 178 855 -20 578 -20 c 0
 367 -20 236 97 236 300 c 0
 236 352 244 409 262 471 c 0
 352 785 601 982 881 982 c 0
828 842 m 0
 681 842 495 725 430 498 c 0
 417 452 410 407 410 366 c 0
 410 223 489 120 636 120 c 0
 804 120 976 258 1036 469 c 0
 1050 517 1056 561 1056 600 c 0
 1056 760 951 842 828 842 c 0
1494 1549 m 25
 1551 1435 l 25
 1086 1106 l 25
 1038 1210 l 25
 1494 1549 l 25
1062 1549 m 25
 1119 1435 l 25
 658 1106 l 25
 610 1210 l 25
 1062 1549 l 25
EndSplineSet
Validated: 1
EndChar

StartChar: Aogonek
Encoding: 260 260 340
Width: 1383
VWidth: 0
Flags: HW
LayerCount: 2
Fore
SplineSet
1042 1421 m 1
 1235 1421 l 1
 1333 0 l 1
 977 0 847 -282 841 -304 c 0
 838 -316 836 -327 836 -339 c 0
 836 -376 855 -410 914 -410 c 0
 955 -410 1014 -394 1097 -352 c 1
 1119 -442 l 1
 1051 -483 930 -544 830 -544 c 0
 735 -544 675 -490 675 -404 c 0
 675 -385 679 -364 685 -341 c 0
 735 -166 975 24 1156 78 c 1
 1135 413 l 1
 549 413 l 1
 287 0 l 1
 130 0 l 1
 1042 1421 l 1
1084 1255 m 1
 643 562 l 1
 1126 562 l 1
 1084 1255 l 1
EndSplineSet
Validated: 1
EndChar

StartChar: aogonek
Encoding: 261 261 341
Width: 1061
VWidth: 0
Flags: HW
LayerCount: 2
Fore
SplineSet
713 834 m 0
 620 834 498 805 441 791 c 1
 444 909 l 1
 577 954 692 969 779 969 c 0
 1006 969 1081 885 1081 762 c 0
 1081 721 1073 676 1059 628 c 2
 866 -45 l 1
 675 -131 500 -198 465 -320 c 0
 462 -331 460 -341 460 -351 c 0
 460 -394 490 -422 541 -422 c 0
 574 -422 624 -411 718 -366 c 1
 742 -449 l 1
 684 -481 559 -543 456 -543 c 0
 360 -543 303 -489 303 -409 c 0
 303 -391 306 -372 312 -352 c 0
 370 -149 675 -28 761 8 c 1
 750 85 l 1
 654 30 540 -17 432 -17 c 0
 282 -17 184 77 184 194 c 0
 184 214 187 235 193 256 c 0
 219 347 313 475 529 521 c 0
 597 536 687 548 871 548 c 1
 889 612 l 2
 897 639 905 671 905 703 c 0
 905 770 868 834 713 834 c 0
517 117 m 0
 604 117 696 152 770 197 c 1
 835 424 l 1
 796 424 l 2
 632 424 510 421 422 352 c 1
 377 316 355 272 355 233 c 0
 355 170 411 117 517 117 c 0
EndSplineSet
Validated: 1
EndChar

StartChar: Eogonek
Encoding: 280 280 342
Width: 1283
VWidth: 0
Flags: HW
LayerCount: 2
Fore
SplineSet
697 1421 m 1
 1530 1421 l 1
 1487 1271 l 1
 824 1271 l 1
 691 807 l 1
 1299 807 l 1
 1256 657 l 1
 648 657 l 1
 503 150 l 1
 1166 150 l 1
 1131 28 l 1
 913 -101 752 -180 716 -304 c 0
 713 -316 711 -328 711 -338 c 0
 711 -382 741 -410 792 -410 c 0
 857 -410 946 -365 972 -351 c 1
 995 -441 l 1
 930 -481 810 -543 706 -543 c 0
 608 -543 552 -488 552 -405 c 0
 552 -385 555 -363 562 -340 c 0
 609 -175 769 -71 890 0 c 1
 290 0 l 1
 697 1421 l 1
EndSplineSet
Validated: 1
EndChar

StartChar: eogonek
Encoding: 281 281 343
Width: 1092
VWidth: 0
Flags: HW
LayerCount: 2
Fore
SplineSet
251 435 m 0xdf
 367 838 667 972 876 972 c 0
 1085 972 1144 869 1144 738 c 0
 1144 654 1120 559 1095 473 c 2
 1073 396 l 1
 403 396 l 1
 396 373 393 351 393 330 c 0
 393 205 503 108 687 108 c 0xdf
 753 108 838 121 918 144 c 1
 915 32 l 1xbf
 702 -35 527 -206 496 -314 c 0
 492 -327 490 -340 490 -351 c 0
 490 -395 519 -423 569 -423 c 0
 601 -423 652 -412 746 -367 c 1
 770 -450 l 1
 696 -492 581 -544 484 -544 c 0
 387 -544 333 -491 333 -410 c 0
 333 -308 419 -163 613 -23 c 1
 371 -23 225 70 225 271 c 0
 225 319 233 374 251 435 c 0xdf
800 830 m 0
 619 830 487 672 443 520 c 1
 949 520 l 1
 964 572 973 622 973 666 c 0
 973 761 930 830 800 830 c 0
EndSplineSet
Validated: 1
EndChar

StartChar: Iogonek
Encoding: 302 302 344
Width: 730
VWidth: 0
Flags: HW
LayerCount: 2
Fore
SplineSet
77 -544 m 0
 -25 -544 -76 -487 -76 -406 c 0
 -76 -272 62 -73 334 49 c 1
 727 1421 l 1
 897 1421 l 1
 499 30 l 1
 191 -115 107 -236 88 -303 c 0
 85 -315 83 -326 83 -337 c 0
 83 -381 111 -412 165 -412 c 0
 197 -412 249 -400 344 -352 c 1
 366 -442 l 1
 297 -483 178 -544 77 -544 c 0
EndSplineSet
Validated: 1
EndChar

StartChar: iogonek
Encoding: 303 303 345
Width: 520
VWidth: 0
Flags: HW
LayerCount: 2
Fore
SplineSet
-82 -555 m 0
 -184 -555 -232 -499 -232 -419 c 0
 -232 -274 -77 -49 200 81 c 1
 460 988 l 1
 624 988 l 1
 347 22 l 1
 155 -41 -33 -189 -68 -311 c 0
 -72 -324 -74 -336 -74 -347 c 0
 -74 -393 -44 -422 6 -422 c 0
 51 -422 114 -397 183 -363 c 1
 206 -451 l 1
 154 -483 25 -555 -82 -555 c 0
569 1421 m 1xf8
 763 1421 l 1
 709 1232 l 1
 515 1232 l 1
 569 1421 l 1xf8
EndSplineSet
Validated: 1
EndChar

StartChar: Uogonek
Encoding: 370 370 346
Width: 1580
VWidth: 0
Flags: HW
LayerCount: 2
Fore
SplineSet
427 485 m 0
 440 530 455 575 468 620 c 2
 697 1421 l 1
 867 1421 l 1
 603 500 l 2
 588 448 575 397 575 349 c 0
 575 311 583 274 604 240 c 0
 626 204 689 127 866 127 c 0
 1052 127 1212 211 1292 362 c 0
 1316 407 1330 454 1343 500 c 2
 1607 1421 l 1
 1777 1421 l 1
 1513 494 l 2
 1422 177 1308 105 1085 12 c 0
 826 -96 733 -239 715 -302 c 0
 711 -315 710 -327 710 -338 c 0
 710 -384 740 -412 792 -412 c 0
 856 -412 945 -365 970 -351 c 1
 993 -443 l 1
 925 -486 806 -545 702 -545 c 0
 599 -545 551 -488 551 -408 c 0
 551 -294 647 -132 815 -20 c 1
 470 -20 393 136 393 286 c 0
 393 361 412 434 427 485 c 0
EndSplineSet
Validated: 1
EndChar

StartChar: uogonek
Encoding: 371 371 347
Width: 1172
VWidth: 0
Flags: HW
LayerCount: 2
Fore
SplineSet
424 -354 m 0
 467 -203 637 -90 872 7 c 1
 861 81 l 1
 755 30 614 -20 494 -20 c 0
 450 -20 409 -14 373 2 c 0
 282 41 252 110 252 193 c 0
 252 258 270 331 291 404 c 0
 295 419 304 433 308 448 c 2
 456 963 l 1
 620 963 l 1
 454 384 l 2
 446 356 434 314 434 272 c 0
 434 218 454 165 526 139 c 0
 548 131 573 127 601 127 c 0
 684 127 788 159 882 202 c 1
 1100 963 l 1
 1264 963 l 1
 975 -45 l 1
 794 -128 612 -198 577 -319 c 0
 573 -332 572 -343 572 -354 c 0
 572 -395 598 -419 650 -419 c 0
 692 -419 752 -404 830 -367 c 1
 854 -449 l 1
 736 -515 640 -543 569 -543 c 0
 467 -543 415 -487 415 -411 c 0
 415 -393 418 -374 424 -354 c 0
EndSplineSet
Validated: 1
EndChar

StartChar: Uhungarumlaut
Encoding: 368 368 348
Width: 1580
VWidth: 0
Flags: HW
LayerCount: 2
Fore
SplineSet
697 1421 m 1
 867 1421 l 1
 603 500 l 2
 588 448 575 397 575 349 c 0
 575 311 583 274 604 240 c 0
 626 204 689 127 866 127 c 0
 1052 127 1212 211 1292 362 c 0
 1316 407 1330 454 1343 500 c 2
 1607 1421 l 1
 1777 1421 l 1
 1548 620 l 2
 1493 428 1434 -20 824 -20 c 0
 437 -20 392 174 392 280 c 0
 392 287 392 294 392 300 c 1
 396 405 433 499 468 620 c 2
 697 1421 l 1
1437 1984 m 1
 1484 1868 l 1
 902 1529 l 1
 861 1631 l 1
 1437 1984 l 1
1957 1984 m 1
 2004 1868 l 1
 1422 1529 l 1
 1381 1631 l 1
 1957 1984 l 1
EndSplineSet
Validated: 1
EndChar

StartChar: uhungarumlaut
Encoding: 369 369 349
Width: 1164
VWidth: 0
Flags: HW
LayerCount: 2
Fore
SplineSet
1100 988 m 1xb8
 1264 988 l 1
 980 0 l 1
 865 0 l 1x78
 854 83 l 1
 679 -1 556 -20 482 -20 c 0
 305 -20 253 70 253 186 c 0
 253 252 269 326 290 398 c 2
 459 988 l 1
 623 988 l 1
 450 386 l 2
 443 362 431 318 431 273 c 0
 431 201 462 127 595 127 c 0
 687 127 793 166 875 204 c 1
 1100 988 l 1xb8
1053 1549 m 25
 1111 1440 l 25
 654 1125 l 25
 603 1225 l 25
 1053 1549 l 25
1504 1549 m 25
 1563 1440 l 25
 1102 1125 l 25
 1052 1225 l 25
 1504 1549 l 25
EndSplineSet
Validated: 1
EndChar

StartChar: quotereversed
Encoding: 8219 8219 350
Width: 450
VWidth: 2097
Flags: HW
LayerCount: 2
Fore
SplineSet
718 1511 m 5xc0
 719 1078 l 5
 524 1078 l 5xa0
 523 1511 l 5
 718 1511 l 5xc0
EndSplineSet
Validated: 1
EndChar

StartChar: uni201F
Encoding: 8223 8223 351
Width: 830
VWidth: 2097
Flags: HW
LayerCount: 2
Fore
SplineSet
718 1511 m 5xc0
 719 1078 l 5
 524 1078 l 5xa0
 523 1511 l 5
 718 1511 l 5xc0
1098 1511 m 5x90
 1099 1078 l 5
 904 1078 l 5x88
 903 1511 l 5
 1098 1511 l 5x90
EndSplineSet
Validated: 1
EndChar

StartChar: exclamdbl
Encoding: 8252 8252 352
Width: 1300
VWidth: 0
Flags: HW
LayerCount: 2
Fore
SplineSet
282 200 m 1xe0
 482 200 l 1
 425 0 l 1
 225 0 l 1
 282 200 l 1xe0
647 1421 m 1xd0
 817 1421 l 1
 541 458 l 1
 371 458 l 1
 647 1421 l 1xd0
932 200 m 1xc8
 1132 200 l 1
 1075 0 l 1
 875 0 l 1
 932 200 l 1xc8
1297 1421 m 1xc4
 1467 1421 l 1
 1191 458 l 1
 1021 458 l 1
 1297 1421 l 1xc4
EndSplineSet
Validated: 1
EndChar

StartChar: uni204B
Encoding: 8267 8267 353
Width: 1338
VWidth: 2097
Flags: HW
LayerCount: 2
Fore
SplineSet
1533 1133 m 0xf0
 1450 843 1212 686 969 686 c 1
 772 0 l 1
 600 0 l 1
 990 1361 l 1xe8
 750 1361 l 1
 360 0 l 1
 190 0 l 1
 623 1511 l 1
 1161 1511 l 2
 1309 1511 1439 1502 1509 1406 c 0
 1537 1367 1552 1317 1552 1258 c 0
 1552 1220 1546 1178 1533 1133 c 0xf0
EndSplineSet
Validated: 1
EndChar

StartChar: minute
Encoding: 8242 8242 354
Width: 405
VWidth: 0
Flags: HW
LayerCount: 2
Fore
SplineSet
543 1511 m 1
 728 1511 l 1
 606 1083 l 1
 421 1083 l 1
 543 1511 l 1
EndSplineSet
Validated: 1
EndChar

StartChar: second
Encoding: 8243 8243 355
Width: 810
VWidth: 0
Flags: HW
LayerCount: 2
Fore
SplineSet
543 1511 m 1
 728 1511 l 1
 606 1083 l 1
 421 1083 l 1
 543 1511 l 1
948 1511 m 1
 1133 1511 l 1
 1011 1083 l 1
 826 1083 l 1
 948 1511 l 1
EndSplineSet
Validated: 1
EndChar

StartChar: uni2034
Encoding: 8244 8244 356
Width: 1215
VWidth: 0
Flags: HW
CounterMasks: 1 70
LayerCount: 2
Fore
SplineSet
543 1511 m 1
 728 1511 l 1
 606 1083 l 1
 421 1083 l 1
 543 1511 l 1
948 1511 m 1
 1133 1511 l 1
 1011 1083 l 1
 826 1083 l 1
 948 1511 l 1
1353 1511 m 1
 1538 1511 l 1
 1416 1083 l 1
 1231 1083 l 1
 1353 1511 l 1
EndSplineSet
Validated: 1
EndChar

StartChar: uni2035
Encoding: 8245 8245 357
Width: 405
VWidth: 2097
Flags: HW
LayerCount: 2
Fore
SplineSet
503 1511 m 5xc0
 698 1511 l 5xc0
 644 1078 l 5
 449 1078 l 5xa0
 503 1511 l 5xc0
EndSplineSet
Validated: 1
EndChar

StartChar: uni0191
Encoding: 401 401 358
Width: 1248
VWidth: 2097
Flags: HW
LayerCount: 2
Fore
SplineSet
-251 -503 m 1
 -191 -381 l 1
 -137 -397 -86 -405 -40 -405 c 0
 100 -405 195 -331 234 -195 c 2
 697 1421 l 1
 1520 1421 l 1
 1477 1271 l 1
 824 1271 l 1
 691 807 l 1
 1284 807 l 1
 1241 657 l 1
 648 657 l 1
 402 -201 l 2
 331 -450 157 -541 -30 -541 c 0
 -104 -541 -179 -527 -251 -503 c 1
EndSplineSet
Validated: 1
EndChar

StartChar: uni022C
Encoding: 556 556 359
Width: 1686
VWidth: 0
Flags: H
LayerCount: 2
Fore
SplineSet
1145 2137 m 1
 1885 2137 l 1
 1848 2008 l 1
 1108 2008 l 1
 1145 2137 l 1
1708 1878 m 1
 1811 1861 l 1
 1753 1741 1688 1574 1526 1574 c 0
 1367 1574 1344 1754 1260 1754 c 0
 1185 1754 1148 1654 1108 1572 c 1
 1005 1589 l 1
 1063 1709 1127 1876 1289 1876 c 0
 1448 1876 1471 1696 1555 1696 c 0
 1630 1696 1668 1796 1708 1878 c 1
1579 709 m 0
 1601 787 1612 857 1612 918 c 0
 1612 1176 1432 1287 1244 1287 c 2
 1241 1287 l 2
 1013 1287 711 1117 599 728 c 0
 577 650 566 579 566 514 c 0
 566 277 708 134 928 134 c 0
 1159 134 1464 308 1579 709 c 0
1296 1436 m 0
 1600 1436 1796 1262 1796 966 c 0
 1796 893 1784 813 1759 727 c 0
 1632 284 1264 -15 873 -15 c 0
 601 -15 380 140 380 458 c 0
 380 532 392 615 418 707 c 0
 546 1154 913 1436 1296 1436 c 0
EndSplineSet
Validated: 1
EndChar

StartChar: uni1E6B
Encoding: 7787 7787 360
Width: 744
VWidth: 0
Flags: HW
LayerCount: 2
Fore
SplineSet
698 17 m 1xe8
 648 5 541 -20 464 -20 c 0
 311 -20 260 52 260 154 c 0
 260 199 270 249 285 302 c 2
 437 834 l 1
 307 834 l 1
 344 963 l 1
 474 963 l 1
 560 1263 l 1
 724 1263 l 1
 638 963 l 1
 933 963 l 1
 896 834 l 1
 601 834 l 1
 450 306 l 2
 444 284 434 250 434 215 c 0
 434 161 457 108 552 108 c 0
 582 108 598 111 707 128 c 1
 698 17 l 1xe8
656 1621 m 1xf0
 866 1621 l 1
 806 1411 l 1
 596 1411 l 1
 656 1621 l 1xf0
EndSplineSet
Validated: 1
EndChar

StartChar: uni1E6A
Encoding: 7786 7786 361
Width: 1210
VWidth: 0
Flags: HW
LayerCount: 2
Fore
SplineSet
492 1421 m 1xe8
 1612 1421 l 1
 1569 1271 l 1
 1094 1271 l 1
 730 0 l 1
 560 0 l 1
 924 1271 l 1
 449 1271 l 1
 492 1421 l 1xe8
1100 1898 m 1xf0
 1310 1898 l 1
 1250 1688 l 1
 1040 1688 l 1
 1100 1898 l 1xf0
EndSplineSet
Validated: 1
EndChar

StartChar: uni1E02
Encoding: 7682 7682 362
Width: 1424
VWidth: 0
Flags: H
LayerCount: 2
Fore
SplineSet
830 1291 m 1xfe
 693 814 l 1
 904 820 1247 798 1325 1071 c 0
 1331 1091 1335 1114 1335 1137 c 0
 1335 1213 1289 1291 1104 1291 c 2
 830 1291 l 1xfe
656 682 m 1
 503 150 l 1
 768 150 l 2
 886 150 1173 152 1248 413 c 0xfd
 1256 441 1260 467 1260 491 c 0
 1260 623 1143 696 950 696 c 0
 921 696 891 694 656 682 c 1
697 1421 m 1
 1198 1421 l 2
 1455 1421 1505 1282 1505 1177 c 0
 1505 1136 1497 1100 1491 1079 c 0xfe
 1456 957 1318 826 1226 794 c 1
 1360 768 1438 664 1438 533 c 0
 1438 500 1433 466 1423 431 c 0
 1386 302 1218 0 752 0 c 2
 290 0 l 1
 697 1421 l 1
1224 1898 m 1
 1434 1898 l 1
 1374 1688 l 1
 1164 1688 l 1
 1224 1898 l 1
EndSplineSet
Validated: 1
EndChar

StartChar: uni1E03
Encoding: 7683 7683 363
Width: 1174
VWidth: 0
Flags: HW
LayerCount: 2
Fore
SplineSet
612 916 m 1x7f
 693 953 791 983 892 983 c 0
 1043 983 1212 912 1212 681 c 0
 1212 627 1203 565 1182 493 c 0
 1089 169 841 -20 576 -20 c 0xbf
 471 -20 387 13 332 46 c 1
 299 0 l 1
 185 0 l 1
 617 1505 l 1
 781 1505 l 1
 612 916 l 1x7f
797 847 m 0
 736 847 662 834 578 796 c 1
 393 154 l 1
 435 134 505 109 588 109 c 0
 728 109 934 184 1014 465 c 0
 1031 526 1039 577 1039 620 c 0
 1039 804 903 847 797 847 c 0
1062 1898 m 1
 1272 1898 l 1
 1212 1688 l 1
 1002 1688 l 1
 1062 1898 l 1
EndSplineSet
Validated: 1
EndChar

StartChar: uni1E0A
Encoding: 7690 7690 364
Width: 1606
VWidth: 0
Flags: HW
LayerCount: 2
Fore
SplineSet
1286 1898 m 1
 1496 1898 l 1
 1436 1688 l 1
 1226 1688 l 1
 1286 1898 l 1
824 1271 m 1
 503 150 l 1
 710 150 l 2
 871 150 1125 155 1327 411 c 0
 1370 465 1437 566 1481 720 c 0
 1502 792 1511 856 1511 913 c 0
 1511 1132 1373 1238 1231 1263 c 0
 1189 1271 1144 1271 1100 1271 c 2
 824 1271 l 1
1137 1421 m 2
 1568 1421 1698 1216 1698 984 c 0
 1698 908 1684 829 1662 754 c 0
 1578 461 1374 124 973 30 c 0
 845 0 721 0 598 0 c 2
 290 0 l 1
 697 1421 l 1
 1137 1421 l 2
EndSplineSet
Validated: 1
EndChar

StartChar: Wgrave
Encoding: 7808 7808 365
Width: 2155
VWidth: 0
Flags: H
LayerCount: 2
Fore
SplineSet
547 1421 m 1
 729 1421 l 1
 744 227 l 1
 1446 1421 l 1
 1617 1421 l 1
 1645 227 l 1
 2334 1421 l 1
 2502 1421 l 1
 1669 0 l 1
 1488 0 l 1
 1455 1187 l 1
 766 0 l 1
 585 0 l 1
 547 1421 l 1
1519 1928 m 25
 1934 1618 l 25
 1841 1511 l 25
 1414 1805 l 25
 1519 1928 l 25
EndSplineSet
Validated: 1
EndChar

StartChar: Wacute
Encoding: 7810 7810 366
Width: 2155
VWidth: 0
Flags: H
LayerCount: 2
Fore
SplineSet
547 1421 m 1
 729 1421 l 1
 744 227 l 1
 1446 1421 l 1
 1617 1421 l 1
 1645 227 l 1
 2334 1421 l 1
 2502 1421 l 1
 1669 0 l 1
 1488 0 l 1
 1455 1187 l 1
 766 0 l 1
 585 0 l 1
 547 1421 l 1
1873 1928 m 1
 1908 1805 l 1
 1311 1511 l 1
 1280 1618 l 1
 1873 1928 l 1
EndSplineSet
Validated: 1
EndChar

StartChar: uni1E0B
Encoding: 7691 7691 367
Width: 1179
VWidth: 0
Flags: HW
LayerCount: 2
Fore
SplineSet
1006 1898 m 1x3f
 1216 1898 l 1
 1155 1688 l 1
 945 1688 l 1
 1006 1898 l 1x3f
646 115 m 0xbf
 730 115 812 142 871 169 c 1
 1054 808 l 1
 1012 829 941 854 856 854 c 0
 716 854 511 781 427 490 c 0
 411 433 404 384 404 343 c 0
 404 161 540 115 646 115 c 0xbf
868 983 m 0
 963 983 1032 959 1089 930 c 1
 1254 1505 l 1
 1418 1505 l 1
 986 0 l 1
 872 0 l 1x7f
 863 62 l 1
 747 3 639 -20 553 -20 c 0
 396 -20 231 59 231 284 c 0
 231 336 240 396 260 465 c 0
 358 806 611 983 868 983 c 0
EndSplineSet
Validated: 1
EndChar

StartChar: Ygrave
Encoding: 7922 7922 368
Width: 1263
VWidth: 0
Flags: H
LayerCount: 2
Fore
SplineSet
507 1421 m 1
 708 1421 l 1
 902 834 l 1
 1440 1421 l 1
 1630 1421 l 1
 932 673 l 1
 739 0 l 1
 569 0 l 1
 762 673 l 1
 507 1421 l 1
1013 1928 m 25
 1428 1618 l 25
 1335 1511 l 25
 908 1805 l 25
 1013 1928 l 25
EndSplineSet
Validated: 1
EndChar

StartChar: uni1E1E
Encoding: 7710 7710 369
Width: 1248
VWidth: 0
Flags: H
LayerCount: 2
Fore
SplineSet
824 1271 m 1
 691 807 l 1
 1284 807 l 1
 1241 657 l 1
 648 657 l 1
 460 0 l 1
 290 0 l 1
 697 1421 l 1
 1520 1421 l 1
 1477 1271 l 1
 824 1271 l 1
1130 1898 m 1
 1340 1898 l 1
 1280 1688 l 1
 1070 1688 l 1
 1130 1898 l 1
EndSplineSet
Validated: 1
EndChar

StartChar: uni1E1F
Encoding: 7711 7711 370
Width: 811
VWidth: 0
Flags: HW
LayerCount: 2
Fore
SplineSet
1020 1282 m 0xf8
 815 1282 760 1128 745 1076 c 2
 713 963 l 1
 1041 963 l 1
 1004 834 l 1
 676 834 l 1
 437 0 l 1
 271 0 l 1
 510 834 l 1
 371 834 l 1
 408 963 l 1
 547 963 l 1
 577 1067 l 2
 595 1129 617 1204 674 1272 c 0
 753 1367 873 1420 1005 1420 c 0
 1092 1420 1175 1398 1229 1380 c 1
 1169 1257 l 1
 1141 1265 1082 1282 1020 1282 c 0xf8
940 1829 m 1xf4
 1150 1829 l 1
 1089 1619 l 1
 879 1619 l 1
 940 1829 l 1xf4
EndSplineSet
Validated: 1
EndChar

StartChar: uni1E40
Encoding: 7744 7744 371
Width: 1884
VWidth: 0
Flags: H
LayerCount: 2
Fore
SplineSet
697 1421 m 1
 937 1421 l 1
 1146 559 l 1
 1856 1421 l 1
 2081 1421 l 1
 1674 0 l 1
 1504 0 l 1
 1841 1177 l 1
 1184 407 l 1
 1014 407 l 1
 797 1177 l 1
 460 0 l 1
 290 0 l 1
 697 1421 l 1
1411 1898 m 1
 1621 1898 l 1
 1561 1688 l 1
 1351 1688 l 1
 1411 1898 l 1
EndSplineSet
Validated: 1
EndChar

StartChar: uni1E41
Encoding: 7745 7745 372
Width: 1709
VWidth: 0
Flags: HW
LayerCount: 2
Fore
SplineSet
803 831 m 0xdb
 758 831 701 822 557 757 c 1
 340 0 l 1
 176 0 l 1
 452 963 l 1
 567 963 l 1xbb
 578 881 l 1
 657 920 789 982 911 982 c 0
 1050 982 1097 904 1112 872 c 1
 1194 912 1342 981 1489 981 c 0
 1663 981 1725 900 1725 774 c 0
 1725 717 1712 651 1691 578 c 2
 1525 0 l 1
 1360 0 l 1
 1528 588 l 2
 1535 611 1546 652 1546 693 c 0
 1546 761 1517 831 1393 831 c 0
 1308 831 1203 787 1133 756 c 1
 1131 699 1114 636 1095 569 c 2
 932 0 l 1
 767 0 l 1
 936 590 l 2
 942 611 952 650 952 691 c 0
 952 759 924 831 803 831 c 0xdb
1163 1421 m 1x9d
 1373 1421 l 1
 1313 1212 l 1
 1103 1212 l 1
 1163 1421 l 1x9d
EndSplineSet
Validated: 1
EndChar

StartChar: uni1E56
Encoding: 7766 7766 373
Width: 1339
VWidth: 0
Flags: HW
LayerCount: 2
Fore
SplineSet
697 1421 m 1
 1166 1421 l 2
 1289 1421 1552 1419 1552 1177 c 0
 1552 1139 1546 1094 1531 1043 c 0
 1410 621 1069 589 793 589 c 0
 738 589 685 592 631 596 c 1
 460 0 l 1
 290 0 l 1
 697 1421 l 1
674 746 m 1
 733 741 793 738 854 738 c 0
 1039 738 1274 748 1351 1015 c 0
 1361 1049 1365 1078 1365 1104 c 0
 1365 1260 1202 1271 1072 1271 c 2
 824 1271 l 1
 674 746 l 1
1151 1898 m 1
 1361 1898 l 1
 1301 1688 l 1
 1091 1688 l 1
 1151 1898 l 1
EndSplineSet
Validated: 1
EndChar

StartChar: wgrave
Encoding: 7809 7809 374
Width: 1654
VWidth: 0
Flags: HW
LayerCount: 2
Fore
SplineSet
342 988 m 1
 517 988 l 1
 540 159 l 1
 1026 988 l 1
 1183 988 l 1
 1203 160 l 1
 1701 988 l 1
 1876 988 l 1
 1237 0 l 1
 1076 0 l 1
 1049 801 l 1
 566 0 l 1
 405 0 l 1
 342 988 l 1
1136 1549 m 25
 1398 1225 l 25
 1291 1125 l 25
 1015 1440 l 25
 1136 1549 l 25
EndSplineSet
Validated: 1
EndChar

StartChar: uni1E57
Encoding: 7767 7767 375
Width: 1168
VWidth: 0
Flags: HW
LayerCount: 2
Fore
SplineSet
570 -20 m 0
 475 -20 406 4 349 33 c 1
 187 -531 l 1
 23 -531 l 1
 452 963 l 1
 566 963 l 1
 575 900 l 1xbe
 692 959 800 982 886 982 c 0xde
 1038 982 1205 909 1205 679 c 0
 1205 626 1196 563 1176 492 c 0
 1083 169 836 -20 570 -20 c 0
791 846 m 0
 728 846 652 832 567 793 c 1
 384 155 l 1
 426 134 497 109 582 109 c 0
 722 109 929 184 1009 465 c 0
 1026 525 1034 577 1034 620 c 0
 1034 804 897 846 791 846 c 0
935 1421 m 1
 1145 1421 l 1
 1085 1212 l 1
 875 1212 l 1
 935 1421 l 1
EndSplineSet
Validated: 1
EndChar

StartChar: wacute
Encoding: 7811 7811 376
Width: 1654
VWidth: 0
Flags: HW
LayerCount: 2
Fore
SplineSet
342 988 m 1
 517 988 l 1
 540 159 l 1
 1026 988 l 1
 1183 988 l 1
 1203 160 l 1
 1701 988 l 1
 1876 988 l 1
 1237 0 l 1
 1076 0 l 1
 1049 801 l 1
 566 0 l 1
 405 0 l 1
 342 988 l 1
1429 1549 m 25
 1488 1440 l 25
 1031 1125 l 25
 982 1225 l 25
 1429 1549 l 25
EndSplineSet
Validated: 1
EndChar

StartChar: uni1E60
Encoding: 7776 7776 377
Width: 1361
VWidth: 0
Flags: HW
LayerCount: 2
Fore
SplineSet
1191 1898 m 1
 1401 1898 l 1
 1341 1688 l 1
 1131 1688 l 1
 1191 1898 l 1
1232 1434 m 0
 1360 1434 1481 1406 1569 1377 c 1
 1469 1222 l 1
 1428 1235 1297 1274 1172 1274 c 0
 979 1274 793 1184 755 1050 c 0
 750 1034 748 1018 748 1004 c 0
 748 772 1350 821 1350 493 c 0
 1350 464 1345 432 1335 397 c 0
 1283 214 1067 -20 666 -20 c 0
 497 -20 384 22 262 76 c 1
 367 241 l 1
 531 173 651 148 735 148 c 0
 935 148 1104 235 1143 372 c 0
 1149 391 1151 409 1151 425 c 0
 1151 674 548 609 548 930 c 0
 548 958 552 988 562 1022 c 0
 625 1242 895 1434 1232 1434 c 0
EndSplineSet
Validated: 1
EndChar

StartChar: ygrave
Encoding: 7923 7923 378
Width: 1039
VWidth: 0
Flags: HW
LayerCount: 2
Fore
SplineSet
332 988 m 1
 502 988 l 1
 574 150 l 1
 1101 988 l 1
 1271 988 l 1
 276 -531 l 1
 101 -531 l 1
 444 -38 l 1
 332 988 l 1
817 1549 m 29
 1080 1225 l 29
 974 1125 l 29
 694 1440 l 29
 817 1549 l 29
EndSplineSet
Validated: 1
EndChar

StartChar: Wdieresis
Encoding: 7812 7812 379
Width: 2155
VWidth: 0
Flags: H
LayerCount: 2
Fore
SplineSet
547 1421 m 1
 729 1421 l 1
 744 227 l 1
 1446 1421 l 1
 1617 1421 l 1
 1645 227 l 1
 2334 1421 l 1
 2502 1421 l 1
 1669 0 l 1
 1488 0 l 1
 1455 1187 l 1
 766 0 l 1
 585 0 l 1
 547 1421 l 1
1344 1898 m 1
 1529 1898 l 1
 1476 1713 l 1
 1291 1713 l 1
 1344 1898 l 1
1794 1898 m 1
 1979 1898 l 1
 1926 1713 l 1
 1741 1713 l 1
 1794 1898 l 1
EndSplineSet
Validated: 1
EndChar

StartChar: wdieresis
Encoding: 7813 7813 380
Width: 1663
VWidth: 0
Flags: HW
LayerCount: 2
Fore
SplineSet
342 988 m 1
 517 988 l 1
 540 159 l 1
 1030 988 l 1
 1187 988 l 1
 1212 160 l 1
 1711 988 l 1
 1886 988 l 1
 1246 0 l 1
 1084 0 l 1
 1054 801 l 1
 567 0 l 1
 405 0 l 1
 342 988 l 1
919 1421 m 1
 1104 1421 l 1
 1051 1237 l 1
 866 1237 l 1
 919 1421 l 1
1362 1421 m 1
 1547 1421 l 1
 1494 1237 l 1
 1309 1237 l 1
 1362 1421 l 1
EndSplineSet
Validated: 1
EndChar

